%FSLAX45Y45*%
G04 Gerber Fmt 4.5, Leading zero omitted, Abs format (unit mm)*
G04 Created by KiCad (PCBNEW (5.1.5-0)) date 2022-08-09 08:11:09*
%MOMM*%
%LPD*%
G04 APERTURE LIST*
%TA.AperFunction,Profile*%
%ADD10C,0.100000*%
%TD*%
%ADD11C,0.200000*%
%ADD12C,0.300000*%
G04 APERTURE END LIST*
D10*
X18846800Y-8432800D02*
X18846800Y-11785600D01*
X13004800Y-8432800D02*
X18846800Y-8432800D01*
X13004800Y-11785600D02*
X13004800Y-8432800D01*
X18846800Y-11785600D02*
X13004800Y-11785600D01*
D11*
D12*
X13286228Y-12256314D02*
X13286228Y-11956314D01*
X13357657Y-11956314D01*
X13400514Y-11970600D01*
X13429086Y-11999171D01*
X13443371Y-12027743D01*
X13457657Y-12084886D01*
X13457657Y-12127743D01*
X13443371Y-12184886D01*
X13429086Y-12213457D01*
X13400514Y-12242029D01*
X13357657Y-12256314D01*
X13286228Y-12256314D01*
X13586228Y-12256314D02*
X13586228Y-12056314D01*
X13586228Y-12113457D02*
X13600514Y-12084886D01*
X13614800Y-12070600D01*
X13643371Y-12056314D01*
X13671943Y-12056314D01*
X13771943Y-12256314D02*
X13771943Y-12056314D01*
X13771943Y-11956314D02*
X13757657Y-11970600D01*
X13771943Y-11984886D01*
X13786228Y-11970600D01*
X13771943Y-11956314D01*
X13771943Y-11984886D01*
X13957657Y-12256314D02*
X13929086Y-12242029D01*
X13914800Y-12213457D01*
X13914800Y-11956314D01*
X14114800Y-12256314D02*
X14086228Y-12242029D01*
X14071943Y-12213457D01*
X14071943Y-11956314D01*
X14457657Y-12256314D02*
X14457657Y-11956314D01*
X14557657Y-12170600D01*
X14657657Y-11956314D01*
X14657657Y-12256314D01*
X14929086Y-12256314D02*
X14929086Y-12099171D01*
X14914800Y-12070600D01*
X14886228Y-12056314D01*
X14829086Y-12056314D01*
X14800514Y-12070600D01*
X14929086Y-12242029D02*
X14900514Y-12256314D01*
X14829086Y-12256314D01*
X14800514Y-12242029D01*
X14786228Y-12213457D01*
X14786228Y-12184886D01*
X14800514Y-12156314D01*
X14829086Y-12142029D01*
X14900514Y-12142029D01*
X14929086Y-12127743D01*
X15071943Y-12056314D02*
X15071943Y-12356314D01*
X15071943Y-12070600D02*
X15100514Y-12056314D01*
X15157657Y-12056314D01*
X15186228Y-12070600D01*
X15200514Y-12084886D01*
X15214800Y-12113457D01*
X15214800Y-12199171D01*
X15200514Y-12227743D01*
X15186228Y-12242029D01*
X15157657Y-12256314D01*
X15100514Y-12256314D01*
X15071943Y-12242029D01*
X15343371Y-12227743D02*
X15357657Y-12242029D01*
X15343371Y-12256314D01*
X15329086Y-12242029D01*
X15343371Y-12227743D01*
X15343371Y-12256314D01*
X15343371Y-12070600D02*
X15357657Y-12084886D01*
X15343371Y-12099171D01*
X15329086Y-12084886D01*
X15343371Y-12070600D01*
X15343371Y-12099171D01*
M02*
