M48
; DRILL file {KiCad (5.1.5-0)} date Tuesday, August 09, 2022 at 08:11:01 AM
; FORMAT={-:-/ absolute / metric / decimal}
; #@! TF.CreationDate,2022-08-09T08:11:01-04:00
; #@! TF.GenerationSoftware,Kicad,Pcbnew,(5.1.5-0)
; #@! TF.FileFunction,Plated,1,2,PTH
FMAT,2
METRIC
T1C1.000
%
G90
G05
T1
X132.588Y-88.646
X132.588Y-91.186
X135.128Y-88.646
X135.128Y-91.186
X137.668Y-88.646
X137.668Y-91.186
X140.208Y-88.646
X140.208Y-91.186
X142.748Y-88.646
X142.748Y-91.186
X145.288Y-88.646
X145.288Y-91.186
X147.828Y-88.646
X147.828Y-91.186
X150.368Y-88.646
X150.368Y-91.186
X152.908Y-88.646
X152.908Y-91.186
X155.448Y-88.646
X155.448Y-91.186
X157.988Y-88.646
X157.988Y-91.186
X160.528Y-88.646
X160.528Y-91.186
X163.068Y-88.646
X163.068Y-91.186
X165.608Y-88.646
X165.608Y-91.186
X168.148Y-88.646
X168.148Y-91.186
X170.688Y-88.646
X170.688Y-91.186
X173.228Y-88.646
X173.228Y-91.186
X175.768Y-88.646
X175.768Y-91.186
X178.308Y-88.646
X178.308Y-91.186
X180.848Y-88.646
X180.848Y-91.186
X183.388Y-88.646
X183.388Y-91.186
X185.928Y-88.646
X185.928Y-91.186
T0
M30
