G04 #@! TF.GenerationSoftware,KiCad,Pcbnew,(5.1.5-0)*
G04 #@! TF.CreationDate,2022-08-09T08:10:04-04:00*
G04 #@! TF.ProjectId,breakout_board,62726561-6b6f-4757-945f-626f6172642e,rev?*
G04 #@! TF.SameCoordinates,Original*
G04 #@! TF.FileFunction,Legend,Bot*
G04 #@! TF.FilePolarity,Positive*
%FSLAX46Y46*%
G04 Gerber Fmt 4.6, Leading zero omitted, Abs format (unit mm)*
G04 Created by KiCad (PCBNEW (5.1.5-0)) date 2022-08-09 08:10:04*
%MOMM*%
%LPD*%
G04 APERTURE LIST*
%ADD10C,0.200000*%
%ADD11R,1.372000X5.182000*%
%ADD12O,1.802000X1.802000*%
%ADD13R,1.802000X1.802000*%
G04 APERTURE END LIST*
D10*
X186213714Y-110275714D02*
X186213714Y-110942380D01*
X186451809Y-109894761D02*
X186689904Y-110609047D01*
X186070857Y-110609047D01*
X185261333Y-110275714D02*
X185261333Y-110942380D01*
X185499428Y-109894761D02*
X185737523Y-110609047D01*
X185118476Y-110609047D01*
X134937523Y-110021714D02*
X134937523Y-110688380D01*
X135175619Y-109640761D02*
X135413714Y-110355047D01*
X134794666Y-110355047D01*
X132873714Y-109783619D02*
X132826095Y-109736000D01*
X132730857Y-109688380D01*
X132492761Y-109688380D01*
X132397523Y-109736000D01*
X132349904Y-109783619D01*
X132302285Y-109878857D01*
X132302285Y-109974095D01*
X132349904Y-110116952D01*
X132921333Y-110688380D01*
X132302285Y-110688380D01*
%LPC*%
D11*
X132636260Y-114454940D03*
X135176260Y-114454940D03*
X137716260Y-114454940D03*
X140256260Y-114454940D03*
X142796260Y-114454940D03*
X145336260Y-114454940D03*
X147876260Y-114454940D03*
X150416260Y-114454940D03*
X152956260Y-114454940D03*
X155496260Y-114454940D03*
X158036260Y-114454940D03*
X160576260Y-114454940D03*
X163116260Y-114454940D03*
X165656260Y-114454940D03*
X168196260Y-114454940D03*
X170736260Y-114454940D03*
X173276260Y-114454940D03*
X175816260Y-114454940D03*
X178356260Y-114454940D03*
X180896260Y-114454940D03*
X183436260Y-114454940D03*
X185976260Y-114454940D03*
D12*
X185928000Y-91186000D03*
X185928000Y-88646000D03*
X183388000Y-91186000D03*
X183388000Y-88646000D03*
X180848000Y-91186000D03*
X180848000Y-88646000D03*
X178308000Y-91186000D03*
X178308000Y-88646000D03*
X175768000Y-91186000D03*
X175768000Y-88646000D03*
X173228000Y-91186000D03*
X173228000Y-88646000D03*
X170688000Y-91186000D03*
X170688000Y-88646000D03*
X168148000Y-91186000D03*
X168148000Y-88646000D03*
X165608000Y-91186000D03*
X165608000Y-88646000D03*
X163068000Y-91186000D03*
X163068000Y-88646000D03*
X160528000Y-91186000D03*
X160528000Y-88646000D03*
X157988000Y-91186000D03*
X157988000Y-88646000D03*
X155448000Y-91186000D03*
X155448000Y-88646000D03*
X152908000Y-91186000D03*
X152908000Y-88646000D03*
X150368000Y-91186000D03*
X150368000Y-88646000D03*
X147828000Y-91186000D03*
X147828000Y-88646000D03*
X145288000Y-91186000D03*
X145288000Y-88646000D03*
X142748000Y-91186000D03*
X142748000Y-88646000D03*
X140208000Y-91186000D03*
X140208000Y-88646000D03*
X137668000Y-91186000D03*
X137668000Y-88646000D03*
X135128000Y-91186000D03*
X135128000Y-88646000D03*
X132588000Y-91186000D03*
D13*
X132588000Y-88646000D03*
M02*
