G04 #@! TF.GenerationSoftware,KiCad,Pcbnew,(5.1.5-0)*
G04 #@! TF.CreationDate,2022-08-09T08:10:04-04:00*
G04 #@! TF.ProjectId,breakout_board,62726561-6b6f-4757-945f-626f6172642e,rev?*
G04 #@! TF.SameCoordinates,Original*
G04 #@! TF.FileFunction,Copper,L1,Top*
G04 #@! TF.FilePolarity,Positive*
%FSLAX46Y46*%
G04 Gerber Fmt 4.6, Leading zero omitted, Abs format (unit mm)*
G04 Created by KiCad (PCBNEW (5.1.5-0)) date 2022-08-09 08:10:04*
%MOMM*%
%LPD*%
G04 APERTURE LIST*
%ADD10R,1.270000X5.080000*%
%ADD11O,1.700000X1.700000*%
%ADD12R,1.700000X1.700000*%
%ADD13C,0.250000*%
G04 APERTURE END LIST*
D10*
X132626100Y-114452400D03*
X135166100Y-114452400D03*
X137706100Y-114452400D03*
X140246100Y-114452400D03*
X142786100Y-114452400D03*
X145326100Y-114452400D03*
X147866100Y-114452400D03*
X150406100Y-114452400D03*
X152946100Y-114452400D03*
X155486100Y-114452400D03*
X158026100Y-114452400D03*
X160566100Y-114452400D03*
X163106100Y-114452400D03*
X165646100Y-114452400D03*
X168186100Y-114452400D03*
X170726100Y-114452400D03*
X173266100Y-114452400D03*
X175806100Y-114452400D03*
X178346100Y-114452400D03*
X180886100Y-114452400D03*
X183426100Y-114452400D03*
X185966100Y-114452400D03*
D11*
X185928000Y-91186000D03*
X185928000Y-88646000D03*
X183388000Y-91186000D03*
X183388000Y-88646000D03*
X180848000Y-91186000D03*
X180848000Y-88646000D03*
X178308000Y-91186000D03*
X178308000Y-88646000D03*
X175768000Y-91186000D03*
X175768000Y-88646000D03*
X173228000Y-91186000D03*
X173228000Y-88646000D03*
X170688000Y-91186000D03*
X170688000Y-88646000D03*
X168148000Y-91186000D03*
X168148000Y-88646000D03*
X165608000Y-91186000D03*
X165608000Y-88646000D03*
X163068000Y-91186000D03*
X163068000Y-88646000D03*
X160528000Y-91186000D03*
X160528000Y-88646000D03*
X157988000Y-91186000D03*
X157988000Y-88646000D03*
X155448000Y-91186000D03*
X155448000Y-88646000D03*
X152908000Y-91186000D03*
X152908000Y-88646000D03*
X150368000Y-91186000D03*
X150368000Y-88646000D03*
X147828000Y-91186000D03*
X147828000Y-88646000D03*
X145288000Y-91186000D03*
X145288000Y-88646000D03*
X142748000Y-91186000D03*
X142748000Y-88646000D03*
X140208000Y-91186000D03*
X140208000Y-88646000D03*
X137668000Y-91186000D03*
X137668000Y-88646000D03*
X135128000Y-91186000D03*
X135128000Y-88646000D03*
X132588000Y-91186000D03*
D12*
X132588000Y-88646000D03*
D13*
X131741100Y-114452400D02*
X132626100Y-114452400D01*
X131412999Y-114124299D02*
X131741100Y-114452400D01*
X131412999Y-88721001D02*
X131412999Y-114124299D01*
X131488000Y-88646000D02*
X131412999Y-88721001D01*
X132588000Y-88646000D02*
X131488000Y-88646000D01*
X134281100Y-114452400D02*
X135166100Y-114452400D01*
X133952999Y-114124299D02*
X134281100Y-114452400D01*
X133952999Y-89821001D02*
X133952999Y-114124299D01*
X135128000Y-88646000D02*
X133952999Y-89821001D01*
X136492999Y-114124299D02*
X136821100Y-114452400D01*
X136492999Y-89821001D02*
X136492999Y-114124299D01*
X136821100Y-114452400D02*
X137706100Y-114452400D01*
X137668000Y-88646000D02*
X136492999Y-89821001D01*
X139361100Y-114452400D02*
X140246100Y-114452400D01*
X139032999Y-114124299D02*
X139361100Y-114452400D01*
X139032999Y-89821001D02*
X139032999Y-114124299D01*
X140208000Y-88646000D02*
X139032999Y-89821001D01*
X141572999Y-114124299D02*
X141901100Y-114452400D01*
X141572999Y-90621999D02*
X141572999Y-114124299D01*
X142748000Y-89446998D02*
X141572999Y-90621999D01*
X141901100Y-114452400D02*
X142786100Y-114452400D01*
X142748000Y-88646000D02*
X142748000Y-89446998D01*
X144112999Y-114124299D02*
X144441100Y-114452400D01*
X144441100Y-114452400D02*
X145326100Y-114452400D01*
X144112999Y-90621999D02*
X144112999Y-114124299D01*
X145288000Y-89446998D02*
X144112999Y-90621999D01*
X145288000Y-88646000D02*
X145288000Y-89446998D01*
X146981100Y-114452400D02*
X147866100Y-114452400D01*
X146652999Y-114124299D02*
X146981100Y-114452400D01*
X146652999Y-89821001D02*
X146652999Y-114124299D01*
X147828000Y-88646000D02*
X146652999Y-89821001D01*
X149521100Y-114452400D02*
X150406100Y-114452400D01*
X149192999Y-114124299D02*
X149521100Y-114452400D01*
X149192999Y-89821001D02*
X149192999Y-114124299D01*
X150368000Y-88646000D02*
X149192999Y-89821001D01*
X151543001Y-113934301D02*
X152061100Y-114452400D01*
X152061100Y-114452400D02*
X152946100Y-114452400D01*
X151543001Y-90010999D02*
X151543001Y-113934301D01*
X152908000Y-88646000D02*
X151543001Y-90010999D01*
X154601100Y-114452400D02*
X155486100Y-114452400D01*
X154272999Y-114124299D02*
X154601100Y-114452400D01*
X154272999Y-89821001D02*
X154272999Y-114124299D01*
X155448000Y-88646000D02*
X154272999Y-89821001D01*
X157141100Y-114452400D02*
X158026100Y-114452400D01*
X156623001Y-113934301D02*
X157141100Y-114452400D01*
X156623001Y-90010999D02*
X156623001Y-113934301D01*
X157988000Y-88646000D02*
X156623001Y-90010999D01*
X159681100Y-114452400D02*
X160566100Y-114452400D01*
X159163001Y-113934301D02*
X159681100Y-114452400D01*
X159163001Y-90010999D02*
X159163001Y-113934301D01*
X160528000Y-88646000D02*
X159163001Y-90010999D01*
X162221100Y-114452400D02*
X163106100Y-114452400D01*
X161703001Y-113934301D02*
X162221100Y-114452400D01*
X161703001Y-90010999D02*
X161703001Y-113934301D01*
X163068000Y-88646000D02*
X161703001Y-90010999D01*
X164761100Y-114452400D02*
X165646100Y-114452400D01*
X164432999Y-114124299D02*
X164761100Y-114452400D01*
X164432999Y-89821001D02*
X164432999Y-114124299D01*
X165608000Y-88646000D02*
X164432999Y-89821001D01*
X167301100Y-114452400D02*
X168186100Y-114452400D01*
X166972999Y-114124299D02*
X167301100Y-114452400D01*
X166972999Y-89821001D02*
X166972999Y-114124299D01*
X168148000Y-88646000D02*
X166972999Y-89821001D01*
X169841100Y-114452400D02*
X170726100Y-114452400D01*
X169512999Y-114124299D02*
X169841100Y-114452400D01*
X169512999Y-89821001D02*
X169512999Y-114124299D01*
X170688000Y-88646000D02*
X169512999Y-89821001D01*
X172381100Y-114452400D02*
X173266100Y-114452400D01*
X172052999Y-114124299D02*
X172381100Y-114452400D01*
X172052999Y-89821001D02*
X172052999Y-114124299D01*
X173228000Y-88646000D02*
X172052999Y-89821001D01*
X174921100Y-114452400D02*
X175806100Y-114452400D01*
X174592999Y-114124299D02*
X174921100Y-114452400D01*
X174592999Y-89821001D02*
X174592999Y-114124299D01*
X175768000Y-88646000D02*
X174592999Y-89821001D01*
X177461100Y-114452400D02*
X178346100Y-114452400D01*
X177132999Y-114124299D02*
X177461100Y-114452400D01*
X177132999Y-89821001D02*
X177132999Y-114124299D01*
X178308000Y-88646000D02*
X177132999Y-89821001D01*
X179483001Y-113934301D02*
X180001100Y-114452400D01*
X180001100Y-114452400D02*
X180886100Y-114452400D01*
X179483001Y-90010999D02*
X179483001Y-113934301D01*
X180848000Y-88646000D02*
X179483001Y-90010999D01*
X182541100Y-114452400D02*
X183426100Y-114452400D01*
X182212999Y-114124299D02*
X182541100Y-114452400D01*
X182212999Y-89821001D02*
X182212999Y-114124299D01*
X183388000Y-88646000D02*
X182212999Y-89821001D01*
X184752999Y-114124299D02*
X185081100Y-114452400D01*
X185081100Y-114452400D02*
X185966100Y-114452400D01*
X184752999Y-90432001D02*
X184752999Y-114124299D01*
X185928000Y-89257000D02*
X184752999Y-90432001D01*
X185928000Y-88646000D02*
X185928000Y-89257000D01*
M02*
