G04 #@! TF.GenerationSoftware,KiCad,Pcbnew,(5.1.5-0)*
G04 #@! TF.CreationDate,2022-08-30T11:13:50-04:00*
G04 #@! TF.ProjectId,breakout_board,62726561-6b6f-4757-945f-626f6172642e,rev?*
G04 #@! TF.SameCoordinates,Original*
G04 #@! TF.FileFunction,Soldermask,Top*
G04 #@! TF.FilePolarity,Negative*
%FSLAX46Y46*%
G04 Gerber Fmt 4.6, Leading zero omitted, Abs format (unit mm)*
G04 Created by KiCad (PCBNEW (5.1.5-0)) date 2022-08-30 11:13:50*
%MOMM*%
%LPD*%
G04 APERTURE LIST*
%ADD10C,0.100000*%
G04 APERTURE END LIST*
D10*
G36*
X186652100Y-117043400D02*
G01*
X185280100Y-117043400D01*
X185280100Y-111861400D01*
X186652100Y-111861400D01*
X186652100Y-117043400D01*
G37*
G36*
X184112100Y-117043400D02*
G01*
X182740100Y-117043400D01*
X182740100Y-111861400D01*
X184112100Y-111861400D01*
X184112100Y-117043400D01*
G37*
G36*
X181572100Y-117043400D02*
G01*
X180200100Y-117043400D01*
X180200100Y-111861400D01*
X181572100Y-111861400D01*
X181572100Y-117043400D01*
G37*
G36*
X179032100Y-117043400D02*
G01*
X177660100Y-117043400D01*
X177660100Y-111861400D01*
X179032100Y-111861400D01*
X179032100Y-117043400D01*
G37*
G36*
X176492100Y-117043400D02*
G01*
X175120100Y-117043400D01*
X175120100Y-111861400D01*
X176492100Y-111861400D01*
X176492100Y-117043400D01*
G37*
G36*
X173952100Y-117043400D02*
G01*
X172580100Y-117043400D01*
X172580100Y-111861400D01*
X173952100Y-111861400D01*
X173952100Y-117043400D01*
G37*
G36*
X171412100Y-117043400D02*
G01*
X170040100Y-117043400D01*
X170040100Y-111861400D01*
X171412100Y-111861400D01*
X171412100Y-117043400D01*
G37*
G36*
X168872100Y-117043400D02*
G01*
X167500100Y-117043400D01*
X167500100Y-111861400D01*
X168872100Y-111861400D01*
X168872100Y-117043400D01*
G37*
G36*
X166332100Y-117043400D02*
G01*
X164960100Y-117043400D01*
X164960100Y-111861400D01*
X166332100Y-111861400D01*
X166332100Y-117043400D01*
G37*
G36*
X163792100Y-117043400D02*
G01*
X162420100Y-117043400D01*
X162420100Y-111861400D01*
X163792100Y-111861400D01*
X163792100Y-117043400D01*
G37*
G36*
X161252100Y-117043400D02*
G01*
X159880100Y-117043400D01*
X159880100Y-111861400D01*
X161252100Y-111861400D01*
X161252100Y-117043400D01*
G37*
G36*
X158712100Y-117043400D02*
G01*
X157340100Y-117043400D01*
X157340100Y-111861400D01*
X158712100Y-111861400D01*
X158712100Y-117043400D01*
G37*
G36*
X156172100Y-117043400D02*
G01*
X154800100Y-117043400D01*
X154800100Y-111861400D01*
X156172100Y-111861400D01*
X156172100Y-117043400D01*
G37*
G36*
X153632100Y-117043400D02*
G01*
X152260100Y-117043400D01*
X152260100Y-111861400D01*
X153632100Y-111861400D01*
X153632100Y-117043400D01*
G37*
G36*
X151092100Y-117043400D02*
G01*
X149720100Y-117043400D01*
X149720100Y-111861400D01*
X151092100Y-111861400D01*
X151092100Y-117043400D01*
G37*
G36*
X148552100Y-117043400D02*
G01*
X147180100Y-117043400D01*
X147180100Y-111861400D01*
X148552100Y-111861400D01*
X148552100Y-117043400D01*
G37*
G36*
X146012100Y-117043400D02*
G01*
X144640100Y-117043400D01*
X144640100Y-111861400D01*
X146012100Y-111861400D01*
X146012100Y-117043400D01*
G37*
G36*
X143472100Y-117043400D02*
G01*
X142100100Y-117043400D01*
X142100100Y-111861400D01*
X143472100Y-111861400D01*
X143472100Y-117043400D01*
G37*
G36*
X140932100Y-117043400D02*
G01*
X139560100Y-117043400D01*
X139560100Y-111861400D01*
X140932100Y-111861400D01*
X140932100Y-117043400D01*
G37*
G36*
X138392100Y-117043400D02*
G01*
X137020100Y-117043400D01*
X137020100Y-111861400D01*
X138392100Y-111861400D01*
X138392100Y-117043400D01*
G37*
G36*
X135852100Y-117043400D02*
G01*
X134480100Y-117043400D01*
X134480100Y-111861400D01*
X135852100Y-111861400D01*
X135852100Y-117043400D01*
G37*
G36*
X133312100Y-117043400D02*
G01*
X131940100Y-117043400D01*
X131940100Y-111861400D01*
X133312100Y-111861400D01*
X133312100Y-117043400D01*
G37*
G36*
X132701512Y-90289927D02*
G01*
X132850812Y-90319624D01*
X133014784Y-90387544D01*
X133162354Y-90486147D01*
X133287853Y-90611646D01*
X133386456Y-90759216D01*
X133454376Y-90923188D01*
X133489000Y-91097259D01*
X133489000Y-91274741D01*
X133454376Y-91448812D01*
X133386456Y-91612784D01*
X133287853Y-91760354D01*
X133162354Y-91885853D01*
X133014784Y-91984456D01*
X132850812Y-92052376D01*
X132701512Y-92082073D01*
X132676742Y-92087000D01*
X132499258Y-92087000D01*
X132474488Y-92082073D01*
X132325188Y-92052376D01*
X132161216Y-91984456D01*
X132013646Y-91885853D01*
X131888147Y-91760354D01*
X131789544Y-91612784D01*
X131721624Y-91448812D01*
X131687000Y-91274741D01*
X131687000Y-91097259D01*
X131721624Y-90923188D01*
X131789544Y-90759216D01*
X131888147Y-90611646D01*
X132013646Y-90486147D01*
X132161216Y-90387544D01*
X132325188Y-90319624D01*
X132474488Y-90289927D01*
X132499258Y-90285000D01*
X132676742Y-90285000D01*
X132701512Y-90289927D01*
G37*
G36*
X135241512Y-90289927D02*
G01*
X135390812Y-90319624D01*
X135554784Y-90387544D01*
X135702354Y-90486147D01*
X135827853Y-90611646D01*
X135926456Y-90759216D01*
X135994376Y-90923188D01*
X136029000Y-91097259D01*
X136029000Y-91274741D01*
X135994376Y-91448812D01*
X135926456Y-91612784D01*
X135827853Y-91760354D01*
X135702354Y-91885853D01*
X135554784Y-91984456D01*
X135390812Y-92052376D01*
X135241512Y-92082073D01*
X135216742Y-92087000D01*
X135039258Y-92087000D01*
X135014488Y-92082073D01*
X134865188Y-92052376D01*
X134701216Y-91984456D01*
X134553646Y-91885853D01*
X134428147Y-91760354D01*
X134329544Y-91612784D01*
X134261624Y-91448812D01*
X134227000Y-91274741D01*
X134227000Y-91097259D01*
X134261624Y-90923188D01*
X134329544Y-90759216D01*
X134428147Y-90611646D01*
X134553646Y-90486147D01*
X134701216Y-90387544D01*
X134865188Y-90319624D01*
X135014488Y-90289927D01*
X135039258Y-90285000D01*
X135216742Y-90285000D01*
X135241512Y-90289927D01*
G37*
G36*
X137781512Y-90289927D02*
G01*
X137930812Y-90319624D01*
X138094784Y-90387544D01*
X138242354Y-90486147D01*
X138367853Y-90611646D01*
X138466456Y-90759216D01*
X138534376Y-90923188D01*
X138569000Y-91097259D01*
X138569000Y-91274741D01*
X138534376Y-91448812D01*
X138466456Y-91612784D01*
X138367853Y-91760354D01*
X138242354Y-91885853D01*
X138094784Y-91984456D01*
X137930812Y-92052376D01*
X137781512Y-92082073D01*
X137756742Y-92087000D01*
X137579258Y-92087000D01*
X137554488Y-92082073D01*
X137405188Y-92052376D01*
X137241216Y-91984456D01*
X137093646Y-91885853D01*
X136968147Y-91760354D01*
X136869544Y-91612784D01*
X136801624Y-91448812D01*
X136767000Y-91274741D01*
X136767000Y-91097259D01*
X136801624Y-90923188D01*
X136869544Y-90759216D01*
X136968147Y-90611646D01*
X137093646Y-90486147D01*
X137241216Y-90387544D01*
X137405188Y-90319624D01*
X137554488Y-90289927D01*
X137579258Y-90285000D01*
X137756742Y-90285000D01*
X137781512Y-90289927D01*
G37*
G36*
X140321512Y-90289927D02*
G01*
X140470812Y-90319624D01*
X140634784Y-90387544D01*
X140782354Y-90486147D01*
X140907853Y-90611646D01*
X141006456Y-90759216D01*
X141074376Y-90923188D01*
X141109000Y-91097259D01*
X141109000Y-91274741D01*
X141074376Y-91448812D01*
X141006456Y-91612784D01*
X140907853Y-91760354D01*
X140782354Y-91885853D01*
X140634784Y-91984456D01*
X140470812Y-92052376D01*
X140321512Y-92082073D01*
X140296742Y-92087000D01*
X140119258Y-92087000D01*
X140094488Y-92082073D01*
X139945188Y-92052376D01*
X139781216Y-91984456D01*
X139633646Y-91885853D01*
X139508147Y-91760354D01*
X139409544Y-91612784D01*
X139341624Y-91448812D01*
X139307000Y-91274741D01*
X139307000Y-91097259D01*
X139341624Y-90923188D01*
X139409544Y-90759216D01*
X139508147Y-90611646D01*
X139633646Y-90486147D01*
X139781216Y-90387544D01*
X139945188Y-90319624D01*
X140094488Y-90289927D01*
X140119258Y-90285000D01*
X140296742Y-90285000D01*
X140321512Y-90289927D01*
G37*
G36*
X142861512Y-90289927D02*
G01*
X143010812Y-90319624D01*
X143174784Y-90387544D01*
X143322354Y-90486147D01*
X143447853Y-90611646D01*
X143546456Y-90759216D01*
X143614376Y-90923188D01*
X143649000Y-91097259D01*
X143649000Y-91274741D01*
X143614376Y-91448812D01*
X143546456Y-91612784D01*
X143447853Y-91760354D01*
X143322354Y-91885853D01*
X143174784Y-91984456D01*
X143010812Y-92052376D01*
X142861512Y-92082073D01*
X142836742Y-92087000D01*
X142659258Y-92087000D01*
X142634488Y-92082073D01*
X142485188Y-92052376D01*
X142321216Y-91984456D01*
X142173646Y-91885853D01*
X142048147Y-91760354D01*
X141949544Y-91612784D01*
X141881624Y-91448812D01*
X141847000Y-91274741D01*
X141847000Y-91097259D01*
X141881624Y-90923188D01*
X141949544Y-90759216D01*
X142048147Y-90611646D01*
X142173646Y-90486147D01*
X142321216Y-90387544D01*
X142485188Y-90319624D01*
X142634488Y-90289927D01*
X142659258Y-90285000D01*
X142836742Y-90285000D01*
X142861512Y-90289927D01*
G37*
G36*
X145401512Y-90289927D02*
G01*
X145550812Y-90319624D01*
X145714784Y-90387544D01*
X145862354Y-90486147D01*
X145987853Y-90611646D01*
X146086456Y-90759216D01*
X146154376Y-90923188D01*
X146189000Y-91097259D01*
X146189000Y-91274741D01*
X146154376Y-91448812D01*
X146086456Y-91612784D01*
X145987853Y-91760354D01*
X145862354Y-91885853D01*
X145714784Y-91984456D01*
X145550812Y-92052376D01*
X145401512Y-92082073D01*
X145376742Y-92087000D01*
X145199258Y-92087000D01*
X145174488Y-92082073D01*
X145025188Y-92052376D01*
X144861216Y-91984456D01*
X144713646Y-91885853D01*
X144588147Y-91760354D01*
X144489544Y-91612784D01*
X144421624Y-91448812D01*
X144387000Y-91274741D01*
X144387000Y-91097259D01*
X144421624Y-90923188D01*
X144489544Y-90759216D01*
X144588147Y-90611646D01*
X144713646Y-90486147D01*
X144861216Y-90387544D01*
X145025188Y-90319624D01*
X145174488Y-90289927D01*
X145199258Y-90285000D01*
X145376742Y-90285000D01*
X145401512Y-90289927D01*
G37*
G36*
X147941512Y-90289927D02*
G01*
X148090812Y-90319624D01*
X148254784Y-90387544D01*
X148402354Y-90486147D01*
X148527853Y-90611646D01*
X148626456Y-90759216D01*
X148694376Y-90923188D01*
X148729000Y-91097259D01*
X148729000Y-91274741D01*
X148694376Y-91448812D01*
X148626456Y-91612784D01*
X148527853Y-91760354D01*
X148402354Y-91885853D01*
X148254784Y-91984456D01*
X148090812Y-92052376D01*
X147941512Y-92082073D01*
X147916742Y-92087000D01*
X147739258Y-92087000D01*
X147714488Y-92082073D01*
X147565188Y-92052376D01*
X147401216Y-91984456D01*
X147253646Y-91885853D01*
X147128147Y-91760354D01*
X147029544Y-91612784D01*
X146961624Y-91448812D01*
X146927000Y-91274741D01*
X146927000Y-91097259D01*
X146961624Y-90923188D01*
X147029544Y-90759216D01*
X147128147Y-90611646D01*
X147253646Y-90486147D01*
X147401216Y-90387544D01*
X147565188Y-90319624D01*
X147714488Y-90289927D01*
X147739258Y-90285000D01*
X147916742Y-90285000D01*
X147941512Y-90289927D01*
G37*
G36*
X150481512Y-90289927D02*
G01*
X150630812Y-90319624D01*
X150794784Y-90387544D01*
X150942354Y-90486147D01*
X151067853Y-90611646D01*
X151166456Y-90759216D01*
X151234376Y-90923188D01*
X151269000Y-91097259D01*
X151269000Y-91274741D01*
X151234376Y-91448812D01*
X151166456Y-91612784D01*
X151067853Y-91760354D01*
X150942354Y-91885853D01*
X150794784Y-91984456D01*
X150630812Y-92052376D01*
X150481512Y-92082073D01*
X150456742Y-92087000D01*
X150279258Y-92087000D01*
X150254488Y-92082073D01*
X150105188Y-92052376D01*
X149941216Y-91984456D01*
X149793646Y-91885853D01*
X149668147Y-91760354D01*
X149569544Y-91612784D01*
X149501624Y-91448812D01*
X149467000Y-91274741D01*
X149467000Y-91097259D01*
X149501624Y-90923188D01*
X149569544Y-90759216D01*
X149668147Y-90611646D01*
X149793646Y-90486147D01*
X149941216Y-90387544D01*
X150105188Y-90319624D01*
X150254488Y-90289927D01*
X150279258Y-90285000D01*
X150456742Y-90285000D01*
X150481512Y-90289927D01*
G37*
G36*
X153021512Y-90289927D02*
G01*
X153170812Y-90319624D01*
X153334784Y-90387544D01*
X153482354Y-90486147D01*
X153607853Y-90611646D01*
X153706456Y-90759216D01*
X153774376Y-90923188D01*
X153809000Y-91097259D01*
X153809000Y-91274741D01*
X153774376Y-91448812D01*
X153706456Y-91612784D01*
X153607853Y-91760354D01*
X153482354Y-91885853D01*
X153334784Y-91984456D01*
X153170812Y-92052376D01*
X153021512Y-92082073D01*
X152996742Y-92087000D01*
X152819258Y-92087000D01*
X152794488Y-92082073D01*
X152645188Y-92052376D01*
X152481216Y-91984456D01*
X152333646Y-91885853D01*
X152208147Y-91760354D01*
X152109544Y-91612784D01*
X152041624Y-91448812D01*
X152007000Y-91274741D01*
X152007000Y-91097259D01*
X152041624Y-90923188D01*
X152109544Y-90759216D01*
X152208147Y-90611646D01*
X152333646Y-90486147D01*
X152481216Y-90387544D01*
X152645188Y-90319624D01*
X152794488Y-90289927D01*
X152819258Y-90285000D01*
X152996742Y-90285000D01*
X153021512Y-90289927D01*
G37*
G36*
X155561512Y-90289927D02*
G01*
X155710812Y-90319624D01*
X155874784Y-90387544D01*
X156022354Y-90486147D01*
X156147853Y-90611646D01*
X156246456Y-90759216D01*
X156314376Y-90923188D01*
X156349000Y-91097259D01*
X156349000Y-91274741D01*
X156314376Y-91448812D01*
X156246456Y-91612784D01*
X156147853Y-91760354D01*
X156022354Y-91885853D01*
X155874784Y-91984456D01*
X155710812Y-92052376D01*
X155561512Y-92082073D01*
X155536742Y-92087000D01*
X155359258Y-92087000D01*
X155334488Y-92082073D01*
X155185188Y-92052376D01*
X155021216Y-91984456D01*
X154873646Y-91885853D01*
X154748147Y-91760354D01*
X154649544Y-91612784D01*
X154581624Y-91448812D01*
X154547000Y-91274741D01*
X154547000Y-91097259D01*
X154581624Y-90923188D01*
X154649544Y-90759216D01*
X154748147Y-90611646D01*
X154873646Y-90486147D01*
X155021216Y-90387544D01*
X155185188Y-90319624D01*
X155334488Y-90289927D01*
X155359258Y-90285000D01*
X155536742Y-90285000D01*
X155561512Y-90289927D01*
G37*
G36*
X158101512Y-90289927D02*
G01*
X158250812Y-90319624D01*
X158414784Y-90387544D01*
X158562354Y-90486147D01*
X158687853Y-90611646D01*
X158786456Y-90759216D01*
X158854376Y-90923188D01*
X158889000Y-91097259D01*
X158889000Y-91274741D01*
X158854376Y-91448812D01*
X158786456Y-91612784D01*
X158687853Y-91760354D01*
X158562354Y-91885853D01*
X158414784Y-91984456D01*
X158250812Y-92052376D01*
X158101512Y-92082073D01*
X158076742Y-92087000D01*
X157899258Y-92087000D01*
X157874488Y-92082073D01*
X157725188Y-92052376D01*
X157561216Y-91984456D01*
X157413646Y-91885853D01*
X157288147Y-91760354D01*
X157189544Y-91612784D01*
X157121624Y-91448812D01*
X157087000Y-91274741D01*
X157087000Y-91097259D01*
X157121624Y-90923188D01*
X157189544Y-90759216D01*
X157288147Y-90611646D01*
X157413646Y-90486147D01*
X157561216Y-90387544D01*
X157725188Y-90319624D01*
X157874488Y-90289927D01*
X157899258Y-90285000D01*
X158076742Y-90285000D01*
X158101512Y-90289927D01*
G37*
G36*
X160641512Y-90289927D02*
G01*
X160790812Y-90319624D01*
X160954784Y-90387544D01*
X161102354Y-90486147D01*
X161227853Y-90611646D01*
X161326456Y-90759216D01*
X161394376Y-90923188D01*
X161429000Y-91097259D01*
X161429000Y-91274741D01*
X161394376Y-91448812D01*
X161326456Y-91612784D01*
X161227853Y-91760354D01*
X161102354Y-91885853D01*
X160954784Y-91984456D01*
X160790812Y-92052376D01*
X160641512Y-92082073D01*
X160616742Y-92087000D01*
X160439258Y-92087000D01*
X160414488Y-92082073D01*
X160265188Y-92052376D01*
X160101216Y-91984456D01*
X159953646Y-91885853D01*
X159828147Y-91760354D01*
X159729544Y-91612784D01*
X159661624Y-91448812D01*
X159627000Y-91274741D01*
X159627000Y-91097259D01*
X159661624Y-90923188D01*
X159729544Y-90759216D01*
X159828147Y-90611646D01*
X159953646Y-90486147D01*
X160101216Y-90387544D01*
X160265188Y-90319624D01*
X160414488Y-90289927D01*
X160439258Y-90285000D01*
X160616742Y-90285000D01*
X160641512Y-90289927D01*
G37*
G36*
X163181512Y-90289927D02*
G01*
X163330812Y-90319624D01*
X163494784Y-90387544D01*
X163642354Y-90486147D01*
X163767853Y-90611646D01*
X163866456Y-90759216D01*
X163934376Y-90923188D01*
X163969000Y-91097259D01*
X163969000Y-91274741D01*
X163934376Y-91448812D01*
X163866456Y-91612784D01*
X163767853Y-91760354D01*
X163642354Y-91885853D01*
X163494784Y-91984456D01*
X163330812Y-92052376D01*
X163181512Y-92082073D01*
X163156742Y-92087000D01*
X162979258Y-92087000D01*
X162954488Y-92082073D01*
X162805188Y-92052376D01*
X162641216Y-91984456D01*
X162493646Y-91885853D01*
X162368147Y-91760354D01*
X162269544Y-91612784D01*
X162201624Y-91448812D01*
X162167000Y-91274741D01*
X162167000Y-91097259D01*
X162201624Y-90923188D01*
X162269544Y-90759216D01*
X162368147Y-90611646D01*
X162493646Y-90486147D01*
X162641216Y-90387544D01*
X162805188Y-90319624D01*
X162954488Y-90289927D01*
X162979258Y-90285000D01*
X163156742Y-90285000D01*
X163181512Y-90289927D01*
G37*
G36*
X165721512Y-90289927D02*
G01*
X165870812Y-90319624D01*
X166034784Y-90387544D01*
X166182354Y-90486147D01*
X166307853Y-90611646D01*
X166406456Y-90759216D01*
X166474376Y-90923188D01*
X166509000Y-91097259D01*
X166509000Y-91274741D01*
X166474376Y-91448812D01*
X166406456Y-91612784D01*
X166307853Y-91760354D01*
X166182354Y-91885853D01*
X166034784Y-91984456D01*
X165870812Y-92052376D01*
X165721512Y-92082073D01*
X165696742Y-92087000D01*
X165519258Y-92087000D01*
X165494488Y-92082073D01*
X165345188Y-92052376D01*
X165181216Y-91984456D01*
X165033646Y-91885853D01*
X164908147Y-91760354D01*
X164809544Y-91612784D01*
X164741624Y-91448812D01*
X164707000Y-91274741D01*
X164707000Y-91097259D01*
X164741624Y-90923188D01*
X164809544Y-90759216D01*
X164908147Y-90611646D01*
X165033646Y-90486147D01*
X165181216Y-90387544D01*
X165345188Y-90319624D01*
X165494488Y-90289927D01*
X165519258Y-90285000D01*
X165696742Y-90285000D01*
X165721512Y-90289927D01*
G37*
G36*
X168261512Y-90289927D02*
G01*
X168410812Y-90319624D01*
X168574784Y-90387544D01*
X168722354Y-90486147D01*
X168847853Y-90611646D01*
X168946456Y-90759216D01*
X169014376Y-90923188D01*
X169049000Y-91097259D01*
X169049000Y-91274741D01*
X169014376Y-91448812D01*
X168946456Y-91612784D01*
X168847853Y-91760354D01*
X168722354Y-91885853D01*
X168574784Y-91984456D01*
X168410812Y-92052376D01*
X168261512Y-92082073D01*
X168236742Y-92087000D01*
X168059258Y-92087000D01*
X168034488Y-92082073D01*
X167885188Y-92052376D01*
X167721216Y-91984456D01*
X167573646Y-91885853D01*
X167448147Y-91760354D01*
X167349544Y-91612784D01*
X167281624Y-91448812D01*
X167247000Y-91274741D01*
X167247000Y-91097259D01*
X167281624Y-90923188D01*
X167349544Y-90759216D01*
X167448147Y-90611646D01*
X167573646Y-90486147D01*
X167721216Y-90387544D01*
X167885188Y-90319624D01*
X168034488Y-90289927D01*
X168059258Y-90285000D01*
X168236742Y-90285000D01*
X168261512Y-90289927D01*
G37*
G36*
X170801512Y-90289927D02*
G01*
X170950812Y-90319624D01*
X171114784Y-90387544D01*
X171262354Y-90486147D01*
X171387853Y-90611646D01*
X171486456Y-90759216D01*
X171554376Y-90923188D01*
X171589000Y-91097259D01*
X171589000Y-91274741D01*
X171554376Y-91448812D01*
X171486456Y-91612784D01*
X171387853Y-91760354D01*
X171262354Y-91885853D01*
X171114784Y-91984456D01*
X170950812Y-92052376D01*
X170801512Y-92082073D01*
X170776742Y-92087000D01*
X170599258Y-92087000D01*
X170574488Y-92082073D01*
X170425188Y-92052376D01*
X170261216Y-91984456D01*
X170113646Y-91885853D01*
X169988147Y-91760354D01*
X169889544Y-91612784D01*
X169821624Y-91448812D01*
X169787000Y-91274741D01*
X169787000Y-91097259D01*
X169821624Y-90923188D01*
X169889544Y-90759216D01*
X169988147Y-90611646D01*
X170113646Y-90486147D01*
X170261216Y-90387544D01*
X170425188Y-90319624D01*
X170574488Y-90289927D01*
X170599258Y-90285000D01*
X170776742Y-90285000D01*
X170801512Y-90289927D01*
G37*
G36*
X173341512Y-90289927D02*
G01*
X173490812Y-90319624D01*
X173654784Y-90387544D01*
X173802354Y-90486147D01*
X173927853Y-90611646D01*
X174026456Y-90759216D01*
X174094376Y-90923188D01*
X174129000Y-91097259D01*
X174129000Y-91274741D01*
X174094376Y-91448812D01*
X174026456Y-91612784D01*
X173927853Y-91760354D01*
X173802354Y-91885853D01*
X173654784Y-91984456D01*
X173490812Y-92052376D01*
X173341512Y-92082073D01*
X173316742Y-92087000D01*
X173139258Y-92087000D01*
X173114488Y-92082073D01*
X172965188Y-92052376D01*
X172801216Y-91984456D01*
X172653646Y-91885853D01*
X172528147Y-91760354D01*
X172429544Y-91612784D01*
X172361624Y-91448812D01*
X172327000Y-91274741D01*
X172327000Y-91097259D01*
X172361624Y-90923188D01*
X172429544Y-90759216D01*
X172528147Y-90611646D01*
X172653646Y-90486147D01*
X172801216Y-90387544D01*
X172965188Y-90319624D01*
X173114488Y-90289927D01*
X173139258Y-90285000D01*
X173316742Y-90285000D01*
X173341512Y-90289927D01*
G37*
G36*
X175881512Y-90289927D02*
G01*
X176030812Y-90319624D01*
X176194784Y-90387544D01*
X176342354Y-90486147D01*
X176467853Y-90611646D01*
X176566456Y-90759216D01*
X176634376Y-90923188D01*
X176669000Y-91097259D01*
X176669000Y-91274741D01*
X176634376Y-91448812D01*
X176566456Y-91612784D01*
X176467853Y-91760354D01*
X176342354Y-91885853D01*
X176194784Y-91984456D01*
X176030812Y-92052376D01*
X175881512Y-92082073D01*
X175856742Y-92087000D01*
X175679258Y-92087000D01*
X175654488Y-92082073D01*
X175505188Y-92052376D01*
X175341216Y-91984456D01*
X175193646Y-91885853D01*
X175068147Y-91760354D01*
X174969544Y-91612784D01*
X174901624Y-91448812D01*
X174867000Y-91274741D01*
X174867000Y-91097259D01*
X174901624Y-90923188D01*
X174969544Y-90759216D01*
X175068147Y-90611646D01*
X175193646Y-90486147D01*
X175341216Y-90387544D01*
X175505188Y-90319624D01*
X175654488Y-90289927D01*
X175679258Y-90285000D01*
X175856742Y-90285000D01*
X175881512Y-90289927D01*
G37*
G36*
X178421512Y-90289927D02*
G01*
X178570812Y-90319624D01*
X178734784Y-90387544D01*
X178882354Y-90486147D01*
X179007853Y-90611646D01*
X179106456Y-90759216D01*
X179174376Y-90923188D01*
X179209000Y-91097259D01*
X179209000Y-91274741D01*
X179174376Y-91448812D01*
X179106456Y-91612784D01*
X179007853Y-91760354D01*
X178882354Y-91885853D01*
X178734784Y-91984456D01*
X178570812Y-92052376D01*
X178421512Y-92082073D01*
X178396742Y-92087000D01*
X178219258Y-92087000D01*
X178194488Y-92082073D01*
X178045188Y-92052376D01*
X177881216Y-91984456D01*
X177733646Y-91885853D01*
X177608147Y-91760354D01*
X177509544Y-91612784D01*
X177441624Y-91448812D01*
X177407000Y-91274741D01*
X177407000Y-91097259D01*
X177441624Y-90923188D01*
X177509544Y-90759216D01*
X177608147Y-90611646D01*
X177733646Y-90486147D01*
X177881216Y-90387544D01*
X178045188Y-90319624D01*
X178194488Y-90289927D01*
X178219258Y-90285000D01*
X178396742Y-90285000D01*
X178421512Y-90289927D01*
G37*
G36*
X180961512Y-90289927D02*
G01*
X181110812Y-90319624D01*
X181274784Y-90387544D01*
X181422354Y-90486147D01*
X181547853Y-90611646D01*
X181646456Y-90759216D01*
X181714376Y-90923188D01*
X181749000Y-91097259D01*
X181749000Y-91274741D01*
X181714376Y-91448812D01*
X181646456Y-91612784D01*
X181547853Y-91760354D01*
X181422354Y-91885853D01*
X181274784Y-91984456D01*
X181110812Y-92052376D01*
X180961512Y-92082073D01*
X180936742Y-92087000D01*
X180759258Y-92087000D01*
X180734488Y-92082073D01*
X180585188Y-92052376D01*
X180421216Y-91984456D01*
X180273646Y-91885853D01*
X180148147Y-91760354D01*
X180049544Y-91612784D01*
X179981624Y-91448812D01*
X179947000Y-91274741D01*
X179947000Y-91097259D01*
X179981624Y-90923188D01*
X180049544Y-90759216D01*
X180148147Y-90611646D01*
X180273646Y-90486147D01*
X180421216Y-90387544D01*
X180585188Y-90319624D01*
X180734488Y-90289927D01*
X180759258Y-90285000D01*
X180936742Y-90285000D01*
X180961512Y-90289927D01*
G37*
G36*
X183501512Y-90289927D02*
G01*
X183650812Y-90319624D01*
X183814784Y-90387544D01*
X183962354Y-90486147D01*
X184087853Y-90611646D01*
X184186456Y-90759216D01*
X184254376Y-90923188D01*
X184289000Y-91097259D01*
X184289000Y-91274741D01*
X184254376Y-91448812D01*
X184186456Y-91612784D01*
X184087853Y-91760354D01*
X183962354Y-91885853D01*
X183814784Y-91984456D01*
X183650812Y-92052376D01*
X183501512Y-92082073D01*
X183476742Y-92087000D01*
X183299258Y-92087000D01*
X183274488Y-92082073D01*
X183125188Y-92052376D01*
X182961216Y-91984456D01*
X182813646Y-91885853D01*
X182688147Y-91760354D01*
X182589544Y-91612784D01*
X182521624Y-91448812D01*
X182487000Y-91274741D01*
X182487000Y-91097259D01*
X182521624Y-90923188D01*
X182589544Y-90759216D01*
X182688147Y-90611646D01*
X182813646Y-90486147D01*
X182961216Y-90387544D01*
X183125188Y-90319624D01*
X183274488Y-90289927D01*
X183299258Y-90285000D01*
X183476742Y-90285000D01*
X183501512Y-90289927D01*
G37*
G36*
X186041512Y-90289927D02*
G01*
X186190812Y-90319624D01*
X186354784Y-90387544D01*
X186502354Y-90486147D01*
X186627853Y-90611646D01*
X186726456Y-90759216D01*
X186794376Y-90923188D01*
X186829000Y-91097259D01*
X186829000Y-91274741D01*
X186794376Y-91448812D01*
X186726456Y-91612784D01*
X186627853Y-91760354D01*
X186502354Y-91885853D01*
X186354784Y-91984456D01*
X186190812Y-92052376D01*
X186041512Y-92082073D01*
X186016742Y-92087000D01*
X185839258Y-92087000D01*
X185814488Y-92082073D01*
X185665188Y-92052376D01*
X185501216Y-91984456D01*
X185353646Y-91885853D01*
X185228147Y-91760354D01*
X185129544Y-91612784D01*
X185061624Y-91448812D01*
X185027000Y-91274741D01*
X185027000Y-91097259D01*
X185061624Y-90923188D01*
X185129544Y-90759216D01*
X185228147Y-90611646D01*
X185353646Y-90486147D01*
X185501216Y-90387544D01*
X185665188Y-90319624D01*
X185814488Y-90289927D01*
X185839258Y-90285000D01*
X186016742Y-90285000D01*
X186041512Y-90289927D01*
G37*
G36*
X133489000Y-89547000D02*
G01*
X131687000Y-89547000D01*
X131687000Y-87745000D01*
X133489000Y-87745000D01*
X133489000Y-89547000D01*
G37*
G36*
X160641512Y-87749927D02*
G01*
X160790812Y-87779624D01*
X160954784Y-87847544D01*
X161102354Y-87946147D01*
X161227853Y-88071646D01*
X161326456Y-88219216D01*
X161394376Y-88383188D01*
X161429000Y-88557259D01*
X161429000Y-88734741D01*
X161394376Y-88908812D01*
X161326456Y-89072784D01*
X161227853Y-89220354D01*
X161102354Y-89345853D01*
X160954784Y-89444456D01*
X160790812Y-89512376D01*
X160641512Y-89542073D01*
X160616742Y-89547000D01*
X160439258Y-89547000D01*
X160414488Y-89542073D01*
X160265188Y-89512376D01*
X160101216Y-89444456D01*
X159953646Y-89345853D01*
X159828147Y-89220354D01*
X159729544Y-89072784D01*
X159661624Y-88908812D01*
X159627000Y-88734741D01*
X159627000Y-88557259D01*
X159661624Y-88383188D01*
X159729544Y-88219216D01*
X159828147Y-88071646D01*
X159953646Y-87946147D01*
X160101216Y-87847544D01*
X160265188Y-87779624D01*
X160414488Y-87749927D01*
X160439258Y-87745000D01*
X160616742Y-87745000D01*
X160641512Y-87749927D01*
G37*
G36*
X186041512Y-87749927D02*
G01*
X186190812Y-87779624D01*
X186354784Y-87847544D01*
X186502354Y-87946147D01*
X186627853Y-88071646D01*
X186726456Y-88219216D01*
X186794376Y-88383188D01*
X186829000Y-88557259D01*
X186829000Y-88734741D01*
X186794376Y-88908812D01*
X186726456Y-89072784D01*
X186627853Y-89220354D01*
X186502354Y-89345853D01*
X186354784Y-89444456D01*
X186190812Y-89512376D01*
X186041512Y-89542073D01*
X186016742Y-89547000D01*
X185839258Y-89547000D01*
X185814488Y-89542073D01*
X185665188Y-89512376D01*
X185501216Y-89444456D01*
X185353646Y-89345853D01*
X185228147Y-89220354D01*
X185129544Y-89072784D01*
X185061624Y-88908812D01*
X185027000Y-88734741D01*
X185027000Y-88557259D01*
X185061624Y-88383188D01*
X185129544Y-88219216D01*
X185228147Y-88071646D01*
X185353646Y-87946147D01*
X185501216Y-87847544D01*
X185665188Y-87779624D01*
X185814488Y-87749927D01*
X185839258Y-87745000D01*
X186016742Y-87745000D01*
X186041512Y-87749927D01*
G37*
G36*
X135241512Y-87749927D02*
G01*
X135390812Y-87779624D01*
X135554784Y-87847544D01*
X135702354Y-87946147D01*
X135827853Y-88071646D01*
X135926456Y-88219216D01*
X135994376Y-88383188D01*
X136029000Y-88557259D01*
X136029000Y-88734741D01*
X135994376Y-88908812D01*
X135926456Y-89072784D01*
X135827853Y-89220354D01*
X135702354Y-89345853D01*
X135554784Y-89444456D01*
X135390812Y-89512376D01*
X135241512Y-89542073D01*
X135216742Y-89547000D01*
X135039258Y-89547000D01*
X135014488Y-89542073D01*
X134865188Y-89512376D01*
X134701216Y-89444456D01*
X134553646Y-89345853D01*
X134428147Y-89220354D01*
X134329544Y-89072784D01*
X134261624Y-88908812D01*
X134227000Y-88734741D01*
X134227000Y-88557259D01*
X134261624Y-88383188D01*
X134329544Y-88219216D01*
X134428147Y-88071646D01*
X134553646Y-87946147D01*
X134701216Y-87847544D01*
X134865188Y-87779624D01*
X135014488Y-87749927D01*
X135039258Y-87745000D01*
X135216742Y-87745000D01*
X135241512Y-87749927D01*
G37*
G36*
X183501512Y-87749927D02*
G01*
X183650812Y-87779624D01*
X183814784Y-87847544D01*
X183962354Y-87946147D01*
X184087853Y-88071646D01*
X184186456Y-88219216D01*
X184254376Y-88383188D01*
X184289000Y-88557259D01*
X184289000Y-88734741D01*
X184254376Y-88908812D01*
X184186456Y-89072784D01*
X184087853Y-89220354D01*
X183962354Y-89345853D01*
X183814784Y-89444456D01*
X183650812Y-89512376D01*
X183501512Y-89542073D01*
X183476742Y-89547000D01*
X183299258Y-89547000D01*
X183274488Y-89542073D01*
X183125188Y-89512376D01*
X182961216Y-89444456D01*
X182813646Y-89345853D01*
X182688147Y-89220354D01*
X182589544Y-89072784D01*
X182521624Y-88908812D01*
X182487000Y-88734741D01*
X182487000Y-88557259D01*
X182521624Y-88383188D01*
X182589544Y-88219216D01*
X182688147Y-88071646D01*
X182813646Y-87946147D01*
X182961216Y-87847544D01*
X183125188Y-87779624D01*
X183274488Y-87749927D01*
X183299258Y-87745000D01*
X183476742Y-87745000D01*
X183501512Y-87749927D01*
G37*
G36*
X137781512Y-87749927D02*
G01*
X137930812Y-87779624D01*
X138094784Y-87847544D01*
X138242354Y-87946147D01*
X138367853Y-88071646D01*
X138466456Y-88219216D01*
X138534376Y-88383188D01*
X138569000Y-88557259D01*
X138569000Y-88734741D01*
X138534376Y-88908812D01*
X138466456Y-89072784D01*
X138367853Y-89220354D01*
X138242354Y-89345853D01*
X138094784Y-89444456D01*
X137930812Y-89512376D01*
X137781512Y-89542073D01*
X137756742Y-89547000D01*
X137579258Y-89547000D01*
X137554488Y-89542073D01*
X137405188Y-89512376D01*
X137241216Y-89444456D01*
X137093646Y-89345853D01*
X136968147Y-89220354D01*
X136869544Y-89072784D01*
X136801624Y-88908812D01*
X136767000Y-88734741D01*
X136767000Y-88557259D01*
X136801624Y-88383188D01*
X136869544Y-88219216D01*
X136968147Y-88071646D01*
X137093646Y-87946147D01*
X137241216Y-87847544D01*
X137405188Y-87779624D01*
X137554488Y-87749927D01*
X137579258Y-87745000D01*
X137756742Y-87745000D01*
X137781512Y-87749927D01*
G37*
G36*
X180961512Y-87749927D02*
G01*
X181110812Y-87779624D01*
X181274784Y-87847544D01*
X181422354Y-87946147D01*
X181547853Y-88071646D01*
X181646456Y-88219216D01*
X181714376Y-88383188D01*
X181749000Y-88557259D01*
X181749000Y-88734741D01*
X181714376Y-88908812D01*
X181646456Y-89072784D01*
X181547853Y-89220354D01*
X181422354Y-89345853D01*
X181274784Y-89444456D01*
X181110812Y-89512376D01*
X180961512Y-89542073D01*
X180936742Y-89547000D01*
X180759258Y-89547000D01*
X180734488Y-89542073D01*
X180585188Y-89512376D01*
X180421216Y-89444456D01*
X180273646Y-89345853D01*
X180148147Y-89220354D01*
X180049544Y-89072784D01*
X179981624Y-88908812D01*
X179947000Y-88734741D01*
X179947000Y-88557259D01*
X179981624Y-88383188D01*
X180049544Y-88219216D01*
X180148147Y-88071646D01*
X180273646Y-87946147D01*
X180421216Y-87847544D01*
X180585188Y-87779624D01*
X180734488Y-87749927D01*
X180759258Y-87745000D01*
X180936742Y-87745000D01*
X180961512Y-87749927D01*
G37*
G36*
X140321512Y-87749927D02*
G01*
X140470812Y-87779624D01*
X140634784Y-87847544D01*
X140782354Y-87946147D01*
X140907853Y-88071646D01*
X141006456Y-88219216D01*
X141074376Y-88383188D01*
X141109000Y-88557259D01*
X141109000Y-88734741D01*
X141074376Y-88908812D01*
X141006456Y-89072784D01*
X140907853Y-89220354D01*
X140782354Y-89345853D01*
X140634784Y-89444456D01*
X140470812Y-89512376D01*
X140321512Y-89542073D01*
X140296742Y-89547000D01*
X140119258Y-89547000D01*
X140094488Y-89542073D01*
X139945188Y-89512376D01*
X139781216Y-89444456D01*
X139633646Y-89345853D01*
X139508147Y-89220354D01*
X139409544Y-89072784D01*
X139341624Y-88908812D01*
X139307000Y-88734741D01*
X139307000Y-88557259D01*
X139341624Y-88383188D01*
X139409544Y-88219216D01*
X139508147Y-88071646D01*
X139633646Y-87946147D01*
X139781216Y-87847544D01*
X139945188Y-87779624D01*
X140094488Y-87749927D01*
X140119258Y-87745000D01*
X140296742Y-87745000D01*
X140321512Y-87749927D01*
G37*
G36*
X178421512Y-87749927D02*
G01*
X178570812Y-87779624D01*
X178734784Y-87847544D01*
X178882354Y-87946147D01*
X179007853Y-88071646D01*
X179106456Y-88219216D01*
X179174376Y-88383188D01*
X179209000Y-88557259D01*
X179209000Y-88734741D01*
X179174376Y-88908812D01*
X179106456Y-89072784D01*
X179007853Y-89220354D01*
X178882354Y-89345853D01*
X178734784Y-89444456D01*
X178570812Y-89512376D01*
X178421512Y-89542073D01*
X178396742Y-89547000D01*
X178219258Y-89547000D01*
X178194488Y-89542073D01*
X178045188Y-89512376D01*
X177881216Y-89444456D01*
X177733646Y-89345853D01*
X177608147Y-89220354D01*
X177509544Y-89072784D01*
X177441624Y-88908812D01*
X177407000Y-88734741D01*
X177407000Y-88557259D01*
X177441624Y-88383188D01*
X177509544Y-88219216D01*
X177608147Y-88071646D01*
X177733646Y-87946147D01*
X177881216Y-87847544D01*
X178045188Y-87779624D01*
X178194488Y-87749927D01*
X178219258Y-87745000D01*
X178396742Y-87745000D01*
X178421512Y-87749927D01*
G37*
G36*
X142861512Y-87749927D02*
G01*
X143010812Y-87779624D01*
X143174784Y-87847544D01*
X143322354Y-87946147D01*
X143447853Y-88071646D01*
X143546456Y-88219216D01*
X143614376Y-88383188D01*
X143649000Y-88557259D01*
X143649000Y-88734741D01*
X143614376Y-88908812D01*
X143546456Y-89072784D01*
X143447853Y-89220354D01*
X143322354Y-89345853D01*
X143174784Y-89444456D01*
X143010812Y-89512376D01*
X142861512Y-89542073D01*
X142836742Y-89547000D01*
X142659258Y-89547000D01*
X142634488Y-89542073D01*
X142485188Y-89512376D01*
X142321216Y-89444456D01*
X142173646Y-89345853D01*
X142048147Y-89220354D01*
X141949544Y-89072784D01*
X141881624Y-88908812D01*
X141847000Y-88734741D01*
X141847000Y-88557259D01*
X141881624Y-88383188D01*
X141949544Y-88219216D01*
X142048147Y-88071646D01*
X142173646Y-87946147D01*
X142321216Y-87847544D01*
X142485188Y-87779624D01*
X142634488Y-87749927D01*
X142659258Y-87745000D01*
X142836742Y-87745000D01*
X142861512Y-87749927D01*
G37*
G36*
X175881512Y-87749927D02*
G01*
X176030812Y-87779624D01*
X176194784Y-87847544D01*
X176342354Y-87946147D01*
X176467853Y-88071646D01*
X176566456Y-88219216D01*
X176634376Y-88383188D01*
X176669000Y-88557259D01*
X176669000Y-88734741D01*
X176634376Y-88908812D01*
X176566456Y-89072784D01*
X176467853Y-89220354D01*
X176342354Y-89345853D01*
X176194784Y-89444456D01*
X176030812Y-89512376D01*
X175881512Y-89542073D01*
X175856742Y-89547000D01*
X175679258Y-89547000D01*
X175654488Y-89542073D01*
X175505188Y-89512376D01*
X175341216Y-89444456D01*
X175193646Y-89345853D01*
X175068147Y-89220354D01*
X174969544Y-89072784D01*
X174901624Y-88908812D01*
X174867000Y-88734741D01*
X174867000Y-88557259D01*
X174901624Y-88383188D01*
X174969544Y-88219216D01*
X175068147Y-88071646D01*
X175193646Y-87946147D01*
X175341216Y-87847544D01*
X175505188Y-87779624D01*
X175654488Y-87749927D01*
X175679258Y-87745000D01*
X175856742Y-87745000D01*
X175881512Y-87749927D01*
G37*
G36*
X145401512Y-87749927D02*
G01*
X145550812Y-87779624D01*
X145714784Y-87847544D01*
X145862354Y-87946147D01*
X145987853Y-88071646D01*
X146086456Y-88219216D01*
X146154376Y-88383188D01*
X146189000Y-88557259D01*
X146189000Y-88734741D01*
X146154376Y-88908812D01*
X146086456Y-89072784D01*
X145987853Y-89220354D01*
X145862354Y-89345853D01*
X145714784Y-89444456D01*
X145550812Y-89512376D01*
X145401512Y-89542073D01*
X145376742Y-89547000D01*
X145199258Y-89547000D01*
X145174488Y-89542073D01*
X145025188Y-89512376D01*
X144861216Y-89444456D01*
X144713646Y-89345853D01*
X144588147Y-89220354D01*
X144489544Y-89072784D01*
X144421624Y-88908812D01*
X144387000Y-88734741D01*
X144387000Y-88557259D01*
X144421624Y-88383188D01*
X144489544Y-88219216D01*
X144588147Y-88071646D01*
X144713646Y-87946147D01*
X144861216Y-87847544D01*
X145025188Y-87779624D01*
X145174488Y-87749927D01*
X145199258Y-87745000D01*
X145376742Y-87745000D01*
X145401512Y-87749927D01*
G37*
G36*
X173341512Y-87749927D02*
G01*
X173490812Y-87779624D01*
X173654784Y-87847544D01*
X173802354Y-87946147D01*
X173927853Y-88071646D01*
X174026456Y-88219216D01*
X174094376Y-88383188D01*
X174129000Y-88557259D01*
X174129000Y-88734741D01*
X174094376Y-88908812D01*
X174026456Y-89072784D01*
X173927853Y-89220354D01*
X173802354Y-89345853D01*
X173654784Y-89444456D01*
X173490812Y-89512376D01*
X173341512Y-89542073D01*
X173316742Y-89547000D01*
X173139258Y-89547000D01*
X173114488Y-89542073D01*
X172965188Y-89512376D01*
X172801216Y-89444456D01*
X172653646Y-89345853D01*
X172528147Y-89220354D01*
X172429544Y-89072784D01*
X172361624Y-88908812D01*
X172327000Y-88734741D01*
X172327000Y-88557259D01*
X172361624Y-88383188D01*
X172429544Y-88219216D01*
X172528147Y-88071646D01*
X172653646Y-87946147D01*
X172801216Y-87847544D01*
X172965188Y-87779624D01*
X173114488Y-87749927D01*
X173139258Y-87745000D01*
X173316742Y-87745000D01*
X173341512Y-87749927D01*
G37*
G36*
X147941512Y-87749927D02*
G01*
X148090812Y-87779624D01*
X148254784Y-87847544D01*
X148402354Y-87946147D01*
X148527853Y-88071646D01*
X148626456Y-88219216D01*
X148694376Y-88383188D01*
X148729000Y-88557259D01*
X148729000Y-88734741D01*
X148694376Y-88908812D01*
X148626456Y-89072784D01*
X148527853Y-89220354D01*
X148402354Y-89345853D01*
X148254784Y-89444456D01*
X148090812Y-89512376D01*
X147941512Y-89542073D01*
X147916742Y-89547000D01*
X147739258Y-89547000D01*
X147714488Y-89542073D01*
X147565188Y-89512376D01*
X147401216Y-89444456D01*
X147253646Y-89345853D01*
X147128147Y-89220354D01*
X147029544Y-89072784D01*
X146961624Y-88908812D01*
X146927000Y-88734741D01*
X146927000Y-88557259D01*
X146961624Y-88383188D01*
X147029544Y-88219216D01*
X147128147Y-88071646D01*
X147253646Y-87946147D01*
X147401216Y-87847544D01*
X147565188Y-87779624D01*
X147714488Y-87749927D01*
X147739258Y-87745000D01*
X147916742Y-87745000D01*
X147941512Y-87749927D01*
G37*
G36*
X170801512Y-87749927D02*
G01*
X170950812Y-87779624D01*
X171114784Y-87847544D01*
X171262354Y-87946147D01*
X171387853Y-88071646D01*
X171486456Y-88219216D01*
X171554376Y-88383188D01*
X171589000Y-88557259D01*
X171589000Y-88734741D01*
X171554376Y-88908812D01*
X171486456Y-89072784D01*
X171387853Y-89220354D01*
X171262354Y-89345853D01*
X171114784Y-89444456D01*
X170950812Y-89512376D01*
X170801512Y-89542073D01*
X170776742Y-89547000D01*
X170599258Y-89547000D01*
X170574488Y-89542073D01*
X170425188Y-89512376D01*
X170261216Y-89444456D01*
X170113646Y-89345853D01*
X169988147Y-89220354D01*
X169889544Y-89072784D01*
X169821624Y-88908812D01*
X169787000Y-88734741D01*
X169787000Y-88557259D01*
X169821624Y-88383188D01*
X169889544Y-88219216D01*
X169988147Y-88071646D01*
X170113646Y-87946147D01*
X170261216Y-87847544D01*
X170425188Y-87779624D01*
X170574488Y-87749927D01*
X170599258Y-87745000D01*
X170776742Y-87745000D01*
X170801512Y-87749927D01*
G37*
G36*
X150481512Y-87749927D02*
G01*
X150630812Y-87779624D01*
X150794784Y-87847544D01*
X150942354Y-87946147D01*
X151067853Y-88071646D01*
X151166456Y-88219216D01*
X151234376Y-88383188D01*
X151269000Y-88557259D01*
X151269000Y-88734741D01*
X151234376Y-88908812D01*
X151166456Y-89072784D01*
X151067853Y-89220354D01*
X150942354Y-89345853D01*
X150794784Y-89444456D01*
X150630812Y-89512376D01*
X150481512Y-89542073D01*
X150456742Y-89547000D01*
X150279258Y-89547000D01*
X150254488Y-89542073D01*
X150105188Y-89512376D01*
X149941216Y-89444456D01*
X149793646Y-89345853D01*
X149668147Y-89220354D01*
X149569544Y-89072784D01*
X149501624Y-88908812D01*
X149467000Y-88734741D01*
X149467000Y-88557259D01*
X149501624Y-88383188D01*
X149569544Y-88219216D01*
X149668147Y-88071646D01*
X149793646Y-87946147D01*
X149941216Y-87847544D01*
X150105188Y-87779624D01*
X150254488Y-87749927D01*
X150279258Y-87745000D01*
X150456742Y-87745000D01*
X150481512Y-87749927D01*
G37*
G36*
X168261512Y-87749927D02*
G01*
X168410812Y-87779624D01*
X168574784Y-87847544D01*
X168722354Y-87946147D01*
X168847853Y-88071646D01*
X168946456Y-88219216D01*
X169014376Y-88383188D01*
X169049000Y-88557259D01*
X169049000Y-88734741D01*
X169014376Y-88908812D01*
X168946456Y-89072784D01*
X168847853Y-89220354D01*
X168722354Y-89345853D01*
X168574784Y-89444456D01*
X168410812Y-89512376D01*
X168261512Y-89542073D01*
X168236742Y-89547000D01*
X168059258Y-89547000D01*
X168034488Y-89542073D01*
X167885188Y-89512376D01*
X167721216Y-89444456D01*
X167573646Y-89345853D01*
X167448147Y-89220354D01*
X167349544Y-89072784D01*
X167281624Y-88908812D01*
X167247000Y-88734741D01*
X167247000Y-88557259D01*
X167281624Y-88383188D01*
X167349544Y-88219216D01*
X167448147Y-88071646D01*
X167573646Y-87946147D01*
X167721216Y-87847544D01*
X167885188Y-87779624D01*
X168034488Y-87749927D01*
X168059258Y-87745000D01*
X168236742Y-87745000D01*
X168261512Y-87749927D01*
G37*
G36*
X153021512Y-87749927D02*
G01*
X153170812Y-87779624D01*
X153334784Y-87847544D01*
X153482354Y-87946147D01*
X153607853Y-88071646D01*
X153706456Y-88219216D01*
X153774376Y-88383188D01*
X153809000Y-88557259D01*
X153809000Y-88734741D01*
X153774376Y-88908812D01*
X153706456Y-89072784D01*
X153607853Y-89220354D01*
X153482354Y-89345853D01*
X153334784Y-89444456D01*
X153170812Y-89512376D01*
X153021512Y-89542073D01*
X152996742Y-89547000D01*
X152819258Y-89547000D01*
X152794488Y-89542073D01*
X152645188Y-89512376D01*
X152481216Y-89444456D01*
X152333646Y-89345853D01*
X152208147Y-89220354D01*
X152109544Y-89072784D01*
X152041624Y-88908812D01*
X152007000Y-88734741D01*
X152007000Y-88557259D01*
X152041624Y-88383188D01*
X152109544Y-88219216D01*
X152208147Y-88071646D01*
X152333646Y-87946147D01*
X152481216Y-87847544D01*
X152645188Y-87779624D01*
X152794488Y-87749927D01*
X152819258Y-87745000D01*
X152996742Y-87745000D01*
X153021512Y-87749927D01*
G37*
G36*
X165721512Y-87749927D02*
G01*
X165870812Y-87779624D01*
X166034784Y-87847544D01*
X166182354Y-87946147D01*
X166307853Y-88071646D01*
X166406456Y-88219216D01*
X166474376Y-88383188D01*
X166509000Y-88557259D01*
X166509000Y-88734741D01*
X166474376Y-88908812D01*
X166406456Y-89072784D01*
X166307853Y-89220354D01*
X166182354Y-89345853D01*
X166034784Y-89444456D01*
X165870812Y-89512376D01*
X165721512Y-89542073D01*
X165696742Y-89547000D01*
X165519258Y-89547000D01*
X165494488Y-89542073D01*
X165345188Y-89512376D01*
X165181216Y-89444456D01*
X165033646Y-89345853D01*
X164908147Y-89220354D01*
X164809544Y-89072784D01*
X164741624Y-88908812D01*
X164707000Y-88734741D01*
X164707000Y-88557259D01*
X164741624Y-88383188D01*
X164809544Y-88219216D01*
X164908147Y-88071646D01*
X165033646Y-87946147D01*
X165181216Y-87847544D01*
X165345188Y-87779624D01*
X165494488Y-87749927D01*
X165519258Y-87745000D01*
X165696742Y-87745000D01*
X165721512Y-87749927D01*
G37*
G36*
X155561512Y-87749927D02*
G01*
X155710812Y-87779624D01*
X155874784Y-87847544D01*
X156022354Y-87946147D01*
X156147853Y-88071646D01*
X156246456Y-88219216D01*
X156314376Y-88383188D01*
X156349000Y-88557259D01*
X156349000Y-88734741D01*
X156314376Y-88908812D01*
X156246456Y-89072784D01*
X156147853Y-89220354D01*
X156022354Y-89345853D01*
X155874784Y-89444456D01*
X155710812Y-89512376D01*
X155561512Y-89542073D01*
X155536742Y-89547000D01*
X155359258Y-89547000D01*
X155334488Y-89542073D01*
X155185188Y-89512376D01*
X155021216Y-89444456D01*
X154873646Y-89345853D01*
X154748147Y-89220354D01*
X154649544Y-89072784D01*
X154581624Y-88908812D01*
X154547000Y-88734741D01*
X154547000Y-88557259D01*
X154581624Y-88383188D01*
X154649544Y-88219216D01*
X154748147Y-88071646D01*
X154873646Y-87946147D01*
X155021216Y-87847544D01*
X155185188Y-87779624D01*
X155334488Y-87749927D01*
X155359258Y-87745000D01*
X155536742Y-87745000D01*
X155561512Y-87749927D01*
G37*
G36*
X163181512Y-87749927D02*
G01*
X163330812Y-87779624D01*
X163494784Y-87847544D01*
X163642354Y-87946147D01*
X163767853Y-88071646D01*
X163866456Y-88219216D01*
X163934376Y-88383188D01*
X163969000Y-88557259D01*
X163969000Y-88734741D01*
X163934376Y-88908812D01*
X163866456Y-89072784D01*
X163767853Y-89220354D01*
X163642354Y-89345853D01*
X163494784Y-89444456D01*
X163330812Y-89512376D01*
X163181512Y-89542073D01*
X163156742Y-89547000D01*
X162979258Y-89547000D01*
X162954488Y-89542073D01*
X162805188Y-89512376D01*
X162641216Y-89444456D01*
X162493646Y-89345853D01*
X162368147Y-89220354D01*
X162269544Y-89072784D01*
X162201624Y-88908812D01*
X162167000Y-88734741D01*
X162167000Y-88557259D01*
X162201624Y-88383188D01*
X162269544Y-88219216D01*
X162368147Y-88071646D01*
X162493646Y-87946147D01*
X162641216Y-87847544D01*
X162805188Y-87779624D01*
X162954488Y-87749927D01*
X162979258Y-87745000D01*
X163156742Y-87745000D01*
X163181512Y-87749927D01*
G37*
G36*
X158101512Y-87749927D02*
G01*
X158250812Y-87779624D01*
X158414784Y-87847544D01*
X158562354Y-87946147D01*
X158687853Y-88071646D01*
X158786456Y-88219216D01*
X158854376Y-88383188D01*
X158889000Y-88557259D01*
X158889000Y-88734741D01*
X158854376Y-88908812D01*
X158786456Y-89072784D01*
X158687853Y-89220354D01*
X158562354Y-89345853D01*
X158414784Y-89444456D01*
X158250812Y-89512376D01*
X158101512Y-89542073D01*
X158076742Y-89547000D01*
X157899258Y-89547000D01*
X157874488Y-89542073D01*
X157725188Y-89512376D01*
X157561216Y-89444456D01*
X157413646Y-89345853D01*
X157288147Y-89220354D01*
X157189544Y-89072784D01*
X157121624Y-88908812D01*
X157087000Y-88734741D01*
X157087000Y-88557259D01*
X157121624Y-88383188D01*
X157189544Y-88219216D01*
X157288147Y-88071646D01*
X157413646Y-87946147D01*
X157561216Y-87847544D01*
X157725188Y-87779624D01*
X157874488Y-87749927D01*
X157899258Y-87745000D01*
X158076742Y-87745000D01*
X158101512Y-87749927D01*
G37*
G36*
X173857256Y-82211298D02*
G01*
X173963579Y-82232447D01*
X174264042Y-82356903D01*
X174534451Y-82537585D01*
X174764415Y-82767549D01*
X174945097Y-83037958D01*
X175069553Y-83338421D01*
X175133000Y-83657391D01*
X175133000Y-83982609D01*
X175069553Y-84301579D01*
X174945097Y-84602042D01*
X174764415Y-84872451D01*
X174534451Y-85102415D01*
X174264042Y-85283097D01*
X173963579Y-85407553D01*
X173857256Y-85428702D01*
X173644611Y-85471000D01*
X173319389Y-85471000D01*
X173106744Y-85428702D01*
X173000421Y-85407553D01*
X172699958Y-85283097D01*
X172429549Y-85102415D01*
X172199585Y-84872451D01*
X172018903Y-84602042D01*
X171894447Y-84301579D01*
X171831000Y-83982609D01*
X171831000Y-83657391D01*
X171894447Y-83338421D01*
X172018903Y-83037958D01*
X172199585Y-82767549D01*
X172429549Y-82537585D01*
X172699958Y-82356903D01*
X173000421Y-82232447D01*
X173106744Y-82211298D01*
X173319389Y-82169000D01*
X173644611Y-82169000D01*
X173857256Y-82211298D01*
G37*
G36*
X186430228Y-78683703D02*
G01*
X186585100Y-78747853D01*
X186724481Y-78840985D01*
X186843015Y-78959519D01*
X186936147Y-79098900D01*
X187000297Y-79253772D01*
X187033000Y-79418184D01*
X187033000Y-79585816D01*
X187000297Y-79750228D01*
X186936147Y-79905100D01*
X186843015Y-80044481D01*
X186724481Y-80163015D01*
X186585100Y-80256147D01*
X186430228Y-80320297D01*
X186265816Y-80353000D01*
X186098184Y-80353000D01*
X185933772Y-80320297D01*
X185778900Y-80256147D01*
X185639519Y-80163015D01*
X185520985Y-80044481D01*
X185427853Y-79905100D01*
X185363703Y-79750228D01*
X185331000Y-79585816D01*
X185331000Y-79418184D01*
X185363703Y-79253772D01*
X185427853Y-79098900D01*
X185520985Y-78959519D01*
X185639519Y-78840985D01*
X185778900Y-78747853D01*
X185933772Y-78683703D01*
X186098184Y-78651000D01*
X186265816Y-78651000D01*
X186430228Y-78683703D01*
G37*
G36*
X183890228Y-78683703D02*
G01*
X184045100Y-78747853D01*
X184184481Y-78840985D01*
X184303015Y-78959519D01*
X184396147Y-79098900D01*
X184460297Y-79253772D01*
X184493000Y-79418184D01*
X184493000Y-79585816D01*
X184460297Y-79750228D01*
X184396147Y-79905100D01*
X184303015Y-80044481D01*
X184184481Y-80163015D01*
X184045100Y-80256147D01*
X183890228Y-80320297D01*
X183725816Y-80353000D01*
X183558184Y-80353000D01*
X183393772Y-80320297D01*
X183238900Y-80256147D01*
X183099519Y-80163015D01*
X182980985Y-80044481D01*
X182887853Y-79905100D01*
X182823703Y-79750228D01*
X182791000Y-79585816D01*
X182791000Y-79418184D01*
X182823703Y-79253772D01*
X182887853Y-79098900D01*
X182980985Y-78959519D01*
X183099519Y-78840985D01*
X183238900Y-78747853D01*
X183393772Y-78683703D01*
X183558184Y-78651000D01*
X183725816Y-78651000D01*
X183890228Y-78683703D01*
G37*
G36*
X181350228Y-78683703D02*
G01*
X181505100Y-78747853D01*
X181644481Y-78840985D01*
X181763015Y-78959519D01*
X181856147Y-79098900D01*
X181920297Y-79253772D01*
X181953000Y-79418184D01*
X181953000Y-79585816D01*
X181920297Y-79750228D01*
X181856147Y-79905100D01*
X181763015Y-80044481D01*
X181644481Y-80163015D01*
X181505100Y-80256147D01*
X181350228Y-80320297D01*
X181185816Y-80353000D01*
X181018184Y-80353000D01*
X180853772Y-80320297D01*
X180698900Y-80256147D01*
X180559519Y-80163015D01*
X180440985Y-80044481D01*
X180347853Y-79905100D01*
X180283703Y-79750228D01*
X180251000Y-79585816D01*
X180251000Y-79418184D01*
X180283703Y-79253772D01*
X180347853Y-79098900D01*
X180440985Y-78959519D01*
X180559519Y-78840985D01*
X180698900Y-78747853D01*
X180853772Y-78683703D01*
X181018184Y-78651000D01*
X181185816Y-78651000D01*
X181350228Y-78683703D01*
G37*
G36*
X178810228Y-78683703D02*
G01*
X178965100Y-78747853D01*
X179104481Y-78840985D01*
X179223015Y-78959519D01*
X179316147Y-79098900D01*
X179380297Y-79253772D01*
X179413000Y-79418184D01*
X179413000Y-79585816D01*
X179380297Y-79750228D01*
X179316147Y-79905100D01*
X179223015Y-80044481D01*
X179104481Y-80163015D01*
X178965100Y-80256147D01*
X178810228Y-80320297D01*
X178645816Y-80353000D01*
X178478184Y-80353000D01*
X178313772Y-80320297D01*
X178158900Y-80256147D01*
X178019519Y-80163015D01*
X177900985Y-80044481D01*
X177807853Y-79905100D01*
X177743703Y-79750228D01*
X177711000Y-79585816D01*
X177711000Y-79418184D01*
X177743703Y-79253772D01*
X177807853Y-79098900D01*
X177900985Y-78959519D01*
X178019519Y-78840985D01*
X178158900Y-78747853D01*
X178313772Y-78683703D01*
X178478184Y-78651000D01*
X178645816Y-78651000D01*
X178810228Y-78683703D01*
G37*
G36*
X176270228Y-78683703D02*
G01*
X176425100Y-78747853D01*
X176564481Y-78840985D01*
X176683015Y-78959519D01*
X176776147Y-79098900D01*
X176840297Y-79253772D01*
X176873000Y-79418184D01*
X176873000Y-79585816D01*
X176840297Y-79750228D01*
X176776147Y-79905100D01*
X176683015Y-80044481D01*
X176564481Y-80163015D01*
X176425100Y-80256147D01*
X176270228Y-80320297D01*
X176105816Y-80353000D01*
X175938184Y-80353000D01*
X175773772Y-80320297D01*
X175618900Y-80256147D01*
X175479519Y-80163015D01*
X175360985Y-80044481D01*
X175267853Y-79905100D01*
X175203703Y-79750228D01*
X175171000Y-79585816D01*
X175171000Y-79418184D01*
X175203703Y-79253772D01*
X175267853Y-79098900D01*
X175360985Y-78959519D01*
X175479519Y-78840985D01*
X175618900Y-78747853D01*
X175773772Y-78683703D01*
X175938184Y-78651000D01*
X176105816Y-78651000D01*
X176270228Y-78683703D01*
G37*
G36*
X173730228Y-78683703D02*
G01*
X173885100Y-78747853D01*
X174024481Y-78840985D01*
X174143015Y-78959519D01*
X174236147Y-79098900D01*
X174300297Y-79253772D01*
X174333000Y-79418184D01*
X174333000Y-79585816D01*
X174300297Y-79750228D01*
X174236147Y-79905100D01*
X174143015Y-80044481D01*
X174024481Y-80163015D01*
X173885100Y-80256147D01*
X173730228Y-80320297D01*
X173565816Y-80353000D01*
X173398184Y-80353000D01*
X173233772Y-80320297D01*
X173078900Y-80256147D01*
X172939519Y-80163015D01*
X172820985Y-80044481D01*
X172727853Y-79905100D01*
X172663703Y-79750228D01*
X172631000Y-79585816D01*
X172631000Y-79418184D01*
X172663703Y-79253772D01*
X172727853Y-79098900D01*
X172820985Y-78959519D01*
X172939519Y-78840985D01*
X173078900Y-78747853D01*
X173233772Y-78683703D01*
X173398184Y-78651000D01*
X173565816Y-78651000D01*
X173730228Y-78683703D01*
G37*
G36*
X171793000Y-80353000D02*
G01*
X170091000Y-80353000D01*
X170091000Y-78651000D01*
X171793000Y-78651000D01*
X171793000Y-80353000D01*
G37*
G36*
X165856228Y-78683703D02*
G01*
X166011100Y-78747853D01*
X166150481Y-78840985D01*
X166269015Y-78959519D01*
X166362147Y-79098900D01*
X166426297Y-79253772D01*
X166459000Y-79418184D01*
X166459000Y-79585816D01*
X166426297Y-79750228D01*
X166362147Y-79905100D01*
X166269015Y-80044481D01*
X166150481Y-80163015D01*
X166011100Y-80256147D01*
X165856228Y-80320297D01*
X165691816Y-80353000D01*
X165524184Y-80353000D01*
X165359772Y-80320297D01*
X165204900Y-80256147D01*
X165065519Y-80163015D01*
X164946985Y-80044481D01*
X164853853Y-79905100D01*
X164789703Y-79750228D01*
X164757000Y-79585816D01*
X164757000Y-79418184D01*
X164789703Y-79253772D01*
X164853853Y-79098900D01*
X164946985Y-78959519D01*
X165065519Y-78840985D01*
X165204900Y-78747853D01*
X165359772Y-78683703D01*
X165524184Y-78651000D01*
X165691816Y-78651000D01*
X165856228Y-78683703D01*
G37*
G36*
X163316228Y-78683703D02*
G01*
X163471100Y-78747853D01*
X163610481Y-78840985D01*
X163729015Y-78959519D01*
X163822147Y-79098900D01*
X163886297Y-79253772D01*
X163919000Y-79418184D01*
X163919000Y-79585816D01*
X163886297Y-79750228D01*
X163822147Y-79905100D01*
X163729015Y-80044481D01*
X163610481Y-80163015D01*
X163471100Y-80256147D01*
X163316228Y-80320297D01*
X163151816Y-80353000D01*
X162984184Y-80353000D01*
X162819772Y-80320297D01*
X162664900Y-80256147D01*
X162525519Y-80163015D01*
X162406985Y-80044481D01*
X162313853Y-79905100D01*
X162249703Y-79750228D01*
X162217000Y-79585816D01*
X162217000Y-79418184D01*
X162249703Y-79253772D01*
X162313853Y-79098900D01*
X162406985Y-78959519D01*
X162525519Y-78840985D01*
X162664900Y-78747853D01*
X162819772Y-78683703D01*
X162984184Y-78651000D01*
X163151816Y-78651000D01*
X163316228Y-78683703D01*
G37*
G36*
X160776228Y-78683703D02*
G01*
X160931100Y-78747853D01*
X161070481Y-78840985D01*
X161189015Y-78959519D01*
X161282147Y-79098900D01*
X161346297Y-79253772D01*
X161379000Y-79418184D01*
X161379000Y-79585816D01*
X161346297Y-79750228D01*
X161282147Y-79905100D01*
X161189015Y-80044481D01*
X161070481Y-80163015D01*
X160931100Y-80256147D01*
X160776228Y-80320297D01*
X160611816Y-80353000D01*
X160444184Y-80353000D01*
X160279772Y-80320297D01*
X160124900Y-80256147D01*
X159985519Y-80163015D01*
X159866985Y-80044481D01*
X159773853Y-79905100D01*
X159709703Y-79750228D01*
X159677000Y-79585816D01*
X159677000Y-79418184D01*
X159709703Y-79253772D01*
X159773853Y-79098900D01*
X159866985Y-78959519D01*
X159985519Y-78840985D01*
X160124900Y-78747853D01*
X160279772Y-78683703D01*
X160444184Y-78651000D01*
X160611816Y-78651000D01*
X160776228Y-78683703D01*
G37*
G36*
X158236228Y-78683703D02*
G01*
X158391100Y-78747853D01*
X158530481Y-78840985D01*
X158649015Y-78959519D01*
X158742147Y-79098900D01*
X158806297Y-79253772D01*
X158839000Y-79418184D01*
X158839000Y-79585816D01*
X158806297Y-79750228D01*
X158742147Y-79905100D01*
X158649015Y-80044481D01*
X158530481Y-80163015D01*
X158391100Y-80256147D01*
X158236228Y-80320297D01*
X158071816Y-80353000D01*
X157904184Y-80353000D01*
X157739772Y-80320297D01*
X157584900Y-80256147D01*
X157445519Y-80163015D01*
X157326985Y-80044481D01*
X157233853Y-79905100D01*
X157169703Y-79750228D01*
X157137000Y-79585816D01*
X157137000Y-79418184D01*
X157169703Y-79253772D01*
X157233853Y-79098900D01*
X157326985Y-78959519D01*
X157445519Y-78840985D01*
X157584900Y-78747853D01*
X157739772Y-78683703D01*
X157904184Y-78651000D01*
X158071816Y-78651000D01*
X158236228Y-78683703D01*
G37*
G36*
X155696228Y-78683703D02*
G01*
X155851100Y-78747853D01*
X155990481Y-78840985D01*
X156109015Y-78959519D01*
X156202147Y-79098900D01*
X156266297Y-79253772D01*
X156299000Y-79418184D01*
X156299000Y-79585816D01*
X156266297Y-79750228D01*
X156202147Y-79905100D01*
X156109015Y-80044481D01*
X155990481Y-80163015D01*
X155851100Y-80256147D01*
X155696228Y-80320297D01*
X155531816Y-80353000D01*
X155364184Y-80353000D01*
X155199772Y-80320297D01*
X155044900Y-80256147D01*
X154905519Y-80163015D01*
X154786985Y-80044481D01*
X154693853Y-79905100D01*
X154629703Y-79750228D01*
X154597000Y-79585816D01*
X154597000Y-79418184D01*
X154629703Y-79253772D01*
X154693853Y-79098900D01*
X154786985Y-78959519D01*
X154905519Y-78840985D01*
X155044900Y-78747853D01*
X155199772Y-78683703D01*
X155364184Y-78651000D01*
X155531816Y-78651000D01*
X155696228Y-78683703D01*
G37*
G36*
X153156228Y-78683703D02*
G01*
X153311100Y-78747853D01*
X153450481Y-78840985D01*
X153569015Y-78959519D01*
X153662147Y-79098900D01*
X153726297Y-79253772D01*
X153759000Y-79418184D01*
X153759000Y-79585816D01*
X153726297Y-79750228D01*
X153662147Y-79905100D01*
X153569015Y-80044481D01*
X153450481Y-80163015D01*
X153311100Y-80256147D01*
X153156228Y-80320297D01*
X152991816Y-80353000D01*
X152824184Y-80353000D01*
X152659772Y-80320297D01*
X152504900Y-80256147D01*
X152365519Y-80163015D01*
X152246985Y-80044481D01*
X152153853Y-79905100D01*
X152089703Y-79750228D01*
X152057000Y-79585816D01*
X152057000Y-79418184D01*
X152089703Y-79253772D01*
X152153853Y-79098900D01*
X152246985Y-78959519D01*
X152365519Y-78840985D01*
X152504900Y-78747853D01*
X152659772Y-78683703D01*
X152824184Y-78651000D01*
X152991816Y-78651000D01*
X153156228Y-78683703D01*
G37*
G36*
X150616228Y-78683703D02*
G01*
X150771100Y-78747853D01*
X150910481Y-78840985D01*
X151029015Y-78959519D01*
X151122147Y-79098900D01*
X151186297Y-79253772D01*
X151219000Y-79418184D01*
X151219000Y-79585816D01*
X151186297Y-79750228D01*
X151122147Y-79905100D01*
X151029015Y-80044481D01*
X150910481Y-80163015D01*
X150771100Y-80256147D01*
X150616228Y-80320297D01*
X150451816Y-80353000D01*
X150284184Y-80353000D01*
X150119772Y-80320297D01*
X149964900Y-80256147D01*
X149825519Y-80163015D01*
X149706985Y-80044481D01*
X149613853Y-79905100D01*
X149549703Y-79750228D01*
X149517000Y-79585816D01*
X149517000Y-79418184D01*
X149549703Y-79253772D01*
X149613853Y-79098900D01*
X149706985Y-78959519D01*
X149825519Y-78840985D01*
X149964900Y-78747853D01*
X150119772Y-78683703D01*
X150284184Y-78651000D01*
X150451816Y-78651000D01*
X150616228Y-78683703D01*
G37*
G36*
X148076228Y-78683703D02*
G01*
X148231100Y-78747853D01*
X148370481Y-78840985D01*
X148489015Y-78959519D01*
X148582147Y-79098900D01*
X148646297Y-79253772D01*
X148679000Y-79418184D01*
X148679000Y-79585816D01*
X148646297Y-79750228D01*
X148582147Y-79905100D01*
X148489015Y-80044481D01*
X148370481Y-80163015D01*
X148231100Y-80256147D01*
X148076228Y-80320297D01*
X147911816Y-80353000D01*
X147744184Y-80353000D01*
X147579772Y-80320297D01*
X147424900Y-80256147D01*
X147285519Y-80163015D01*
X147166985Y-80044481D01*
X147073853Y-79905100D01*
X147009703Y-79750228D01*
X146977000Y-79585816D01*
X146977000Y-79418184D01*
X147009703Y-79253772D01*
X147073853Y-79098900D01*
X147166985Y-78959519D01*
X147285519Y-78840985D01*
X147424900Y-78747853D01*
X147579772Y-78683703D01*
X147744184Y-78651000D01*
X147911816Y-78651000D01*
X148076228Y-78683703D01*
G37*
G36*
X145536228Y-78683703D02*
G01*
X145691100Y-78747853D01*
X145830481Y-78840985D01*
X145949015Y-78959519D01*
X146042147Y-79098900D01*
X146106297Y-79253772D01*
X146139000Y-79418184D01*
X146139000Y-79585816D01*
X146106297Y-79750228D01*
X146042147Y-79905100D01*
X145949015Y-80044481D01*
X145830481Y-80163015D01*
X145691100Y-80256147D01*
X145536228Y-80320297D01*
X145371816Y-80353000D01*
X145204184Y-80353000D01*
X145039772Y-80320297D01*
X144884900Y-80256147D01*
X144745519Y-80163015D01*
X144626985Y-80044481D01*
X144533853Y-79905100D01*
X144469703Y-79750228D01*
X144437000Y-79585816D01*
X144437000Y-79418184D01*
X144469703Y-79253772D01*
X144533853Y-79098900D01*
X144626985Y-78959519D01*
X144745519Y-78840985D01*
X144884900Y-78747853D01*
X145039772Y-78683703D01*
X145204184Y-78651000D01*
X145371816Y-78651000D01*
X145536228Y-78683703D01*
G37*
G36*
X142996228Y-78683703D02*
G01*
X143151100Y-78747853D01*
X143290481Y-78840985D01*
X143409015Y-78959519D01*
X143502147Y-79098900D01*
X143566297Y-79253772D01*
X143599000Y-79418184D01*
X143599000Y-79585816D01*
X143566297Y-79750228D01*
X143502147Y-79905100D01*
X143409015Y-80044481D01*
X143290481Y-80163015D01*
X143151100Y-80256147D01*
X142996228Y-80320297D01*
X142831816Y-80353000D01*
X142664184Y-80353000D01*
X142499772Y-80320297D01*
X142344900Y-80256147D01*
X142205519Y-80163015D01*
X142086985Y-80044481D01*
X141993853Y-79905100D01*
X141929703Y-79750228D01*
X141897000Y-79585816D01*
X141897000Y-79418184D01*
X141929703Y-79253772D01*
X141993853Y-79098900D01*
X142086985Y-78959519D01*
X142205519Y-78840985D01*
X142344900Y-78747853D01*
X142499772Y-78683703D01*
X142664184Y-78651000D01*
X142831816Y-78651000D01*
X142996228Y-78683703D01*
G37*
G36*
X140456228Y-78683703D02*
G01*
X140611100Y-78747853D01*
X140750481Y-78840985D01*
X140869015Y-78959519D01*
X140962147Y-79098900D01*
X141026297Y-79253772D01*
X141059000Y-79418184D01*
X141059000Y-79585816D01*
X141026297Y-79750228D01*
X140962147Y-79905100D01*
X140869015Y-80044481D01*
X140750481Y-80163015D01*
X140611100Y-80256147D01*
X140456228Y-80320297D01*
X140291816Y-80353000D01*
X140124184Y-80353000D01*
X139959772Y-80320297D01*
X139804900Y-80256147D01*
X139665519Y-80163015D01*
X139546985Y-80044481D01*
X139453853Y-79905100D01*
X139389703Y-79750228D01*
X139357000Y-79585816D01*
X139357000Y-79418184D01*
X139389703Y-79253772D01*
X139453853Y-79098900D01*
X139546985Y-78959519D01*
X139665519Y-78840985D01*
X139804900Y-78747853D01*
X139959772Y-78683703D01*
X140124184Y-78651000D01*
X140291816Y-78651000D01*
X140456228Y-78683703D01*
G37*
G36*
X137916228Y-78683703D02*
G01*
X138071100Y-78747853D01*
X138210481Y-78840985D01*
X138329015Y-78959519D01*
X138422147Y-79098900D01*
X138486297Y-79253772D01*
X138519000Y-79418184D01*
X138519000Y-79585816D01*
X138486297Y-79750228D01*
X138422147Y-79905100D01*
X138329015Y-80044481D01*
X138210481Y-80163015D01*
X138071100Y-80256147D01*
X137916228Y-80320297D01*
X137751816Y-80353000D01*
X137584184Y-80353000D01*
X137419772Y-80320297D01*
X137264900Y-80256147D01*
X137125519Y-80163015D01*
X137006985Y-80044481D01*
X136913853Y-79905100D01*
X136849703Y-79750228D01*
X136817000Y-79585816D01*
X136817000Y-79418184D01*
X136849703Y-79253772D01*
X136913853Y-79098900D01*
X137006985Y-78959519D01*
X137125519Y-78840985D01*
X137264900Y-78747853D01*
X137419772Y-78683703D01*
X137584184Y-78651000D01*
X137751816Y-78651000D01*
X137916228Y-78683703D01*
G37*
G36*
X135376228Y-78683703D02*
G01*
X135531100Y-78747853D01*
X135670481Y-78840985D01*
X135789015Y-78959519D01*
X135882147Y-79098900D01*
X135946297Y-79253772D01*
X135979000Y-79418184D01*
X135979000Y-79585816D01*
X135946297Y-79750228D01*
X135882147Y-79905100D01*
X135789015Y-80044481D01*
X135670481Y-80163015D01*
X135531100Y-80256147D01*
X135376228Y-80320297D01*
X135211816Y-80353000D01*
X135044184Y-80353000D01*
X134879772Y-80320297D01*
X134724900Y-80256147D01*
X134585519Y-80163015D01*
X134466985Y-80044481D01*
X134373853Y-79905100D01*
X134309703Y-79750228D01*
X134277000Y-79585816D01*
X134277000Y-79418184D01*
X134309703Y-79253772D01*
X134373853Y-79098900D01*
X134466985Y-78959519D01*
X134585519Y-78840985D01*
X134724900Y-78747853D01*
X134879772Y-78683703D01*
X135044184Y-78651000D01*
X135211816Y-78651000D01*
X135376228Y-78683703D01*
G37*
G36*
X133439000Y-80353000D02*
G01*
X131737000Y-80353000D01*
X131737000Y-78651000D01*
X133439000Y-78651000D01*
X133439000Y-80353000D01*
G37*
G36*
X177206228Y-73857703D02*
G01*
X177361100Y-73921853D01*
X177500481Y-74014985D01*
X177619015Y-74133519D01*
X177712147Y-74272900D01*
X177776297Y-74427772D01*
X177809000Y-74592184D01*
X177809000Y-74759816D01*
X177776297Y-74924228D01*
X177712147Y-75079100D01*
X177619015Y-75218481D01*
X177500481Y-75337015D01*
X177361100Y-75430147D01*
X177206228Y-75494297D01*
X177041816Y-75527000D01*
X176874184Y-75527000D01*
X176709772Y-75494297D01*
X176554900Y-75430147D01*
X176415519Y-75337015D01*
X176296985Y-75218481D01*
X176203853Y-75079100D01*
X176139703Y-74924228D01*
X176107000Y-74759816D01*
X176107000Y-74592184D01*
X176139703Y-74427772D01*
X176203853Y-74272900D01*
X176296985Y-74133519D01*
X176415519Y-74014985D01*
X176554900Y-73921853D01*
X176709772Y-73857703D01*
X176874184Y-73825000D01*
X177041816Y-73825000D01*
X177206228Y-73857703D01*
G37*
G36*
X172206228Y-73857703D02*
G01*
X172361100Y-73921853D01*
X172500481Y-74014985D01*
X172619015Y-74133519D01*
X172712147Y-74272900D01*
X172776297Y-74427772D01*
X172809000Y-74592184D01*
X172809000Y-74759816D01*
X172776297Y-74924228D01*
X172712147Y-75079100D01*
X172619015Y-75218481D01*
X172500481Y-75337015D01*
X172361100Y-75430147D01*
X172206228Y-75494297D01*
X172041816Y-75527000D01*
X171874184Y-75527000D01*
X171709772Y-75494297D01*
X171554900Y-75430147D01*
X171415519Y-75337015D01*
X171296985Y-75218481D01*
X171203853Y-75079100D01*
X171139703Y-74924228D01*
X171107000Y-74759816D01*
X171107000Y-74592184D01*
X171139703Y-74427772D01*
X171203853Y-74272900D01*
X171296985Y-74133519D01*
X171415519Y-74014985D01*
X171554900Y-73921853D01*
X171709772Y-73857703D01*
X171874184Y-73825000D01*
X172041816Y-73825000D01*
X172206228Y-73857703D01*
G37*
G36*
X186430228Y-71063703D02*
G01*
X186585100Y-71127853D01*
X186724481Y-71220985D01*
X186843015Y-71339519D01*
X186936147Y-71478900D01*
X187000297Y-71633772D01*
X187033000Y-71798184D01*
X187033000Y-71965816D01*
X187000297Y-72130228D01*
X186936147Y-72285100D01*
X186843015Y-72424481D01*
X186724481Y-72543015D01*
X186585100Y-72636147D01*
X186430228Y-72700297D01*
X186265816Y-72733000D01*
X186098184Y-72733000D01*
X185933772Y-72700297D01*
X185778900Y-72636147D01*
X185639519Y-72543015D01*
X185520985Y-72424481D01*
X185427853Y-72285100D01*
X185363703Y-72130228D01*
X185331000Y-71965816D01*
X185331000Y-71798184D01*
X185363703Y-71633772D01*
X185427853Y-71478900D01*
X185520985Y-71339519D01*
X185639519Y-71220985D01*
X185778900Y-71127853D01*
X185933772Y-71063703D01*
X186098184Y-71031000D01*
X186265816Y-71031000D01*
X186430228Y-71063703D01*
G37*
G36*
X171190228Y-71063703D02*
G01*
X171345100Y-71127853D01*
X171484481Y-71220985D01*
X171603015Y-71339519D01*
X171696147Y-71478900D01*
X171760297Y-71633772D01*
X171793000Y-71798184D01*
X171793000Y-71965816D01*
X171760297Y-72130228D01*
X171696147Y-72285100D01*
X171603015Y-72424481D01*
X171484481Y-72543015D01*
X171345100Y-72636147D01*
X171190228Y-72700297D01*
X171025816Y-72733000D01*
X170858184Y-72733000D01*
X170693772Y-72700297D01*
X170538900Y-72636147D01*
X170399519Y-72543015D01*
X170280985Y-72424481D01*
X170187853Y-72285100D01*
X170123703Y-72130228D01*
X170091000Y-71965816D01*
X170091000Y-71798184D01*
X170123703Y-71633772D01*
X170187853Y-71478900D01*
X170280985Y-71339519D01*
X170399519Y-71220985D01*
X170538900Y-71127853D01*
X170693772Y-71063703D01*
X170858184Y-71031000D01*
X171025816Y-71031000D01*
X171190228Y-71063703D01*
G37*
G36*
X173730228Y-71063703D02*
G01*
X173885100Y-71127853D01*
X174024481Y-71220985D01*
X174143015Y-71339519D01*
X174236147Y-71478900D01*
X174300297Y-71633772D01*
X174333000Y-71798184D01*
X174333000Y-71965816D01*
X174300297Y-72130228D01*
X174236147Y-72285100D01*
X174143015Y-72424481D01*
X174024481Y-72543015D01*
X173885100Y-72636147D01*
X173730228Y-72700297D01*
X173565816Y-72733000D01*
X173398184Y-72733000D01*
X173233772Y-72700297D01*
X173078900Y-72636147D01*
X172939519Y-72543015D01*
X172820985Y-72424481D01*
X172727853Y-72285100D01*
X172663703Y-72130228D01*
X172631000Y-71965816D01*
X172631000Y-71798184D01*
X172663703Y-71633772D01*
X172727853Y-71478900D01*
X172820985Y-71339519D01*
X172939519Y-71220985D01*
X173078900Y-71127853D01*
X173233772Y-71063703D01*
X173398184Y-71031000D01*
X173565816Y-71031000D01*
X173730228Y-71063703D01*
G37*
G36*
X183890228Y-71063703D02*
G01*
X184045100Y-71127853D01*
X184184481Y-71220985D01*
X184303015Y-71339519D01*
X184396147Y-71478900D01*
X184460297Y-71633772D01*
X184493000Y-71798184D01*
X184493000Y-71965816D01*
X184460297Y-72130228D01*
X184396147Y-72285100D01*
X184303015Y-72424481D01*
X184184481Y-72543015D01*
X184045100Y-72636147D01*
X183890228Y-72700297D01*
X183725816Y-72733000D01*
X183558184Y-72733000D01*
X183393772Y-72700297D01*
X183238900Y-72636147D01*
X183099519Y-72543015D01*
X182980985Y-72424481D01*
X182887853Y-72285100D01*
X182823703Y-72130228D01*
X182791000Y-71965816D01*
X182791000Y-71798184D01*
X182823703Y-71633772D01*
X182887853Y-71478900D01*
X182980985Y-71339519D01*
X183099519Y-71220985D01*
X183238900Y-71127853D01*
X183393772Y-71063703D01*
X183558184Y-71031000D01*
X183725816Y-71031000D01*
X183890228Y-71063703D01*
G37*
G36*
X176270228Y-71063703D02*
G01*
X176425100Y-71127853D01*
X176564481Y-71220985D01*
X176683015Y-71339519D01*
X176776147Y-71478900D01*
X176840297Y-71633772D01*
X176873000Y-71798184D01*
X176873000Y-71965816D01*
X176840297Y-72130228D01*
X176776147Y-72285100D01*
X176683015Y-72424481D01*
X176564481Y-72543015D01*
X176425100Y-72636147D01*
X176270228Y-72700297D01*
X176105816Y-72733000D01*
X175938184Y-72733000D01*
X175773772Y-72700297D01*
X175618900Y-72636147D01*
X175479519Y-72543015D01*
X175360985Y-72424481D01*
X175267853Y-72285100D01*
X175203703Y-72130228D01*
X175171000Y-71965816D01*
X175171000Y-71798184D01*
X175203703Y-71633772D01*
X175267853Y-71478900D01*
X175360985Y-71339519D01*
X175479519Y-71220985D01*
X175618900Y-71127853D01*
X175773772Y-71063703D01*
X175938184Y-71031000D01*
X176105816Y-71031000D01*
X176270228Y-71063703D01*
G37*
G36*
X181350228Y-71063703D02*
G01*
X181505100Y-71127853D01*
X181644481Y-71220985D01*
X181763015Y-71339519D01*
X181856147Y-71478900D01*
X181920297Y-71633772D01*
X181953000Y-71798184D01*
X181953000Y-71965816D01*
X181920297Y-72130228D01*
X181856147Y-72285100D01*
X181763015Y-72424481D01*
X181644481Y-72543015D01*
X181505100Y-72636147D01*
X181350228Y-72700297D01*
X181185816Y-72733000D01*
X181018184Y-72733000D01*
X180853772Y-72700297D01*
X180698900Y-72636147D01*
X180559519Y-72543015D01*
X180440985Y-72424481D01*
X180347853Y-72285100D01*
X180283703Y-72130228D01*
X180251000Y-71965816D01*
X180251000Y-71798184D01*
X180283703Y-71633772D01*
X180347853Y-71478900D01*
X180440985Y-71339519D01*
X180559519Y-71220985D01*
X180698900Y-71127853D01*
X180853772Y-71063703D01*
X181018184Y-71031000D01*
X181185816Y-71031000D01*
X181350228Y-71063703D01*
G37*
G36*
X178810228Y-71063703D02*
G01*
X178965100Y-71127853D01*
X179104481Y-71220985D01*
X179223015Y-71339519D01*
X179316147Y-71478900D01*
X179380297Y-71633772D01*
X179413000Y-71798184D01*
X179413000Y-71965816D01*
X179380297Y-72130228D01*
X179316147Y-72285100D01*
X179223015Y-72424481D01*
X179104481Y-72543015D01*
X178965100Y-72636147D01*
X178810228Y-72700297D01*
X178645816Y-72733000D01*
X178478184Y-72733000D01*
X178313772Y-72700297D01*
X178158900Y-72636147D01*
X178019519Y-72543015D01*
X177900985Y-72424481D01*
X177807853Y-72285100D01*
X177743703Y-72130228D01*
X177711000Y-71965816D01*
X177711000Y-71798184D01*
X177743703Y-71633772D01*
X177807853Y-71478900D01*
X177900985Y-71339519D01*
X178019519Y-71220985D01*
X178158900Y-71127853D01*
X178313772Y-71063703D01*
X178478184Y-71031000D01*
X178645816Y-71031000D01*
X178810228Y-71063703D01*
G37*
G36*
X158363256Y-67733298D02*
G01*
X158469579Y-67754447D01*
X158770042Y-67878903D01*
X159040451Y-68059585D01*
X159270415Y-68289549D01*
X159451097Y-68559958D01*
X159561357Y-68826148D01*
X159575553Y-68860422D01*
X159637494Y-69171816D01*
X159639000Y-69179391D01*
X159639000Y-69504609D01*
X159575553Y-69823579D01*
X159451097Y-70124042D01*
X159270415Y-70394451D01*
X159040451Y-70624415D01*
X158770042Y-70805097D01*
X158469579Y-70929553D01*
X158363256Y-70950702D01*
X158150611Y-70993000D01*
X157825389Y-70993000D01*
X157612744Y-70950702D01*
X157506421Y-70929553D01*
X157205958Y-70805097D01*
X156935549Y-70624415D01*
X156705585Y-70394451D01*
X156524903Y-70124042D01*
X156400447Y-69823579D01*
X156337000Y-69504609D01*
X156337000Y-69179391D01*
X156338507Y-69171816D01*
X156400447Y-68860422D01*
X156414644Y-68826148D01*
X156524903Y-68559958D01*
X156705585Y-68289549D01*
X156935549Y-68059585D01*
X157205958Y-67878903D01*
X157506421Y-67754447D01*
X157612744Y-67733298D01*
X157825389Y-67691000D01*
X158150611Y-67691000D01*
X158363256Y-67733298D01*
G37*
G36*
X171793000Y-69939000D02*
G01*
X170091000Y-69939000D01*
X170091000Y-68237000D01*
X171793000Y-68237000D01*
X171793000Y-69939000D01*
G37*
G36*
X173730228Y-68269703D02*
G01*
X173885100Y-68333853D01*
X174024481Y-68426985D01*
X174143015Y-68545519D01*
X174236147Y-68684900D01*
X174300297Y-68839772D01*
X174333000Y-69004184D01*
X174333000Y-69171816D01*
X174300297Y-69336228D01*
X174236147Y-69491100D01*
X174143015Y-69630481D01*
X174024481Y-69749015D01*
X173885100Y-69842147D01*
X173730228Y-69906297D01*
X173565816Y-69939000D01*
X173398184Y-69939000D01*
X173233772Y-69906297D01*
X173078900Y-69842147D01*
X172939519Y-69749015D01*
X172820985Y-69630481D01*
X172727853Y-69491100D01*
X172663703Y-69336228D01*
X172631000Y-69171816D01*
X172631000Y-69004184D01*
X172663703Y-68839772D01*
X172727853Y-68684900D01*
X172820985Y-68545519D01*
X172939519Y-68426985D01*
X173078900Y-68333853D01*
X173233772Y-68269703D01*
X173398184Y-68237000D01*
X173565816Y-68237000D01*
X173730228Y-68269703D01*
G37*
G36*
X183890228Y-68269703D02*
G01*
X184045100Y-68333853D01*
X184184481Y-68426985D01*
X184303015Y-68545519D01*
X184396147Y-68684900D01*
X184460297Y-68839772D01*
X184493000Y-69004184D01*
X184493000Y-69171816D01*
X184460297Y-69336228D01*
X184396147Y-69491100D01*
X184303015Y-69630481D01*
X184184481Y-69749015D01*
X184045100Y-69842147D01*
X183890228Y-69906297D01*
X183725816Y-69939000D01*
X183558184Y-69939000D01*
X183393772Y-69906297D01*
X183238900Y-69842147D01*
X183099519Y-69749015D01*
X182980985Y-69630481D01*
X182887853Y-69491100D01*
X182823703Y-69336228D01*
X182791000Y-69171816D01*
X182791000Y-69004184D01*
X182823703Y-68839772D01*
X182887853Y-68684900D01*
X182980985Y-68545519D01*
X183099519Y-68426985D01*
X183238900Y-68333853D01*
X183393772Y-68269703D01*
X183558184Y-68237000D01*
X183725816Y-68237000D01*
X183890228Y-68269703D01*
G37*
G36*
X176270228Y-68269703D02*
G01*
X176425100Y-68333853D01*
X176564481Y-68426985D01*
X176683015Y-68545519D01*
X176776147Y-68684900D01*
X176840297Y-68839772D01*
X176873000Y-69004184D01*
X176873000Y-69171816D01*
X176840297Y-69336228D01*
X176776147Y-69491100D01*
X176683015Y-69630481D01*
X176564481Y-69749015D01*
X176425100Y-69842147D01*
X176270228Y-69906297D01*
X176105816Y-69939000D01*
X175938184Y-69939000D01*
X175773772Y-69906297D01*
X175618900Y-69842147D01*
X175479519Y-69749015D01*
X175360985Y-69630481D01*
X175267853Y-69491100D01*
X175203703Y-69336228D01*
X175171000Y-69171816D01*
X175171000Y-69004184D01*
X175203703Y-68839772D01*
X175267853Y-68684900D01*
X175360985Y-68545519D01*
X175479519Y-68426985D01*
X175618900Y-68333853D01*
X175773772Y-68269703D01*
X175938184Y-68237000D01*
X176105816Y-68237000D01*
X176270228Y-68269703D01*
G37*
G36*
X178810228Y-68269703D02*
G01*
X178965100Y-68333853D01*
X179104481Y-68426985D01*
X179223015Y-68545519D01*
X179316147Y-68684900D01*
X179380297Y-68839772D01*
X179413000Y-69004184D01*
X179413000Y-69171816D01*
X179380297Y-69336228D01*
X179316147Y-69491100D01*
X179223015Y-69630481D01*
X179104481Y-69749015D01*
X178965100Y-69842147D01*
X178810228Y-69906297D01*
X178645816Y-69939000D01*
X178478184Y-69939000D01*
X178313772Y-69906297D01*
X178158900Y-69842147D01*
X178019519Y-69749015D01*
X177900985Y-69630481D01*
X177807853Y-69491100D01*
X177743703Y-69336228D01*
X177711000Y-69171816D01*
X177711000Y-69004184D01*
X177743703Y-68839772D01*
X177807853Y-68684900D01*
X177900985Y-68545519D01*
X178019519Y-68426985D01*
X178158900Y-68333853D01*
X178313772Y-68269703D01*
X178478184Y-68237000D01*
X178645816Y-68237000D01*
X178810228Y-68269703D01*
G37*
G36*
X181350228Y-68269703D02*
G01*
X181505100Y-68333853D01*
X181644481Y-68426985D01*
X181763015Y-68545519D01*
X181856147Y-68684900D01*
X181920297Y-68839772D01*
X181953000Y-69004184D01*
X181953000Y-69171816D01*
X181920297Y-69336228D01*
X181856147Y-69491100D01*
X181763015Y-69630481D01*
X181644481Y-69749015D01*
X181505100Y-69842147D01*
X181350228Y-69906297D01*
X181185816Y-69939000D01*
X181018184Y-69939000D01*
X180853772Y-69906297D01*
X180698900Y-69842147D01*
X180559519Y-69749015D01*
X180440985Y-69630481D01*
X180347853Y-69491100D01*
X180283703Y-69336228D01*
X180251000Y-69171816D01*
X180251000Y-69004184D01*
X180283703Y-68839772D01*
X180347853Y-68684900D01*
X180440985Y-68545519D01*
X180559519Y-68426985D01*
X180698900Y-68333853D01*
X180853772Y-68269703D01*
X181018184Y-68237000D01*
X181185816Y-68237000D01*
X181350228Y-68269703D01*
G37*
G36*
X186430228Y-68269703D02*
G01*
X186585100Y-68333853D01*
X186724481Y-68426985D01*
X186843015Y-68545519D01*
X186936147Y-68684900D01*
X187000297Y-68839772D01*
X187033000Y-69004184D01*
X187033000Y-69171816D01*
X187000297Y-69336228D01*
X186936147Y-69491100D01*
X186843015Y-69630481D01*
X186724481Y-69749015D01*
X186585100Y-69842147D01*
X186430228Y-69906297D01*
X186265816Y-69939000D01*
X186098184Y-69939000D01*
X185933772Y-69906297D01*
X185778900Y-69842147D01*
X185639519Y-69749015D01*
X185520985Y-69630481D01*
X185427853Y-69491100D01*
X185363703Y-69336228D01*
X185331000Y-69171816D01*
X185331000Y-69004184D01*
X185363703Y-68839772D01*
X185427853Y-68684900D01*
X185520985Y-68545519D01*
X185639519Y-68426985D01*
X185778900Y-68333853D01*
X185933772Y-68269703D01*
X186098184Y-68237000D01*
X186265816Y-68237000D01*
X186430228Y-68269703D01*
G37*
G36*
X138852228Y-67253703D02*
G01*
X139007100Y-67317853D01*
X139146481Y-67410985D01*
X139265015Y-67529519D01*
X139358147Y-67668900D01*
X139422297Y-67823772D01*
X139455000Y-67988184D01*
X139455000Y-68155816D01*
X139422297Y-68320228D01*
X139358147Y-68475100D01*
X139265015Y-68614481D01*
X139146481Y-68733015D01*
X139007100Y-68826147D01*
X138852228Y-68890297D01*
X138687816Y-68923000D01*
X138520184Y-68923000D01*
X138355772Y-68890297D01*
X138200900Y-68826147D01*
X138061519Y-68733015D01*
X137942985Y-68614481D01*
X137849853Y-68475100D01*
X137785703Y-68320228D01*
X137753000Y-68155816D01*
X137753000Y-67988184D01*
X137785703Y-67823772D01*
X137849853Y-67668900D01*
X137942985Y-67529519D01*
X138061519Y-67410985D01*
X138200900Y-67317853D01*
X138355772Y-67253703D01*
X138520184Y-67221000D01*
X138687816Y-67221000D01*
X138852228Y-67253703D01*
G37*
G36*
X133852228Y-67253703D02*
G01*
X134007100Y-67317853D01*
X134146481Y-67410985D01*
X134265015Y-67529519D01*
X134358147Y-67668900D01*
X134422297Y-67823772D01*
X134455000Y-67988184D01*
X134455000Y-68155816D01*
X134422297Y-68320228D01*
X134358147Y-68475100D01*
X134265015Y-68614481D01*
X134146481Y-68733015D01*
X134007100Y-68826147D01*
X133852228Y-68890297D01*
X133687816Y-68923000D01*
X133520184Y-68923000D01*
X133355772Y-68890297D01*
X133200900Y-68826147D01*
X133061519Y-68733015D01*
X132942985Y-68614481D01*
X132849853Y-68475100D01*
X132785703Y-68320228D01*
X132753000Y-68155816D01*
X132753000Y-67988184D01*
X132785703Y-67823772D01*
X132849853Y-67668900D01*
X132942985Y-67529519D01*
X133061519Y-67410985D01*
X133200900Y-67317853D01*
X133355772Y-67253703D01*
X133520184Y-67221000D01*
X133687816Y-67221000D01*
X133852228Y-67253703D01*
G37*
G36*
X155696228Y-63443703D02*
G01*
X155851100Y-63507853D01*
X155990481Y-63600985D01*
X156109015Y-63719519D01*
X156202147Y-63858900D01*
X156266297Y-64013772D01*
X156299000Y-64178184D01*
X156299000Y-64345816D01*
X156266297Y-64510228D01*
X156202147Y-64665100D01*
X156109015Y-64804481D01*
X155990481Y-64923015D01*
X155851100Y-65016147D01*
X155696228Y-65080297D01*
X155531816Y-65113000D01*
X155364184Y-65113000D01*
X155199772Y-65080297D01*
X155044900Y-65016147D01*
X154905519Y-64923015D01*
X154786985Y-64804481D01*
X154693853Y-64665100D01*
X154629703Y-64510228D01*
X154597000Y-64345816D01*
X154597000Y-64178184D01*
X154629703Y-64013772D01*
X154693853Y-63858900D01*
X154786985Y-63719519D01*
X154905519Y-63600985D01*
X155044900Y-63507853D01*
X155199772Y-63443703D01*
X155364184Y-63411000D01*
X155531816Y-63411000D01*
X155696228Y-63443703D01*
G37*
G36*
X148076228Y-63443703D02*
G01*
X148231100Y-63507853D01*
X148370481Y-63600985D01*
X148489015Y-63719519D01*
X148582147Y-63858900D01*
X148646297Y-64013772D01*
X148679000Y-64178184D01*
X148679000Y-64345816D01*
X148646297Y-64510228D01*
X148582147Y-64665100D01*
X148489015Y-64804481D01*
X148370481Y-64923015D01*
X148231100Y-65016147D01*
X148076228Y-65080297D01*
X147911816Y-65113000D01*
X147744184Y-65113000D01*
X147579772Y-65080297D01*
X147424900Y-65016147D01*
X147285519Y-64923015D01*
X147166985Y-64804481D01*
X147073853Y-64665100D01*
X147009703Y-64510228D01*
X146977000Y-64345816D01*
X146977000Y-64178184D01*
X147009703Y-64013772D01*
X147073853Y-63858900D01*
X147166985Y-63719519D01*
X147285519Y-63600985D01*
X147424900Y-63507853D01*
X147579772Y-63443703D01*
X147744184Y-63411000D01*
X147911816Y-63411000D01*
X148076228Y-63443703D01*
G37*
G36*
X158236228Y-63443703D02*
G01*
X158391100Y-63507853D01*
X158530481Y-63600985D01*
X158649015Y-63719519D01*
X158742147Y-63858900D01*
X158806297Y-64013772D01*
X158839000Y-64178184D01*
X158839000Y-64345816D01*
X158806297Y-64510228D01*
X158742147Y-64665100D01*
X158649015Y-64804481D01*
X158530481Y-64923015D01*
X158391100Y-65016147D01*
X158236228Y-65080297D01*
X158071816Y-65113000D01*
X157904184Y-65113000D01*
X157739772Y-65080297D01*
X157584900Y-65016147D01*
X157445519Y-64923015D01*
X157326985Y-64804481D01*
X157233853Y-64665100D01*
X157169703Y-64510228D01*
X157137000Y-64345816D01*
X157137000Y-64178184D01*
X157169703Y-64013772D01*
X157233853Y-63858900D01*
X157326985Y-63719519D01*
X157445519Y-63600985D01*
X157584900Y-63507853D01*
X157739772Y-63443703D01*
X157904184Y-63411000D01*
X158071816Y-63411000D01*
X158236228Y-63443703D01*
G37*
G36*
X132836228Y-63443703D02*
G01*
X132991100Y-63507853D01*
X133130481Y-63600985D01*
X133249015Y-63719519D01*
X133342147Y-63858900D01*
X133406297Y-64013772D01*
X133439000Y-64178184D01*
X133439000Y-64345816D01*
X133406297Y-64510228D01*
X133342147Y-64665100D01*
X133249015Y-64804481D01*
X133130481Y-64923015D01*
X132991100Y-65016147D01*
X132836228Y-65080297D01*
X132671816Y-65113000D01*
X132504184Y-65113000D01*
X132339772Y-65080297D01*
X132184900Y-65016147D01*
X132045519Y-64923015D01*
X131926985Y-64804481D01*
X131833853Y-64665100D01*
X131769703Y-64510228D01*
X131737000Y-64345816D01*
X131737000Y-64178184D01*
X131769703Y-64013772D01*
X131833853Y-63858900D01*
X131926985Y-63719519D01*
X132045519Y-63600985D01*
X132184900Y-63507853D01*
X132339772Y-63443703D01*
X132504184Y-63411000D01*
X132671816Y-63411000D01*
X132836228Y-63443703D01*
G37*
G36*
X160776228Y-63443703D02*
G01*
X160931100Y-63507853D01*
X161070481Y-63600985D01*
X161189015Y-63719519D01*
X161282147Y-63858900D01*
X161346297Y-64013772D01*
X161379000Y-64178184D01*
X161379000Y-64345816D01*
X161346297Y-64510228D01*
X161282147Y-64665100D01*
X161189015Y-64804481D01*
X161070481Y-64923015D01*
X160931100Y-65016147D01*
X160776228Y-65080297D01*
X160611816Y-65113000D01*
X160444184Y-65113000D01*
X160279772Y-65080297D01*
X160124900Y-65016147D01*
X159985519Y-64923015D01*
X159866985Y-64804481D01*
X159773853Y-64665100D01*
X159709703Y-64510228D01*
X159677000Y-64345816D01*
X159677000Y-64178184D01*
X159709703Y-64013772D01*
X159773853Y-63858900D01*
X159866985Y-63719519D01*
X159985519Y-63600985D01*
X160124900Y-63507853D01*
X160279772Y-63443703D01*
X160444184Y-63411000D01*
X160611816Y-63411000D01*
X160776228Y-63443703D01*
G37*
G36*
X145536228Y-63443703D02*
G01*
X145691100Y-63507853D01*
X145830481Y-63600985D01*
X145949015Y-63719519D01*
X146042147Y-63858900D01*
X146106297Y-64013772D01*
X146139000Y-64178184D01*
X146139000Y-64345816D01*
X146106297Y-64510228D01*
X146042147Y-64665100D01*
X145949015Y-64804481D01*
X145830481Y-64923015D01*
X145691100Y-65016147D01*
X145536228Y-65080297D01*
X145371816Y-65113000D01*
X145204184Y-65113000D01*
X145039772Y-65080297D01*
X144884900Y-65016147D01*
X144745519Y-64923015D01*
X144626985Y-64804481D01*
X144533853Y-64665100D01*
X144469703Y-64510228D01*
X144437000Y-64345816D01*
X144437000Y-64178184D01*
X144469703Y-64013772D01*
X144533853Y-63858900D01*
X144626985Y-63719519D01*
X144745519Y-63600985D01*
X144884900Y-63507853D01*
X145039772Y-63443703D01*
X145204184Y-63411000D01*
X145371816Y-63411000D01*
X145536228Y-63443703D01*
G37*
G36*
X163316228Y-63443703D02*
G01*
X163471100Y-63507853D01*
X163610481Y-63600985D01*
X163729015Y-63719519D01*
X163822147Y-63858900D01*
X163886297Y-64013772D01*
X163919000Y-64178184D01*
X163919000Y-64345816D01*
X163886297Y-64510228D01*
X163822147Y-64665100D01*
X163729015Y-64804481D01*
X163610481Y-64923015D01*
X163471100Y-65016147D01*
X163316228Y-65080297D01*
X163151816Y-65113000D01*
X162984184Y-65113000D01*
X162819772Y-65080297D01*
X162664900Y-65016147D01*
X162525519Y-64923015D01*
X162406985Y-64804481D01*
X162313853Y-64665100D01*
X162249703Y-64510228D01*
X162217000Y-64345816D01*
X162217000Y-64178184D01*
X162249703Y-64013772D01*
X162313853Y-63858900D01*
X162406985Y-63719519D01*
X162525519Y-63600985D01*
X162664900Y-63507853D01*
X162819772Y-63443703D01*
X162984184Y-63411000D01*
X163151816Y-63411000D01*
X163316228Y-63443703D01*
G37*
G36*
X153156228Y-63443703D02*
G01*
X153311100Y-63507853D01*
X153450481Y-63600985D01*
X153569015Y-63719519D01*
X153662147Y-63858900D01*
X153726297Y-64013772D01*
X153759000Y-64178184D01*
X153759000Y-64345816D01*
X153726297Y-64510228D01*
X153662147Y-64665100D01*
X153569015Y-64804481D01*
X153450481Y-64923015D01*
X153311100Y-65016147D01*
X153156228Y-65080297D01*
X152991816Y-65113000D01*
X152824184Y-65113000D01*
X152659772Y-65080297D01*
X152504900Y-65016147D01*
X152365519Y-64923015D01*
X152246985Y-64804481D01*
X152153853Y-64665100D01*
X152089703Y-64510228D01*
X152057000Y-64345816D01*
X152057000Y-64178184D01*
X152089703Y-64013772D01*
X152153853Y-63858900D01*
X152246985Y-63719519D01*
X152365519Y-63600985D01*
X152504900Y-63507853D01*
X152659772Y-63443703D01*
X152824184Y-63411000D01*
X152991816Y-63411000D01*
X153156228Y-63443703D01*
G37*
G36*
X165856228Y-63443703D02*
G01*
X166011100Y-63507853D01*
X166150481Y-63600985D01*
X166269015Y-63719519D01*
X166362147Y-63858900D01*
X166426297Y-64013772D01*
X166459000Y-64178184D01*
X166459000Y-64345816D01*
X166426297Y-64510228D01*
X166362147Y-64665100D01*
X166269015Y-64804481D01*
X166150481Y-64923015D01*
X166011100Y-65016147D01*
X165856228Y-65080297D01*
X165691816Y-65113000D01*
X165524184Y-65113000D01*
X165359772Y-65080297D01*
X165204900Y-65016147D01*
X165065519Y-64923015D01*
X164946985Y-64804481D01*
X164853853Y-64665100D01*
X164789703Y-64510228D01*
X164757000Y-64345816D01*
X164757000Y-64178184D01*
X164789703Y-64013772D01*
X164853853Y-63858900D01*
X164946985Y-63719519D01*
X165065519Y-63600985D01*
X165204900Y-63507853D01*
X165359772Y-63443703D01*
X165524184Y-63411000D01*
X165691816Y-63411000D01*
X165856228Y-63443703D01*
G37*
G36*
X135376228Y-63443703D02*
G01*
X135531100Y-63507853D01*
X135670481Y-63600985D01*
X135789015Y-63719519D01*
X135882147Y-63858900D01*
X135946297Y-64013772D01*
X135979000Y-64178184D01*
X135979000Y-64345816D01*
X135946297Y-64510228D01*
X135882147Y-64665100D01*
X135789015Y-64804481D01*
X135670481Y-64923015D01*
X135531100Y-65016147D01*
X135376228Y-65080297D01*
X135211816Y-65113000D01*
X135044184Y-65113000D01*
X134879772Y-65080297D01*
X134724900Y-65016147D01*
X134585519Y-64923015D01*
X134466985Y-64804481D01*
X134373853Y-64665100D01*
X134309703Y-64510228D01*
X134277000Y-64345816D01*
X134277000Y-64178184D01*
X134309703Y-64013772D01*
X134373853Y-63858900D01*
X134466985Y-63719519D01*
X134585519Y-63600985D01*
X134724900Y-63507853D01*
X134879772Y-63443703D01*
X135044184Y-63411000D01*
X135211816Y-63411000D01*
X135376228Y-63443703D01*
G37*
G36*
X150616228Y-63443703D02*
G01*
X150771100Y-63507853D01*
X150910481Y-63600985D01*
X151029015Y-63719519D01*
X151122147Y-63858900D01*
X151186297Y-64013772D01*
X151219000Y-64178184D01*
X151219000Y-64345816D01*
X151186297Y-64510228D01*
X151122147Y-64665100D01*
X151029015Y-64804481D01*
X150910481Y-64923015D01*
X150771100Y-65016147D01*
X150616228Y-65080297D01*
X150451816Y-65113000D01*
X150284184Y-65113000D01*
X150119772Y-65080297D01*
X149964900Y-65016147D01*
X149825519Y-64923015D01*
X149706985Y-64804481D01*
X149613853Y-64665100D01*
X149549703Y-64510228D01*
X149517000Y-64345816D01*
X149517000Y-64178184D01*
X149549703Y-64013772D01*
X149613853Y-63858900D01*
X149706985Y-63719519D01*
X149825519Y-63600985D01*
X149964900Y-63507853D01*
X150119772Y-63443703D01*
X150284184Y-63411000D01*
X150451816Y-63411000D01*
X150616228Y-63443703D01*
G37*
G36*
X137916228Y-63443703D02*
G01*
X138071100Y-63507853D01*
X138210481Y-63600985D01*
X138329015Y-63719519D01*
X138422147Y-63858900D01*
X138486297Y-64013772D01*
X138519000Y-64178184D01*
X138519000Y-64345816D01*
X138486297Y-64510228D01*
X138422147Y-64665100D01*
X138329015Y-64804481D01*
X138210481Y-64923015D01*
X138071100Y-65016147D01*
X137916228Y-65080297D01*
X137751816Y-65113000D01*
X137584184Y-65113000D01*
X137419772Y-65080297D01*
X137264900Y-65016147D01*
X137125519Y-64923015D01*
X137006985Y-64804481D01*
X136913853Y-64665100D01*
X136849703Y-64510228D01*
X136817000Y-64345816D01*
X136817000Y-64178184D01*
X136849703Y-64013772D01*
X136913853Y-63858900D01*
X137006985Y-63719519D01*
X137125519Y-63600985D01*
X137264900Y-63507853D01*
X137419772Y-63443703D01*
X137584184Y-63411000D01*
X137751816Y-63411000D01*
X137916228Y-63443703D01*
G37*
G36*
X140456228Y-63443703D02*
G01*
X140611100Y-63507853D01*
X140750481Y-63600985D01*
X140869015Y-63719519D01*
X140962147Y-63858900D01*
X141026297Y-64013772D01*
X141059000Y-64178184D01*
X141059000Y-64345816D01*
X141026297Y-64510228D01*
X140962147Y-64665100D01*
X140869015Y-64804481D01*
X140750481Y-64923015D01*
X140611100Y-65016147D01*
X140456228Y-65080297D01*
X140291816Y-65113000D01*
X140124184Y-65113000D01*
X139959772Y-65080297D01*
X139804900Y-65016147D01*
X139665519Y-64923015D01*
X139546985Y-64804481D01*
X139453853Y-64665100D01*
X139389703Y-64510228D01*
X139357000Y-64345816D01*
X139357000Y-64178184D01*
X139389703Y-64013772D01*
X139453853Y-63858900D01*
X139546985Y-63719519D01*
X139665519Y-63600985D01*
X139804900Y-63507853D01*
X139959772Y-63443703D01*
X140124184Y-63411000D01*
X140291816Y-63411000D01*
X140456228Y-63443703D01*
G37*
G36*
X142996228Y-63443703D02*
G01*
X143151100Y-63507853D01*
X143290481Y-63600985D01*
X143409015Y-63719519D01*
X143502147Y-63858900D01*
X143566297Y-64013772D01*
X143599000Y-64178184D01*
X143599000Y-64345816D01*
X143566297Y-64510228D01*
X143502147Y-64665100D01*
X143409015Y-64804481D01*
X143290481Y-64923015D01*
X143151100Y-65016147D01*
X142996228Y-65080297D01*
X142831816Y-65113000D01*
X142664184Y-65113000D01*
X142499772Y-65080297D01*
X142344900Y-65016147D01*
X142205519Y-64923015D01*
X142086985Y-64804481D01*
X141993853Y-64665100D01*
X141929703Y-64510228D01*
X141897000Y-64345816D01*
X141897000Y-64178184D01*
X141929703Y-64013772D01*
X141993853Y-63858900D01*
X142086985Y-63719519D01*
X142205519Y-63600985D01*
X142344900Y-63507853D01*
X142499772Y-63443703D01*
X142664184Y-63411000D01*
X142831816Y-63411000D01*
X142996228Y-63443703D01*
G37*
G36*
X176270228Y-60649703D02*
G01*
X176425100Y-60713853D01*
X176564481Y-60806985D01*
X176683015Y-60925519D01*
X176776147Y-61064900D01*
X176840297Y-61219772D01*
X176873000Y-61384184D01*
X176873000Y-61551816D01*
X176840297Y-61716228D01*
X176776147Y-61871100D01*
X176683015Y-62010481D01*
X176564481Y-62129015D01*
X176425100Y-62222147D01*
X176270228Y-62286297D01*
X176105816Y-62319000D01*
X175938184Y-62319000D01*
X175773772Y-62286297D01*
X175618900Y-62222147D01*
X175479519Y-62129015D01*
X175360985Y-62010481D01*
X175267853Y-61871100D01*
X175203703Y-61716228D01*
X175171000Y-61551816D01*
X175171000Y-61384184D01*
X175203703Y-61219772D01*
X175267853Y-61064900D01*
X175360985Y-60925519D01*
X175479519Y-60806985D01*
X175618900Y-60713853D01*
X175773772Y-60649703D01*
X175938184Y-60617000D01*
X176105816Y-60617000D01*
X176270228Y-60649703D01*
G37*
G36*
X186430228Y-60649703D02*
G01*
X186585100Y-60713853D01*
X186724481Y-60806985D01*
X186843015Y-60925519D01*
X186936147Y-61064900D01*
X187000297Y-61219772D01*
X187033000Y-61384184D01*
X187033000Y-61551816D01*
X187000297Y-61716228D01*
X186936147Y-61871100D01*
X186843015Y-62010481D01*
X186724481Y-62129015D01*
X186585100Y-62222147D01*
X186430228Y-62286297D01*
X186265816Y-62319000D01*
X186098184Y-62319000D01*
X185933772Y-62286297D01*
X185778900Y-62222147D01*
X185639519Y-62129015D01*
X185520985Y-62010481D01*
X185427853Y-61871100D01*
X185363703Y-61716228D01*
X185331000Y-61551816D01*
X185331000Y-61384184D01*
X185363703Y-61219772D01*
X185427853Y-61064900D01*
X185520985Y-60925519D01*
X185639519Y-60806985D01*
X185778900Y-60713853D01*
X185933772Y-60649703D01*
X186098184Y-60617000D01*
X186265816Y-60617000D01*
X186430228Y-60649703D01*
G37*
G36*
X178810228Y-60649703D02*
G01*
X178965100Y-60713853D01*
X179104481Y-60806985D01*
X179223015Y-60925519D01*
X179316147Y-61064900D01*
X179380297Y-61219772D01*
X179413000Y-61384184D01*
X179413000Y-61551816D01*
X179380297Y-61716228D01*
X179316147Y-61871100D01*
X179223015Y-62010481D01*
X179104481Y-62129015D01*
X178965100Y-62222147D01*
X178810228Y-62286297D01*
X178645816Y-62319000D01*
X178478184Y-62319000D01*
X178313772Y-62286297D01*
X178158900Y-62222147D01*
X178019519Y-62129015D01*
X177900985Y-62010481D01*
X177807853Y-61871100D01*
X177743703Y-61716228D01*
X177711000Y-61551816D01*
X177711000Y-61384184D01*
X177743703Y-61219772D01*
X177807853Y-61064900D01*
X177900985Y-60925519D01*
X178019519Y-60806985D01*
X178158900Y-60713853D01*
X178313772Y-60649703D01*
X178478184Y-60617000D01*
X178645816Y-60617000D01*
X178810228Y-60649703D01*
G37*
G36*
X173730228Y-60649703D02*
G01*
X173885100Y-60713853D01*
X174024481Y-60806985D01*
X174143015Y-60925519D01*
X174236147Y-61064900D01*
X174300297Y-61219772D01*
X174333000Y-61384184D01*
X174333000Y-61551816D01*
X174300297Y-61716228D01*
X174236147Y-61871100D01*
X174143015Y-62010481D01*
X174024481Y-62129015D01*
X173885100Y-62222147D01*
X173730228Y-62286297D01*
X173565816Y-62319000D01*
X173398184Y-62319000D01*
X173233772Y-62286297D01*
X173078900Y-62222147D01*
X172939519Y-62129015D01*
X172820985Y-62010481D01*
X172727853Y-61871100D01*
X172663703Y-61716228D01*
X172631000Y-61551816D01*
X172631000Y-61384184D01*
X172663703Y-61219772D01*
X172727853Y-61064900D01*
X172820985Y-60925519D01*
X172939519Y-60806985D01*
X173078900Y-60713853D01*
X173233772Y-60649703D01*
X173398184Y-60617000D01*
X173565816Y-60617000D01*
X173730228Y-60649703D01*
G37*
G36*
X171190228Y-60649703D02*
G01*
X171345100Y-60713853D01*
X171484481Y-60806985D01*
X171603015Y-60925519D01*
X171696147Y-61064900D01*
X171760297Y-61219772D01*
X171793000Y-61384184D01*
X171793000Y-61551816D01*
X171760297Y-61716228D01*
X171696147Y-61871100D01*
X171603015Y-62010481D01*
X171484481Y-62129015D01*
X171345100Y-62222147D01*
X171190228Y-62286297D01*
X171025816Y-62319000D01*
X170858184Y-62319000D01*
X170693772Y-62286297D01*
X170538900Y-62222147D01*
X170399519Y-62129015D01*
X170280985Y-62010481D01*
X170187853Y-61871100D01*
X170123703Y-61716228D01*
X170091000Y-61551816D01*
X170091000Y-61384184D01*
X170123703Y-61219772D01*
X170187853Y-61064900D01*
X170280985Y-60925519D01*
X170399519Y-60806985D01*
X170538900Y-60713853D01*
X170693772Y-60649703D01*
X170858184Y-60617000D01*
X171025816Y-60617000D01*
X171190228Y-60649703D01*
G37*
G36*
X183890228Y-60649703D02*
G01*
X184045100Y-60713853D01*
X184184481Y-60806985D01*
X184303015Y-60925519D01*
X184396147Y-61064900D01*
X184460297Y-61219772D01*
X184493000Y-61384184D01*
X184493000Y-61551816D01*
X184460297Y-61716228D01*
X184396147Y-61871100D01*
X184303015Y-62010481D01*
X184184481Y-62129015D01*
X184045100Y-62222147D01*
X183890228Y-62286297D01*
X183725816Y-62319000D01*
X183558184Y-62319000D01*
X183393772Y-62286297D01*
X183238900Y-62222147D01*
X183099519Y-62129015D01*
X182980985Y-62010481D01*
X182887853Y-61871100D01*
X182823703Y-61716228D01*
X182791000Y-61551816D01*
X182791000Y-61384184D01*
X182823703Y-61219772D01*
X182887853Y-61064900D01*
X182980985Y-60925519D01*
X183099519Y-60806985D01*
X183238900Y-60713853D01*
X183393772Y-60649703D01*
X183558184Y-60617000D01*
X183725816Y-60617000D01*
X183890228Y-60649703D01*
G37*
G36*
X181350228Y-60649703D02*
G01*
X181505100Y-60713853D01*
X181644481Y-60806985D01*
X181763015Y-60925519D01*
X181856147Y-61064900D01*
X181920297Y-61219772D01*
X181953000Y-61384184D01*
X181953000Y-61551816D01*
X181920297Y-61716228D01*
X181856147Y-61871100D01*
X181763015Y-62010481D01*
X181644481Y-62129015D01*
X181505100Y-62222147D01*
X181350228Y-62286297D01*
X181185816Y-62319000D01*
X181018184Y-62319000D01*
X180853772Y-62286297D01*
X180698900Y-62222147D01*
X180559519Y-62129015D01*
X180440985Y-62010481D01*
X180347853Y-61871100D01*
X180283703Y-61716228D01*
X180251000Y-61551816D01*
X180251000Y-61384184D01*
X180283703Y-61219772D01*
X180347853Y-61064900D01*
X180440985Y-60925519D01*
X180559519Y-60806985D01*
X180698900Y-60713853D01*
X180853772Y-60649703D01*
X181018184Y-60617000D01*
X181185816Y-60617000D01*
X181350228Y-60649703D01*
G37*
G36*
X137916228Y-60395703D02*
G01*
X138071100Y-60459853D01*
X138210481Y-60552985D01*
X138329015Y-60671519D01*
X138422147Y-60810900D01*
X138486297Y-60965772D01*
X138519000Y-61130184D01*
X138519000Y-61297816D01*
X138486297Y-61462228D01*
X138422147Y-61617100D01*
X138329015Y-61756481D01*
X138210481Y-61875015D01*
X138071100Y-61968147D01*
X137916228Y-62032297D01*
X137751816Y-62065000D01*
X137584184Y-62065000D01*
X137419772Y-62032297D01*
X137264900Y-61968147D01*
X137125519Y-61875015D01*
X137006985Y-61756481D01*
X136913853Y-61617100D01*
X136849703Y-61462228D01*
X136817000Y-61297816D01*
X136817000Y-61130184D01*
X136849703Y-60965772D01*
X136913853Y-60810900D01*
X137006985Y-60671519D01*
X137125519Y-60552985D01*
X137264900Y-60459853D01*
X137419772Y-60395703D01*
X137584184Y-60363000D01*
X137751816Y-60363000D01*
X137916228Y-60395703D01*
G37*
G36*
X140456228Y-60395703D02*
G01*
X140611100Y-60459853D01*
X140750481Y-60552985D01*
X140869015Y-60671519D01*
X140962147Y-60810900D01*
X141026297Y-60965772D01*
X141059000Y-61130184D01*
X141059000Y-61297816D01*
X141026297Y-61462228D01*
X140962147Y-61617100D01*
X140869015Y-61756481D01*
X140750481Y-61875015D01*
X140611100Y-61968147D01*
X140456228Y-62032297D01*
X140291816Y-62065000D01*
X140124184Y-62065000D01*
X139959772Y-62032297D01*
X139804900Y-61968147D01*
X139665519Y-61875015D01*
X139546985Y-61756481D01*
X139453853Y-61617100D01*
X139389703Y-61462228D01*
X139357000Y-61297816D01*
X139357000Y-61130184D01*
X139389703Y-60965772D01*
X139453853Y-60810900D01*
X139546985Y-60671519D01*
X139665519Y-60552985D01*
X139804900Y-60459853D01*
X139959772Y-60395703D01*
X140124184Y-60363000D01*
X140291816Y-60363000D01*
X140456228Y-60395703D01*
G37*
G36*
X142996228Y-60395703D02*
G01*
X143151100Y-60459853D01*
X143290481Y-60552985D01*
X143409015Y-60671519D01*
X143502147Y-60810900D01*
X143566297Y-60965772D01*
X143599000Y-61130184D01*
X143599000Y-61297816D01*
X143566297Y-61462228D01*
X143502147Y-61617100D01*
X143409015Y-61756481D01*
X143290481Y-61875015D01*
X143151100Y-61968147D01*
X142996228Y-62032297D01*
X142831816Y-62065000D01*
X142664184Y-62065000D01*
X142499772Y-62032297D01*
X142344900Y-61968147D01*
X142205519Y-61875015D01*
X142086985Y-61756481D01*
X141993853Y-61617100D01*
X141929703Y-61462228D01*
X141897000Y-61297816D01*
X141897000Y-61130184D01*
X141929703Y-60965772D01*
X141993853Y-60810900D01*
X142086985Y-60671519D01*
X142205519Y-60552985D01*
X142344900Y-60459853D01*
X142499772Y-60395703D01*
X142664184Y-60363000D01*
X142831816Y-60363000D01*
X142996228Y-60395703D01*
G37*
G36*
X145536228Y-60395703D02*
G01*
X145691100Y-60459853D01*
X145830481Y-60552985D01*
X145949015Y-60671519D01*
X146042147Y-60810900D01*
X146106297Y-60965772D01*
X146139000Y-61130184D01*
X146139000Y-61297816D01*
X146106297Y-61462228D01*
X146042147Y-61617100D01*
X145949015Y-61756481D01*
X145830481Y-61875015D01*
X145691100Y-61968147D01*
X145536228Y-62032297D01*
X145371816Y-62065000D01*
X145204184Y-62065000D01*
X145039772Y-62032297D01*
X144884900Y-61968147D01*
X144745519Y-61875015D01*
X144626985Y-61756481D01*
X144533853Y-61617100D01*
X144469703Y-61462228D01*
X144437000Y-61297816D01*
X144437000Y-61130184D01*
X144469703Y-60965772D01*
X144533853Y-60810900D01*
X144626985Y-60671519D01*
X144745519Y-60552985D01*
X144884900Y-60459853D01*
X145039772Y-60395703D01*
X145204184Y-60363000D01*
X145371816Y-60363000D01*
X145536228Y-60395703D01*
G37*
G36*
X148076228Y-60395703D02*
G01*
X148231100Y-60459853D01*
X148370481Y-60552985D01*
X148489015Y-60671519D01*
X148582147Y-60810900D01*
X148646297Y-60965772D01*
X148679000Y-61130184D01*
X148679000Y-61297816D01*
X148646297Y-61462228D01*
X148582147Y-61617100D01*
X148489015Y-61756481D01*
X148370481Y-61875015D01*
X148231100Y-61968147D01*
X148076228Y-62032297D01*
X147911816Y-62065000D01*
X147744184Y-62065000D01*
X147579772Y-62032297D01*
X147424900Y-61968147D01*
X147285519Y-61875015D01*
X147166985Y-61756481D01*
X147073853Y-61617100D01*
X147009703Y-61462228D01*
X146977000Y-61297816D01*
X146977000Y-61130184D01*
X147009703Y-60965772D01*
X147073853Y-60810900D01*
X147166985Y-60671519D01*
X147285519Y-60552985D01*
X147424900Y-60459853D01*
X147579772Y-60395703D01*
X147744184Y-60363000D01*
X147911816Y-60363000D01*
X148076228Y-60395703D01*
G37*
G36*
X135376228Y-60395703D02*
G01*
X135531100Y-60459853D01*
X135670481Y-60552985D01*
X135789015Y-60671519D01*
X135882147Y-60810900D01*
X135946297Y-60965772D01*
X135979000Y-61130184D01*
X135979000Y-61297816D01*
X135946297Y-61462228D01*
X135882147Y-61617100D01*
X135789015Y-61756481D01*
X135670481Y-61875015D01*
X135531100Y-61968147D01*
X135376228Y-62032297D01*
X135211816Y-62065000D01*
X135044184Y-62065000D01*
X134879772Y-62032297D01*
X134724900Y-61968147D01*
X134585519Y-61875015D01*
X134466985Y-61756481D01*
X134373853Y-61617100D01*
X134309703Y-61462228D01*
X134277000Y-61297816D01*
X134277000Y-61130184D01*
X134309703Y-60965772D01*
X134373853Y-60810900D01*
X134466985Y-60671519D01*
X134585519Y-60552985D01*
X134724900Y-60459853D01*
X134879772Y-60395703D01*
X135044184Y-60363000D01*
X135211816Y-60363000D01*
X135376228Y-60395703D01*
G37*
G36*
X133439000Y-62065000D02*
G01*
X131737000Y-62065000D01*
X131737000Y-60363000D01*
X133439000Y-60363000D01*
X133439000Y-62065000D01*
G37*
G36*
X171190228Y-58109703D02*
G01*
X171345100Y-58173853D01*
X171484481Y-58266985D01*
X171603015Y-58385519D01*
X171696147Y-58524900D01*
X171760297Y-58679772D01*
X171793000Y-58844184D01*
X171793000Y-59011816D01*
X171760297Y-59176228D01*
X171696147Y-59331100D01*
X171603015Y-59470481D01*
X171484481Y-59589015D01*
X171345100Y-59682147D01*
X171190228Y-59746297D01*
X171025816Y-59779000D01*
X170858184Y-59779000D01*
X170693772Y-59746297D01*
X170538900Y-59682147D01*
X170399519Y-59589015D01*
X170280985Y-59470481D01*
X170187853Y-59331100D01*
X170123703Y-59176228D01*
X170091000Y-59011816D01*
X170091000Y-58844184D01*
X170123703Y-58679772D01*
X170187853Y-58524900D01*
X170280985Y-58385519D01*
X170399519Y-58266985D01*
X170538900Y-58173853D01*
X170693772Y-58109703D01*
X170858184Y-58077000D01*
X171025816Y-58077000D01*
X171190228Y-58109703D01*
G37*
G36*
X166190228Y-58109703D02*
G01*
X166345100Y-58173853D01*
X166484481Y-58266985D01*
X166603015Y-58385519D01*
X166696147Y-58524900D01*
X166760297Y-58679772D01*
X166793000Y-58844184D01*
X166793000Y-59011816D01*
X166760297Y-59176228D01*
X166696147Y-59331100D01*
X166603015Y-59470481D01*
X166484481Y-59589015D01*
X166345100Y-59682147D01*
X166190228Y-59746297D01*
X166025816Y-59779000D01*
X165858184Y-59779000D01*
X165693772Y-59746297D01*
X165538900Y-59682147D01*
X165399519Y-59589015D01*
X165280985Y-59470481D01*
X165187853Y-59331100D01*
X165123703Y-59176228D01*
X165091000Y-59011816D01*
X165091000Y-58844184D01*
X165123703Y-58679772D01*
X165187853Y-58524900D01*
X165280985Y-58385519D01*
X165399519Y-58266985D01*
X165538900Y-58173853D01*
X165693772Y-58109703D01*
X165858184Y-58077000D01*
X166025816Y-58077000D01*
X166190228Y-58109703D01*
G37*
G36*
X148076228Y-52775703D02*
G01*
X148231100Y-52839853D01*
X148370481Y-52932985D01*
X148489015Y-53051519D01*
X148582147Y-53190900D01*
X148646297Y-53345772D01*
X148679000Y-53510184D01*
X148679000Y-53677816D01*
X148646297Y-53842228D01*
X148582147Y-53997100D01*
X148489015Y-54136481D01*
X148370481Y-54255015D01*
X148231100Y-54348147D01*
X148076228Y-54412297D01*
X147911816Y-54445000D01*
X147744184Y-54445000D01*
X147579772Y-54412297D01*
X147424900Y-54348147D01*
X147285519Y-54255015D01*
X147166985Y-54136481D01*
X147073853Y-53997100D01*
X147009703Y-53842228D01*
X146977000Y-53677816D01*
X146977000Y-53510184D01*
X147009703Y-53345772D01*
X147073853Y-53190900D01*
X147166985Y-53051519D01*
X147285519Y-52932985D01*
X147424900Y-52839853D01*
X147579772Y-52775703D01*
X147744184Y-52743000D01*
X147911816Y-52743000D01*
X148076228Y-52775703D01*
G37*
G36*
X145536228Y-52775703D02*
G01*
X145691100Y-52839853D01*
X145830481Y-52932985D01*
X145949015Y-53051519D01*
X146042147Y-53190900D01*
X146106297Y-53345772D01*
X146139000Y-53510184D01*
X146139000Y-53677816D01*
X146106297Y-53842228D01*
X146042147Y-53997100D01*
X145949015Y-54136481D01*
X145830481Y-54255015D01*
X145691100Y-54348147D01*
X145536228Y-54412297D01*
X145371816Y-54445000D01*
X145204184Y-54445000D01*
X145039772Y-54412297D01*
X144884900Y-54348147D01*
X144745519Y-54255015D01*
X144626985Y-54136481D01*
X144533853Y-53997100D01*
X144469703Y-53842228D01*
X144437000Y-53677816D01*
X144437000Y-53510184D01*
X144469703Y-53345772D01*
X144533853Y-53190900D01*
X144626985Y-53051519D01*
X144745519Y-52932985D01*
X144884900Y-52839853D01*
X145039772Y-52775703D01*
X145204184Y-52743000D01*
X145371816Y-52743000D01*
X145536228Y-52775703D01*
G37*
G36*
X142996228Y-52775703D02*
G01*
X143151100Y-52839853D01*
X143290481Y-52932985D01*
X143409015Y-53051519D01*
X143502147Y-53190900D01*
X143566297Y-53345772D01*
X143599000Y-53510184D01*
X143599000Y-53677816D01*
X143566297Y-53842228D01*
X143502147Y-53997100D01*
X143409015Y-54136481D01*
X143290481Y-54255015D01*
X143151100Y-54348147D01*
X142996228Y-54412297D01*
X142831816Y-54445000D01*
X142664184Y-54445000D01*
X142499772Y-54412297D01*
X142344900Y-54348147D01*
X142205519Y-54255015D01*
X142086985Y-54136481D01*
X141993853Y-53997100D01*
X141929703Y-53842228D01*
X141897000Y-53677816D01*
X141897000Y-53510184D01*
X141929703Y-53345772D01*
X141993853Y-53190900D01*
X142086985Y-53051519D01*
X142205519Y-52932985D01*
X142344900Y-52839853D01*
X142499772Y-52775703D01*
X142664184Y-52743000D01*
X142831816Y-52743000D01*
X142996228Y-52775703D01*
G37*
G36*
X140456228Y-52775703D02*
G01*
X140611100Y-52839853D01*
X140750481Y-52932985D01*
X140869015Y-53051519D01*
X140962147Y-53190900D01*
X141026297Y-53345772D01*
X141059000Y-53510184D01*
X141059000Y-53677816D01*
X141026297Y-53842228D01*
X140962147Y-53997100D01*
X140869015Y-54136481D01*
X140750481Y-54255015D01*
X140611100Y-54348147D01*
X140456228Y-54412297D01*
X140291816Y-54445000D01*
X140124184Y-54445000D01*
X139959772Y-54412297D01*
X139804900Y-54348147D01*
X139665519Y-54255015D01*
X139546985Y-54136481D01*
X139453853Y-53997100D01*
X139389703Y-53842228D01*
X139357000Y-53677816D01*
X139357000Y-53510184D01*
X139389703Y-53345772D01*
X139453853Y-53190900D01*
X139546985Y-53051519D01*
X139665519Y-52932985D01*
X139804900Y-52839853D01*
X139959772Y-52775703D01*
X140124184Y-52743000D01*
X140291816Y-52743000D01*
X140456228Y-52775703D01*
G37*
G36*
X137916228Y-52775703D02*
G01*
X138071100Y-52839853D01*
X138210481Y-52932985D01*
X138329015Y-53051519D01*
X138422147Y-53190900D01*
X138486297Y-53345772D01*
X138519000Y-53510184D01*
X138519000Y-53677816D01*
X138486297Y-53842228D01*
X138422147Y-53997100D01*
X138329015Y-54136481D01*
X138210481Y-54255015D01*
X138071100Y-54348147D01*
X137916228Y-54412297D01*
X137751816Y-54445000D01*
X137584184Y-54445000D01*
X137419772Y-54412297D01*
X137264900Y-54348147D01*
X137125519Y-54255015D01*
X137006985Y-54136481D01*
X136913853Y-53997100D01*
X136849703Y-53842228D01*
X136817000Y-53677816D01*
X136817000Y-53510184D01*
X136849703Y-53345772D01*
X136913853Y-53190900D01*
X137006985Y-53051519D01*
X137125519Y-52932985D01*
X137264900Y-52839853D01*
X137419772Y-52775703D01*
X137584184Y-52743000D01*
X137751816Y-52743000D01*
X137916228Y-52775703D01*
G37*
G36*
X135376228Y-52775703D02*
G01*
X135531100Y-52839853D01*
X135670481Y-52932985D01*
X135789015Y-53051519D01*
X135882147Y-53190900D01*
X135946297Y-53345772D01*
X135979000Y-53510184D01*
X135979000Y-53677816D01*
X135946297Y-53842228D01*
X135882147Y-53997100D01*
X135789015Y-54136481D01*
X135670481Y-54255015D01*
X135531100Y-54348147D01*
X135376228Y-54412297D01*
X135211816Y-54445000D01*
X135044184Y-54445000D01*
X134879772Y-54412297D01*
X134724900Y-54348147D01*
X134585519Y-54255015D01*
X134466985Y-54136481D01*
X134373853Y-53997100D01*
X134309703Y-53842228D01*
X134277000Y-53677816D01*
X134277000Y-53510184D01*
X134309703Y-53345772D01*
X134373853Y-53190900D01*
X134466985Y-53051519D01*
X134585519Y-52932985D01*
X134724900Y-52839853D01*
X134879772Y-52775703D01*
X135044184Y-52743000D01*
X135211816Y-52743000D01*
X135376228Y-52775703D01*
G37*
G36*
X132836228Y-52775703D02*
G01*
X132991100Y-52839853D01*
X133130481Y-52932985D01*
X133249015Y-53051519D01*
X133342147Y-53190900D01*
X133406297Y-53345772D01*
X133439000Y-53510184D01*
X133439000Y-53677816D01*
X133406297Y-53842228D01*
X133342147Y-53997100D01*
X133249015Y-54136481D01*
X133130481Y-54255015D01*
X132991100Y-54348147D01*
X132836228Y-54412297D01*
X132671816Y-54445000D01*
X132504184Y-54445000D01*
X132339772Y-54412297D01*
X132184900Y-54348147D01*
X132045519Y-54255015D01*
X131926985Y-54136481D01*
X131833853Y-53997100D01*
X131769703Y-53842228D01*
X131737000Y-53677816D01*
X131737000Y-53510184D01*
X131769703Y-53345772D01*
X131833853Y-53190900D01*
X131926985Y-53051519D01*
X132045519Y-52932985D01*
X132184900Y-52839853D01*
X132339772Y-52775703D01*
X132504184Y-52743000D01*
X132671816Y-52743000D01*
X132836228Y-52775703D01*
G37*
G36*
X184140903Y-50359075D02*
G01*
X184368571Y-50453378D01*
X184573466Y-50590285D01*
X184747715Y-50764534D01*
X184747716Y-50764536D01*
X184884623Y-50969431D01*
X184978925Y-51197097D01*
X185007844Y-51342480D01*
X185027000Y-51438787D01*
X185027000Y-51685213D01*
X184978925Y-51926903D01*
X184884622Y-52154571D01*
X184747715Y-52359466D01*
X184573466Y-52533715D01*
X184368571Y-52670622D01*
X184368570Y-52670623D01*
X184368569Y-52670623D01*
X184140903Y-52764925D01*
X183899214Y-52813000D01*
X183652786Y-52813000D01*
X183411097Y-52764925D01*
X183183431Y-52670623D01*
X183183430Y-52670623D01*
X183183429Y-52670622D01*
X182978534Y-52533715D01*
X182804285Y-52359466D01*
X182667378Y-52154571D01*
X182573075Y-51926903D01*
X182525000Y-51685213D01*
X182525000Y-51438787D01*
X182544157Y-51342480D01*
X182573075Y-51197097D01*
X182667377Y-50969431D01*
X182804284Y-50764536D01*
X182804285Y-50764534D01*
X182978534Y-50590285D01*
X183183429Y-50453378D01*
X183411097Y-50359075D01*
X183652786Y-50311000D01*
X183899214Y-50311000D01*
X184140903Y-50359075D01*
G37*
G36*
X177527000Y-52813000D02*
G01*
X175025000Y-52813000D01*
X175025000Y-50311000D01*
X177527000Y-50311000D01*
X177527000Y-52813000D01*
G37*
G36*
X137836228Y-49981703D02*
G01*
X137991100Y-50045853D01*
X138130481Y-50138985D01*
X138249015Y-50257519D01*
X138342147Y-50396900D01*
X138406297Y-50551772D01*
X138439000Y-50716184D01*
X138439000Y-50883816D01*
X138406297Y-51048228D01*
X138342147Y-51203100D01*
X138249015Y-51342481D01*
X138130481Y-51461015D01*
X137991100Y-51554147D01*
X137836228Y-51618297D01*
X137671816Y-51651000D01*
X137504184Y-51651000D01*
X137339772Y-51618297D01*
X137184900Y-51554147D01*
X137045519Y-51461015D01*
X136926985Y-51342481D01*
X136833853Y-51203100D01*
X136769703Y-51048228D01*
X136737000Y-50883816D01*
X136737000Y-50716184D01*
X136769703Y-50551772D01*
X136833853Y-50396900D01*
X136926985Y-50257519D01*
X137045519Y-50138985D01*
X137184900Y-50045853D01*
X137339772Y-49981703D01*
X137504184Y-49949000D01*
X137671816Y-49949000D01*
X137836228Y-49981703D01*
G37*
G36*
X132836228Y-49981703D02*
G01*
X132991100Y-50045853D01*
X133130481Y-50138985D01*
X133249015Y-50257519D01*
X133342147Y-50396900D01*
X133406297Y-50551772D01*
X133439000Y-50716184D01*
X133439000Y-50883816D01*
X133406297Y-51048228D01*
X133342147Y-51203100D01*
X133249015Y-51342481D01*
X133130481Y-51461015D01*
X132991100Y-51554147D01*
X132836228Y-51618297D01*
X132671816Y-51651000D01*
X132504184Y-51651000D01*
X132339772Y-51618297D01*
X132184900Y-51554147D01*
X132045519Y-51461015D01*
X131926985Y-51342481D01*
X131833853Y-51203100D01*
X131769703Y-51048228D01*
X131737000Y-50883816D01*
X131737000Y-50716184D01*
X131769703Y-50551772D01*
X131833853Y-50396900D01*
X131926985Y-50257519D01*
X132045519Y-50138985D01*
X132184900Y-50045853D01*
X132339772Y-49981703D01*
X132504184Y-49949000D01*
X132671816Y-49949000D01*
X132836228Y-49981703D01*
G37*
G36*
X143123256Y-44365298D02*
G01*
X143229579Y-44386447D01*
X143530042Y-44510903D01*
X143800451Y-44691585D01*
X144030415Y-44921549D01*
X144211097Y-45191958D01*
X144335553Y-45492421D01*
X144399000Y-45811391D01*
X144399000Y-46136609D01*
X144335553Y-46455579D01*
X144211097Y-46756042D01*
X144030415Y-47026451D01*
X143800451Y-47256415D01*
X143530042Y-47437097D01*
X143229579Y-47561553D01*
X143123256Y-47582702D01*
X142910611Y-47625000D01*
X142585389Y-47625000D01*
X142372744Y-47582702D01*
X142266421Y-47561553D01*
X141965958Y-47437097D01*
X141695549Y-47256415D01*
X141465585Y-47026451D01*
X141284903Y-46756042D01*
X141160447Y-46455579D01*
X141097000Y-46136609D01*
X141097000Y-45811391D01*
X141160447Y-45492421D01*
X141284903Y-45191958D01*
X141465585Y-44921549D01*
X141695549Y-44691585D01*
X141965958Y-44510903D01*
X142266421Y-44386447D01*
X142372744Y-44365298D01*
X142585389Y-44323000D01*
X142910611Y-44323000D01*
X143123256Y-44365298D01*
G37*
G36*
X171063256Y-44365298D02*
G01*
X171169579Y-44386447D01*
X171470042Y-44510903D01*
X171740451Y-44691585D01*
X171970415Y-44921549D01*
X172151097Y-45191958D01*
X172275553Y-45492421D01*
X172339000Y-45811391D01*
X172339000Y-46136609D01*
X172275553Y-46455579D01*
X172151097Y-46756042D01*
X171970415Y-47026451D01*
X171740451Y-47256415D01*
X171470042Y-47437097D01*
X171169579Y-47561553D01*
X171063256Y-47582702D01*
X170850611Y-47625000D01*
X170525389Y-47625000D01*
X170312744Y-47582702D01*
X170206421Y-47561553D01*
X169905958Y-47437097D01*
X169635549Y-47256415D01*
X169405585Y-47026451D01*
X169224903Y-46756042D01*
X169100447Y-46455579D01*
X169037000Y-46136609D01*
X169037000Y-45811391D01*
X169100447Y-45492421D01*
X169224903Y-45191958D01*
X169405585Y-44921549D01*
X169635549Y-44691585D01*
X169905958Y-44510903D01*
X170206421Y-44386447D01*
X170312744Y-44365298D01*
X170525389Y-44323000D01*
X170850611Y-44323000D01*
X171063256Y-44365298D01*
G37*
M02*
