G04 #@! TF.GenerationSoftware,KiCad,Pcbnew,(5.1.5-0)*
G04 #@! TF.CreationDate,2022-08-09T08:10:04-04:00*
G04 #@! TF.ProjectId,breakout_board,62726561-6b6f-4757-945f-626f6172642e,rev?*
G04 #@! TF.SameCoordinates,Original*
G04 #@! TF.FileFunction,Soldermask,Top*
G04 #@! TF.FilePolarity,Negative*
%FSLAX46Y46*%
G04 Gerber Fmt 4.6, Leading zero omitted, Abs format (unit mm)*
G04 Created by KiCad (PCBNEW (5.1.5-0)) date 2022-08-09 08:10:04*
%MOMM*%
%LPD*%
G04 APERTURE LIST*
%ADD10C,0.100000*%
G04 APERTURE END LIST*
D10*
G36*
X186652100Y-117043400D02*
G01*
X185280100Y-117043400D01*
X185280100Y-111861400D01*
X186652100Y-111861400D01*
X186652100Y-117043400D01*
G37*
G36*
X184112100Y-117043400D02*
G01*
X182740100Y-117043400D01*
X182740100Y-111861400D01*
X184112100Y-111861400D01*
X184112100Y-117043400D01*
G37*
G36*
X181572100Y-117043400D02*
G01*
X180200100Y-117043400D01*
X180200100Y-111861400D01*
X181572100Y-111861400D01*
X181572100Y-117043400D01*
G37*
G36*
X179032100Y-117043400D02*
G01*
X177660100Y-117043400D01*
X177660100Y-111861400D01*
X179032100Y-111861400D01*
X179032100Y-117043400D01*
G37*
G36*
X176492100Y-117043400D02*
G01*
X175120100Y-117043400D01*
X175120100Y-111861400D01*
X176492100Y-111861400D01*
X176492100Y-117043400D01*
G37*
G36*
X173952100Y-117043400D02*
G01*
X172580100Y-117043400D01*
X172580100Y-111861400D01*
X173952100Y-111861400D01*
X173952100Y-117043400D01*
G37*
G36*
X171412100Y-117043400D02*
G01*
X170040100Y-117043400D01*
X170040100Y-111861400D01*
X171412100Y-111861400D01*
X171412100Y-117043400D01*
G37*
G36*
X168872100Y-117043400D02*
G01*
X167500100Y-117043400D01*
X167500100Y-111861400D01*
X168872100Y-111861400D01*
X168872100Y-117043400D01*
G37*
G36*
X166332100Y-117043400D02*
G01*
X164960100Y-117043400D01*
X164960100Y-111861400D01*
X166332100Y-111861400D01*
X166332100Y-117043400D01*
G37*
G36*
X163792100Y-117043400D02*
G01*
X162420100Y-117043400D01*
X162420100Y-111861400D01*
X163792100Y-111861400D01*
X163792100Y-117043400D01*
G37*
G36*
X161252100Y-117043400D02*
G01*
X159880100Y-117043400D01*
X159880100Y-111861400D01*
X161252100Y-111861400D01*
X161252100Y-117043400D01*
G37*
G36*
X158712100Y-117043400D02*
G01*
X157340100Y-117043400D01*
X157340100Y-111861400D01*
X158712100Y-111861400D01*
X158712100Y-117043400D01*
G37*
G36*
X156172100Y-117043400D02*
G01*
X154800100Y-117043400D01*
X154800100Y-111861400D01*
X156172100Y-111861400D01*
X156172100Y-117043400D01*
G37*
G36*
X153632100Y-117043400D02*
G01*
X152260100Y-117043400D01*
X152260100Y-111861400D01*
X153632100Y-111861400D01*
X153632100Y-117043400D01*
G37*
G36*
X151092100Y-117043400D02*
G01*
X149720100Y-117043400D01*
X149720100Y-111861400D01*
X151092100Y-111861400D01*
X151092100Y-117043400D01*
G37*
G36*
X148552100Y-117043400D02*
G01*
X147180100Y-117043400D01*
X147180100Y-111861400D01*
X148552100Y-111861400D01*
X148552100Y-117043400D01*
G37*
G36*
X146012100Y-117043400D02*
G01*
X144640100Y-117043400D01*
X144640100Y-111861400D01*
X146012100Y-111861400D01*
X146012100Y-117043400D01*
G37*
G36*
X143472100Y-117043400D02*
G01*
X142100100Y-117043400D01*
X142100100Y-111861400D01*
X143472100Y-111861400D01*
X143472100Y-117043400D01*
G37*
G36*
X140932100Y-117043400D02*
G01*
X139560100Y-117043400D01*
X139560100Y-111861400D01*
X140932100Y-111861400D01*
X140932100Y-117043400D01*
G37*
G36*
X138392100Y-117043400D02*
G01*
X137020100Y-117043400D01*
X137020100Y-111861400D01*
X138392100Y-111861400D01*
X138392100Y-117043400D01*
G37*
G36*
X135852100Y-117043400D02*
G01*
X134480100Y-117043400D01*
X134480100Y-111861400D01*
X135852100Y-111861400D01*
X135852100Y-117043400D01*
G37*
G36*
X133312100Y-117043400D02*
G01*
X131940100Y-117043400D01*
X131940100Y-111861400D01*
X133312100Y-111861400D01*
X133312100Y-117043400D01*
G37*
G36*
X186041512Y-90289927D02*
G01*
X186190812Y-90319624D01*
X186354784Y-90387544D01*
X186502354Y-90486147D01*
X186627853Y-90611646D01*
X186726456Y-90759216D01*
X186794376Y-90923188D01*
X186829000Y-91097259D01*
X186829000Y-91274741D01*
X186794376Y-91448812D01*
X186726456Y-91612784D01*
X186627853Y-91760354D01*
X186502354Y-91885853D01*
X186354784Y-91984456D01*
X186190812Y-92052376D01*
X186041512Y-92082073D01*
X186016742Y-92087000D01*
X185839258Y-92087000D01*
X185814488Y-92082073D01*
X185665188Y-92052376D01*
X185501216Y-91984456D01*
X185353646Y-91885853D01*
X185228147Y-91760354D01*
X185129544Y-91612784D01*
X185061624Y-91448812D01*
X185027000Y-91274741D01*
X185027000Y-91097259D01*
X185061624Y-90923188D01*
X185129544Y-90759216D01*
X185228147Y-90611646D01*
X185353646Y-90486147D01*
X185501216Y-90387544D01*
X185665188Y-90319624D01*
X185814488Y-90289927D01*
X185839258Y-90285000D01*
X186016742Y-90285000D01*
X186041512Y-90289927D01*
G37*
G36*
X132701512Y-90289927D02*
G01*
X132850812Y-90319624D01*
X133014784Y-90387544D01*
X133162354Y-90486147D01*
X133287853Y-90611646D01*
X133386456Y-90759216D01*
X133454376Y-90923188D01*
X133489000Y-91097259D01*
X133489000Y-91274741D01*
X133454376Y-91448812D01*
X133386456Y-91612784D01*
X133287853Y-91760354D01*
X133162354Y-91885853D01*
X133014784Y-91984456D01*
X132850812Y-92052376D01*
X132701512Y-92082073D01*
X132676742Y-92087000D01*
X132499258Y-92087000D01*
X132474488Y-92082073D01*
X132325188Y-92052376D01*
X132161216Y-91984456D01*
X132013646Y-91885853D01*
X131888147Y-91760354D01*
X131789544Y-91612784D01*
X131721624Y-91448812D01*
X131687000Y-91274741D01*
X131687000Y-91097259D01*
X131721624Y-90923188D01*
X131789544Y-90759216D01*
X131888147Y-90611646D01*
X132013646Y-90486147D01*
X132161216Y-90387544D01*
X132325188Y-90319624D01*
X132474488Y-90289927D01*
X132499258Y-90285000D01*
X132676742Y-90285000D01*
X132701512Y-90289927D01*
G37*
G36*
X135241512Y-90289927D02*
G01*
X135390812Y-90319624D01*
X135554784Y-90387544D01*
X135702354Y-90486147D01*
X135827853Y-90611646D01*
X135926456Y-90759216D01*
X135994376Y-90923188D01*
X136029000Y-91097259D01*
X136029000Y-91274741D01*
X135994376Y-91448812D01*
X135926456Y-91612784D01*
X135827853Y-91760354D01*
X135702354Y-91885853D01*
X135554784Y-91984456D01*
X135390812Y-92052376D01*
X135241512Y-92082073D01*
X135216742Y-92087000D01*
X135039258Y-92087000D01*
X135014488Y-92082073D01*
X134865188Y-92052376D01*
X134701216Y-91984456D01*
X134553646Y-91885853D01*
X134428147Y-91760354D01*
X134329544Y-91612784D01*
X134261624Y-91448812D01*
X134227000Y-91274741D01*
X134227000Y-91097259D01*
X134261624Y-90923188D01*
X134329544Y-90759216D01*
X134428147Y-90611646D01*
X134553646Y-90486147D01*
X134701216Y-90387544D01*
X134865188Y-90319624D01*
X135014488Y-90289927D01*
X135039258Y-90285000D01*
X135216742Y-90285000D01*
X135241512Y-90289927D01*
G37*
G36*
X137781512Y-90289927D02*
G01*
X137930812Y-90319624D01*
X138094784Y-90387544D01*
X138242354Y-90486147D01*
X138367853Y-90611646D01*
X138466456Y-90759216D01*
X138534376Y-90923188D01*
X138569000Y-91097259D01*
X138569000Y-91274741D01*
X138534376Y-91448812D01*
X138466456Y-91612784D01*
X138367853Y-91760354D01*
X138242354Y-91885853D01*
X138094784Y-91984456D01*
X137930812Y-92052376D01*
X137781512Y-92082073D01*
X137756742Y-92087000D01*
X137579258Y-92087000D01*
X137554488Y-92082073D01*
X137405188Y-92052376D01*
X137241216Y-91984456D01*
X137093646Y-91885853D01*
X136968147Y-91760354D01*
X136869544Y-91612784D01*
X136801624Y-91448812D01*
X136767000Y-91274741D01*
X136767000Y-91097259D01*
X136801624Y-90923188D01*
X136869544Y-90759216D01*
X136968147Y-90611646D01*
X137093646Y-90486147D01*
X137241216Y-90387544D01*
X137405188Y-90319624D01*
X137554488Y-90289927D01*
X137579258Y-90285000D01*
X137756742Y-90285000D01*
X137781512Y-90289927D01*
G37*
G36*
X140321512Y-90289927D02*
G01*
X140470812Y-90319624D01*
X140634784Y-90387544D01*
X140782354Y-90486147D01*
X140907853Y-90611646D01*
X141006456Y-90759216D01*
X141074376Y-90923188D01*
X141109000Y-91097259D01*
X141109000Y-91274741D01*
X141074376Y-91448812D01*
X141006456Y-91612784D01*
X140907853Y-91760354D01*
X140782354Y-91885853D01*
X140634784Y-91984456D01*
X140470812Y-92052376D01*
X140321512Y-92082073D01*
X140296742Y-92087000D01*
X140119258Y-92087000D01*
X140094488Y-92082073D01*
X139945188Y-92052376D01*
X139781216Y-91984456D01*
X139633646Y-91885853D01*
X139508147Y-91760354D01*
X139409544Y-91612784D01*
X139341624Y-91448812D01*
X139307000Y-91274741D01*
X139307000Y-91097259D01*
X139341624Y-90923188D01*
X139409544Y-90759216D01*
X139508147Y-90611646D01*
X139633646Y-90486147D01*
X139781216Y-90387544D01*
X139945188Y-90319624D01*
X140094488Y-90289927D01*
X140119258Y-90285000D01*
X140296742Y-90285000D01*
X140321512Y-90289927D01*
G37*
G36*
X142861512Y-90289927D02*
G01*
X143010812Y-90319624D01*
X143174784Y-90387544D01*
X143322354Y-90486147D01*
X143447853Y-90611646D01*
X143546456Y-90759216D01*
X143614376Y-90923188D01*
X143649000Y-91097259D01*
X143649000Y-91274741D01*
X143614376Y-91448812D01*
X143546456Y-91612784D01*
X143447853Y-91760354D01*
X143322354Y-91885853D01*
X143174784Y-91984456D01*
X143010812Y-92052376D01*
X142861512Y-92082073D01*
X142836742Y-92087000D01*
X142659258Y-92087000D01*
X142634488Y-92082073D01*
X142485188Y-92052376D01*
X142321216Y-91984456D01*
X142173646Y-91885853D01*
X142048147Y-91760354D01*
X141949544Y-91612784D01*
X141881624Y-91448812D01*
X141847000Y-91274741D01*
X141847000Y-91097259D01*
X141881624Y-90923188D01*
X141949544Y-90759216D01*
X142048147Y-90611646D01*
X142173646Y-90486147D01*
X142321216Y-90387544D01*
X142485188Y-90319624D01*
X142634488Y-90289927D01*
X142659258Y-90285000D01*
X142836742Y-90285000D01*
X142861512Y-90289927D01*
G37*
G36*
X145401512Y-90289927D02*
G01*
X145550812Y-90319624D01*
X145714784Y-90387544D01*
X145862354Y-90486147D01*
X145987853Y-90611646D01*
X146086456Y-90759216D01*
X146154376Y-90923188D01*
X146189000Y-91097259D01*
X146189000Y-91274741D01*
X146154376Y-91448812D01*
X146086456Y-91612784D01*
X145987853Y-91760354D01*
X145862354Y-91885853D01*
X145714784Y-91984456D01*
X145550812Y-92052376D01*
X145401512Y-92082073D01*
X145376742Y-92087000D01*
X145199258Y-92087000D01*
X145174488Y-92082073D01*
X145025188Y-92052376D01*
X144861216Y-91984456D01*
X144713646Y-91885853D01*
X144588147Y-91760354D01*
X144489544Y-91612784D01*
X144421624Y-91448812D01*
X144387000Y-91274741D01*
X144387000Y-91097259D01*
X144421624Y-90923188D01*
X144489544Y-90759216D01*
X144588147Y-90611646D01*
X144713646Y-90486147D01*
X144861216Y-90387544D01*
X145025188Y-90319624D01*
X145174488Y-90289927D01*
X145199258Y-90285000D01*
X145376742Y-90285000D01*
X145401512Y-90289927D01*
G37*
G36*
X147941512Y-90289927D02*
G01*
X148090812Y-90319624D01*
X148254784Y-90387544D01*
X148402354Y-90486147D01*
X148527853Y-90611646D01*
X148626456Y-90759216D01*
X148694376Y-90923188D01*
X148729000Y-91097259D01*
X148729000Y-91274741D01*
X148694376Y-91448812D01*
X148626456Y-91612784D01*
X148527853Y-91760354D01*
X148402354Y-91885853D01*
X148254784Y-91984456D01*
X148090812Y-92052376D01*
X147941512Y-92082073D01*
X147916742Y-92087000D01*
X147739258Y-92087000D01*
X147714488Y-92082073D01*
X147565188Y-92052376D01*
X147401216Y-91984456D01*
X147253646Y-91885853D01*
X147128147Y-91760354D01*
X147029544Y-91612784D01*
X146961624Y-91448812D01*
X146927000Y-91274741D01*
X146927000Y-91097259D01*
X146961624Y-90923188D01*
X147029544Y-90759216D01*
X147128147Y-90611646D01*
X147253646Y-90486147D01*
X147401216Y-90387544D01*
X147565188Y-90319624D01*
X147714488Y-90289927D01*
X147739258Y-90285000D01*
X147916742Y-90285000D01*
X147941512Y-90289927D01*
G37*
G36*
X150481512Y-90289927D02*
G01*
X150630812Y-90319624D01*
X150794784Y-90387544D01*
X150942354Y-90486147D01*
X151067853Y-90611646D01*
X151166456Y-90759216D01*
X151234376Y-90923188D01*
X151269000Y-91097259D01*
X151269000Y-91274741D01*
X151234376Y-91448812D01*
X151166456Y-91612784D01*
X151067853Y-91760354D01*
X150942354Y-91885853D01*
X150794784Y-91984456D01*
X150630812Y-92052376D01*
X150481512Y-92082073D01*
X150456742Y-92087000D01*
X150279258Y-92087000D01*
X150254488Y-92082073D01*
X150105188Y-92052376D01*
X149941216Y-91984456D01*
X149793646Y-91885853D01*
X149668147Y-91760354D01*
X149569544Y-91612784D01*
X149501624Y-91448812D01*
X149467000Y-91274741D01*
X149467000Y-91097259D01*
X149501624Y-90923188D01*
X149569544Y-90759216D01*
X149668147Y-90611646D01*
X149793646Y-90486147D01*
X149941216Y-90387544D01*
X150105188Y-90319624D01*
X150254488Y-90289927D01*
X150279258Y-90285000D01*
X150456742Y-90285000D01*
X150481512Y-90289927D01*
G37*
G36*
X153021512Y-90289927D02*
G01*
X153170812Y-90319624D01*
X153334784Y-90387544D01*
X153482354Y-90486147D01*
X153607853Y-90611646D01*
X153706456Y-90759216D01*
X153774376Y-90923188D01*
X153809000Y-91097259D01*
X153809000Y-91274741D01*
X153774376Y-91448812D01*
X153706456Y-91612784D01*
X153607853Y-91760354D01*
X153482354Y-91885853D01*
X153334784Y-91984456D01*
X153170812Y-92052376D01*
X153021512Y-92082073D01*
X152996742Y-92087000D01*
X152819258Y-92087000D01*
X152794488Y-92082073D01*
X152645188Y-92052376D01*
X152481216Y-91984456D01*
X152333646Y-91885853D01*
X152208147Y-91760354D01*
X152109544Y-91612784D01*
X152041624Y-91448812D01*
X152007000Y-91274741D01*
X152007000Y-91097259D01*
X152041624Y-90923188D01*
X152109544Y-90759216D01*
X152208147Y-90611646D01*
X152333646Y-90486147D01*
X152481216Y-90387544D01*
X152645188Y-90319624D01*
X152794488Y-90289927D01*
X152819258Y-90285000D01*
X152996742Y-90285000D01*
X153021512Y-90289927D01*
G37*
G36*
X155561512Y-90289927D02*
G01*
X155710812Y-90319624D01*
X155874784Y-90387544D01*
X156022354Y-90486147D01*
X156147853Y-90611646D01*
X156246456Y-90759216D01*
X156314376Y-90923188D01*
X156349000Y-91097259D01*
X156349000Y-91274741D01*
X156314376Y-91448812D01*
X156246456Y-91612784D01*
X156147853Y-91760354D01*
X156022354Y-91885853D01*
X155874784Y-91984456D01*
X155710812Y-92052376D01*
X155561512Y-92082073D01*
X155536742Y-92087000D01*
X155359258Y-92087000D01*
X155334488Y-92082073D01*
X155185188Y-92052376D01*
X155021216Y-91984456D01*
X154873646Y-91885853D01*
X154748147Y-91760354D01*
X154649544Y-91612784D01*
X154581624Y-91448812D01*
X154547000Y-91274741D01*
X154547000Y-91097259D01*
X154581624Y-90923188D01*
X154649544Y-90759216D01*
X154748147Y-90611646D01*
X154873646Y-90486147D01*
X155021216Y-90387544D01*
X155185188Y-90319624D01*
X155334488Y-90289927D01*
X155359258Y-90285000D01*
X155536742Y-90285000D01*
X155561512Y-90289927D01*
G37*
G36*
X158101512Y-90289927D02*
G01*
X158250812Y-90319624D01*
X158414784Y-90387544D01*
X158562354Y-90486147D01*
X158687853Y-90611646D01*
X158786456Y-90759216D01*
X158854376Y-90923188D01*
X158889000Y-91097259D01*
X158889000Y-91274741D01*
X158854376Y-91448812D01*
X158786456Y-91612784D01*
X158687853Y-91760354D01*
X158562354Y-91885853D01*
X158414784Y-91984456D01*
X158250812Y-92052376D01*
X158101512Y-92082073D01*
X158076742Y-92087000D01*
X157899258Y-92087000D01*
X157874488Y-92082073D01*
X157725188Y-92052376D01*
X157561216Y-91984456D01*
X157413646Y-91885853D01*
X157288147Y-91760354D01*
X157189544Y-91612784D01*
X157121624Y-91448812D01*
X157087000Y-91274741D01*
X157087000Y-91097259D01*
X157121624Y-90923188D01*
X157189544Y-90759216D01*
X157288147Y-90611646D01*
X157413646Y-90486147D01*
X157561216Y-90387544D01*
X157725188Y-90319624D01*
X157874488Y-90289927D01*
X157899258Y-90285000D01*
X158076742Y-90285000D01*
X158101512Y-90289927D01*
G37*
G36*
X160641512Y-90289927D02*
G01*
X160790812Y-90319624D01*
X160954784Y-90387544D01*
X161102354Y-90486147D01*
X161227853Y-90611646D01*
X161326456Y-90759216D01*
X161394376Y-90923188D01*
X161429000Y-91097259D01*
X161429000Y-91274741D01*
X161394376Y-91448812D01*
X161326456Y-91612784D01*
X161227853Y-91760354D01*
X161102354Y-91885853D01*
X160954784Y-91984456D01*
X160790812Y-92052376D01*
X160641512Y-92082073D01*
X160616742Y-92087000D01*
X160439258Y-92087000D01*
X160414488Y-92082073D01*
X160265188Y-92052376D01*
X160101216Y-91984456D01*
X159953646Y-91885853D01*
X159828147Y-91760354D01*
X159729544Y-91612784D01*
X159661624Y-91448812D01*
X159627000Y-91274741D01*
X159627000Y-91097259D01*
X159661624Y-90923188D01*
X159729544Y-90759216D01*
X159828147Y-90611646D01*
X159953646Y-90486147D01*
X160101216Y-90387544D01*
X160265188Y-90319624D01*
X160414488Y-90289927D01*
X160439258Y-90285000D01*
X160616742Y-90285000D01*
X160641512Y-90289927D01*
G37*
G36*
X163181512Y-90289927D02*
G01*
X163330812Y-90319624D01*
X163494784Y-90387544D01*
X163642354Y-90486147D01*
X163767853Y-90611646D01*
X163866456Y-90759216D01*
X163934376Y-90923188D01*
X163969000Y-91097259D01*
X163969000Y-91274741D01*
X163934376Y-91448812D01*
X163866456Y-91612784D01*
X163767853Y-91760354D01*
X163642354Y-91885853D01*
X163494784Y-91984456D01*
X163330812Y-92052376D01*
X163181512Y-92082073D01*
X163156742Y-92087000D01*
X162979258Y-92087000D01*
X162954488Y-92082073D01*
X162805188Y-92052376D01*
X162641216Y-91984456D01*
X162493646Y-91885853D01*
X162368147Y-91760354D01*
X162269544Y-91612784D01*
X162201624Y-91448812D01*
X162167000Y-91274741D01*
X162167000Y-91097259D01*
X162201624Y-90923188D01*
X162269544Y-90759216D01*
X162368147Y-90611646D01*
X162493646Y-90486147D01*
X162641216Y-90387544D01*
X162805188Y-90319624D01*
X162954488Y-90289927D01*
X162979258Y-90285000D01*
X163156742Y-90285000D01*
X163181512Y-90289927D01*
G37*
G36*
X165721512Y-90289927D02*
G01*
X165870812Y-90319624D01*
X166034784Y-90387544D01*
X166182354Y-90486147D01*
X166307853Y-90611646D01*
X166406456Y-90759216D01*
X166474376Y-90923188D01*
X166509000Y-91097259D01*
X166509000Y-91274741D01*
X166474376Y-91448812D01*
X166406456Y-91612784D01*
X166307853Y-91760354D01*
X166182354Y-91885853D01*
X166034784Y-91984456D01*
X165870812Y-92052376D01*
X165721512Y-92082073D01*
X165696742Y-92087000D01*
X165519258Y-92087000D01*
X165494488Y-92082073D01*
X165345188Y-92052376D01*
X165181216Y-91984456D01*
X165033646Y-91885853D01*
X164908147Y-91760354D01*
X164809544Y-91612784D01*
X164741624Y-91448812D01*
X164707000Y-91274741D01*
X164707000Y-91097259D01*
X164741624Y-90923188D01*
X164809544Y-90759216D01*
X164908147Y-90611646D01*
X165033646Y-90486147D01*
X165181216Y-90387544D01*
X165345188Y-90319624D01*
X165494488Y-90289927D01*
X165519258Y-90285000D01*
X165696742Y-90285000D01*
X165721512Y-90289927D01*
G37*
G36*
X168261512Y-90289927D02*
G01*
X168410812Y-90319624D01*
X168574784Y-90387544D01*
X168722354Y-90486147D01*
X168847853Y-90611646D01*
X168946456Y-90759216D01*
X169014376Y-90923188D01*
X169049000Y-91097259D01*
X169049000Y-91274741D01*
X169014376Y-91448812D01*
X168946456Y-91612784D01*
X168847853Y-91760354D01*
X168722354Y-91885853D01*
X168574784Y-91984456D01*
X168410812Y-92052376D01*
X168261512Y-92082073D01*
X168236742Y-92087000D01*
X168059258Y-92087000D01*
X168034488Y-92082073D01*
X167885188Y-92052376D01*
X167721216Y-91984456D01*
X167573646Y-91885853D01*
X167448147Y-91760354D01*
X167349544Y-91612784D01*
X167281624Y-91448812D01*
X167247000Y-91274741D01*
X167247000Y-91097259D01*
X167281624Y-90923188D01*
X167349544Y-90759216D01*
X167448147Y-90611646D01*
X167573646Y-90486147D01*
X167721216Y-90387544D01*
X167885188Y-90319624D01*
X168034488Y-90289927D01*
X168059258Y-90285000D01*
X168236742Y-90285000D01*
X168261512Y-90289927D01*
G37*
G36*
X170801512Y-90289927D02*
G01*
X170950812Y-90319624D01*
X171114784Y-90387544D01*
X171262354Y-90486147D01*
X171387853Y-90611646D01*
X171486456Y-90759216D01*
X171554376Y-90923188D01*
X171589000Y-91097259D01*
X171589000Y-91274741D01*
X171554376Y-91448812D01*
X171486456Y-91612784D01*
X171387853Y-91760354D01*
X171262354Y-91885853D01*
X171114784Y-91984456D01*
X170950812Y-92052376D01*
X170801512Y-92082073D01*
X170776742Y-92087000D01*
X170599258Y-92087000D01*
X170574488Y-92082073D01*
X170425188Y-92052376D01*
X170261216Y-91984456D01*
X170113646Y-91885853D01*
X169988147Y-91760354D01*
X169889544Y-91612784D01*
X169821624Y-91448812D01*
X169787000Y-91274741D01*
X169787000Y-91097259D01*
X169821624Y-90923188D01*
X169889544Y-90759216D01*
X169988147Y-90611646D01*
X170113646Y-90486147D01*
X170261216Y-90387544D01*
X170425188Y-90319624D01*
X170574488Y-90289927D01*
X170599258Y-90285000D01*
X170776742Y-90285000D01*
X170801512Y-90289927D01*
G37*
G36*
X173341512Y-90289927D02*
G01*
X173490812Y-90319624D01*
X173654784Y-90387544D01*
X173802354Y-90486147D01*
X173927853Y-90611646D01*
X174026456Y-90759216D01*
X174094376Y-90923188D01*
X174129000Y-91097259D01*
X174129000Y-91274741D01*
X174094376Y-91448812D01*
X174026456Y-91612784D01*
X173927853Y-91760354D01*
X173802354Y-91885853D01*
X173654784Y-91984456D01*
X173490812Y-92052376D01*
X173341512Y-92082073D01*
X173316742Y-92087000D01*
X173139258Y-92087000D01*
X173114488Y-92082073D01*
X172965188Y-92052376D01*
X172801216Y-91984456D01*
X172653646Y-91885853D01*
X172528147Y-91760354D01*
X172429544Y-91612784D01*
X172361624Y-91448812D01*
X172327000Y-91274741D01*
X172327000Y-91097259D01*
X172361624Y-90923188D01*
X172429544Y-90759216D01*
X172528147Y-90611646D01*
X172653646Y-90486147D01*
X172801216Y-90387544D01*
X172965188Y-90319624D01*
X173114488Y-90289927D01*
X173139258Y-90285000D01*
X173316742Y-90285000D01*
X173341512Y-90289927D01*
G37*
G36*
X175881512Y-90289927D02*
G01*
X176030812Y-90319624D01*
X176194784Y-90387544D01*
X176342354Y-90486147D01*
X176467853Y-90611646D01*
X176566456Y-90759216D01*
X176634376Y-90923188D01*
X176669000Y-91097259D01*
X176669000Y-91274741D01*
X176634376Y-91448812D01*
X176566456Y-91612784D01*
X176467853Y-91760354D01*
X176342354Y-91885853D01*
X176194784Y-91984456D01*
X176030812Y-92052376D01*
X175881512Y-92082073D01*
X175856742Y-92087000D01*
X175679258Y-92087000D01*
X175654488Y-92082073D01*
X175505188Y-92052376D01*
X175341216Y-91984456D01*
X175193646Y-91885853D01*
X175068147Y-91760354D01*
X174969544Y-91612784D01*
X174901624Y-91448812D01*
X174867000Y-91274741D01*
X174867000Y-91097259D01*
X174901624Y-90923188D01*
X174969544Y-90759216D01*
X175068147Y-90611646D01*
X175193646Y-90486147D01*
X175341216Y-90387544D01*
X175505188Y-90319624D01*
X175654488Y-90289927D01*
X175679258Y-90285000D01*
X175856742Y-90285000D01*
X175881512Y-90289927D01*
G37*
G36*
X178421512Y-90289927D02*
G01*
X178570812Y-90319624D01*
X178734784Y-90387544D01*
X178882354Y-90486147D01*
X179007853Y-90611646D01*
X179106456Y-90759216D01*
X179174376Y-90923188D01*
X179209000Y-91097259D01*
X179209000Y-91274741D01*
X179174376Y-91448812D01*
X179106456Y-91612784D01*
X179007853Y-91760354D01*
X178882354Y-91885853D01*
X178734784Y-91984456D01*
X178570812Y-92052376D01*
X178421512Y-92082073D01*
X178396742Y-92087000D01*
X178219258Y-92087000D01*
X178194488Y-92082073D01*
X178045188Y-92052376D01*
X177881216Y-91984456D01*
X177733646Y-91885853D01*
X177608147Y-91760354D01*
X177509544Y-91612784D01*
X177441624Y-91448812D01*
X177407000Y-91274741D01*
X177407000Y-91097259D01*
X177441624Y-90923188D01*
X177509544Y-90759216D01*
X177608147Y-90611646D01*
X177733646Y-90486147D01*
X177881216Y-90387544D01*
X178045188Y-90319624D01*
X178194488Y-90289927D01*
X178219258Y-90285000D01*
X178396742Y-90285000D01*
X178421512Y-90289927D01*
G37*
G36*
X180961512Y-90289927D02*
G01*
X181110812Y-90319624D01*
X181274784Y-90387544D01*
X181422354Y-90486147D01*
X181547853Y-90611646D01*
X181646456Y-90759216D01*
X181714376Y-90923188D01*
X181749000Y-91097259D01*
X181749000Y-91274741D01*
X181714376Y-91448812D01*
X181646456Y-91612784D01*
X181547853Y-91760354D01*
X181422354Y-91885853D01*
X181274784Y-91984456D01*
X181110812Y-92052376D01*
X180961512Y-92082073D01*
X180936742Y-92087000D01*
X180759258Y-92087000D01*
X180734488Y-92082073D01*
X180585188Y-92052376D01*
X180421216Y-91984456D01*
X180273646Y-91885853D01*
X180148147Y-91760354D01*
X180049544Y-91612784D01*
X179981624Y-91448812D01*
X179947000Y-91274741D01*
X179947000Y-91097259D01*
X179981624Y-90923188D01*
X180049544Y-90759216D01*
X180148147Y-90611646D01*
X180273646Y-90486147D01*
X180421216Y-90387544D01*
X180585188Y-90319624D01*
X180734488Y-90289927D01*
X180759258Y-90285000D01*
X180936742Y-90285000D01*
X180961512Y-90289927D01*
G37*
G36*
X183501512Y-90289927D02*
G01*
X183650812Y-90319624D01*
X183814784Y-90387544D01*
X183962354Y-90486147D01*
X184087853Y-90611646D01*
X184186456Y-90759216D01*
X184254376Y-90923188D01*
X184289000Y-91097259D01*
X184289000Y-91274741D01*
X184254376Y-91448812D01*
X184186456Y-91612784D01*
X184087853Y-91760354D01*
X183962354Y-91885853D01*
X183814784Y-91984456D01*
X183650812Y-92052376D01*
X183501512Y-92082073D01*
X183476742Y-92087000D01*
X183299258Y-92087000D01*
X183274488Y-92082073D01*
X183125188Y-92052376D01*
X182961216Y-91984456D01*
X182813646Y-91885853D01*
X182688147Y-91760354D01*
X182589544Y-91612784D01*
X182521624Y-91448812D01*
X182487000Y-91274741D01*
X182487000Y-91097259D01*
X182521624Y-90923188D01*
X182589544Y-90759216D01*
X182688147Y-90611646D01*
X182813646Y-90486147D01*
X182961216Y-90387544D01*
X183125188Y-90319624D01*
X183274488Y-90289927D01*
X183299258Y-90285000D01*
X183476742Y-90285000D01*
X183501512Y-90289927D01*
G37*
G36*
X186041512Y-87749927D02*
G01*
X186190812Y-87779624D01*
X186354784Y-87847544D01*
X186502354Y-87946147D01*
X186627853Y-88071646D01*
X186726456Y-88219216D01*
X186794376Y-88383188D01*
X186829000Y-88557259D01*
X186829000Y-88734741D01*
X186794376Y-88908812D01*
X186726456Y-89072784D01*
X186627853Y-89220354D01*
X186502354Y-89345853D01*
X186354784Y-89444456D01*
X186190812Y-89512376D01*
X186041512Y-89542073D01*
X186016742Y-89547000D01*
X185839258Y-89547000D01*
X185814488Y-89542073D01*
X185665188Y-89512376D01*
X185501216Y-89444456D01*
X185353646Y-89345853D01*
X185228147Y-89220354D01*
X185129544Y-89072784D01*
X185061624Y-88908812D01*
X185027000Y-88734741D01*
X185027000Y-88557259D01*
X185061624Y-88383188D01*
X185129544Y-88219216D01*
X185228147Y-88071646D01*
X185353646Y-87946147D01*
X185501216Y-87847544D01*
X185665188Y-87779624D01*
X185814488Y-87749927D01*
X185839258Y-87745000D01*
X186016742Y-87745000D01*
X186041512Y-87749927D01*
G37*
G36*
X133489000Y-89547000D02*
G01*
X131687000Y-89547000D01*
X131687000Y-87745000D01*
X133489000Y-87745000D01*
X133489000Y-89547000D01*
G37*
G36*
X183501512Y-87749927D02*
G01*
X183650812Y-87779624D01*
X183814784Y-87847544D01*
X183962354Y-87946147D01*
X184087853Y-88071646D01*
X184186456Y-88219216D01*
X184254376Y-88383188D01*
X184289000Y-88557259D01*
X184289000Y-88734741D01*
X184254376Y-88908812D01*
X184186456Y-89072784D01*
X184087853Y-89220354D01*
X183962354Y-89345853D01*
X183814784Y-89444456D01*
X183650812Y-89512376D01*
X183501512Y-89542073D01*
X183476742Y-89547000D01*
X183299258Y-89547000D01*
X183274488Y-89542073D01*
X183125188Y-89512376D01*
X182961216Y-89444456D01*
X182813646Y-89345853D01*
X182688147Y-89220354D01*
X182589544Y-89072784D01*
X182521624Y-88908812D01*
X182487000Y-88734741D01*
X182487000Y-88557259D01*
X182521624Y-88383188D01*
X182589544Y-88219216D01*
X182688147Y-88071646D01*
X182813646Y-87946147D01*
X182961216Y-87847544D01*
X183125188Y-87779624D01*
X183274488Y-87749927D01*
X183299258Y-87745000D01*
X183476742Y-87745000D01*
X183501512Y-87749927D01*
G37*
G36*
X135241512Y-87749927D02*
G01*
X135390812Y-87779624D01*
X135554784Y-87847544D01*
X135702354Y-87946147D01*
X135827853Y-88071646D01*
X135926456Y-88219216D01*
X135994376Y-88383188D01*
X136029000Y-88557259D01*
X136029000Y-88734741D01*
X135994376Y-88908812D01*
X135926456Y-89072784D01*
X135827853Y-89220354D01*
X135702354Y-89345853D01*
X135554784Y-89444456D01*
X135390812Y-89512376D01*
X135241512Y-89542073D01*
X135216742Y-89547000D01*
X135039258Y-89547000D01*
X135014488Y-89542073D01*
X134865188Y-89512376D01*
X134701216Y-89444456D01*
X134553646Y-89345853D01*
X134428147Y-89220354D01*
X134329544Y-89072784D01*
X134261624Y-88908812D01*
X134227000Y-88734741D01*
X134227000Y-88557259D01*
X134261624Y-88383188D01*
X134329544Y-88219216D01*
X134428147Y-88071646D01*
X134553646Y-87946147D01*
X134701216Y-87847544D01*
X134865188Y-87779624D01*
X135014488Y-87749927D01*
X135039258Y-87745000D01*
X135216742Y-87745000D01*
X135241512Y-87749927D01*
G37*
G36*
X180961512Y-87749927D02*
G01*
X181110812Y-87779624D01*
X181274784Y-87847544D01*
X181422354Y-87946147D01*
X181547853Y-88071646D01*
X181646456Y-88219216D01*
X181714376Y-88383188D01*
X181749000Y-88557259D01*
X181749000Y-88734741D01*
X181714376Y-88908812D01*
X181646456Y-89072784D01*
X181547853Y-89220354D01*
X181422354Y-89345853D01*
X181274784Y-89444456D01*
X181110812Y-89512376D01*
X180961512Y-89542073D01*
X180936742Y-89547000D01*
X180759258Y-89547000D01*
X180734488Y-89542073D01*
X180585188Y-89512376D01*
X180421216Y-89444456D01*
X180273646Y-89345853D01*
X180148147Y-89220354D01*
X180049544Y-89072784D01*
X179981624Y-88908812D01*
X179947000Y-88734741D01*
X179947000Y-88557259D01*
X179981624Y-88383188D01*
X180049544Y-88219216D01*
X180148147Y-88071646D01*
X180273646Y-87946147D01*
X180421216Y-87847544D01*
X180585188Y-87779624D01*
X180734488Y-87749927D01*
X180759258Y-87745000D01*
X180936742Y-87745000D01*
X180961512Y-87749927D01*
G37*
G36*
X137781512Y-87749927D02*
G01*
X137930812Y-87779624D01*
X138094784Y-87847544D01*
X138242354Y-87946147D01*
X138367853Y-88071646D01*
X138466456Y-88219216D01*
X138534376Y-88383188D01*
X138569000Y-88557259D01*
X138569000Y-88734741D01*
X138534376Y-88908812D01*
X138466456Y-89072784D01*
X138367853Y-89220354D01*
X138242354Y-89345853D01*
X138094784Y-89444456D01*
X137930812Y-89512376D01*
X137781512Y-89542073D01*
X137756742Y-89547000D01*
X137579258Y-89547000D01*
X137554488Y-89542073D01*
X137405188Y-89512376D01*
X137241216Y-89444456D01*
X137093646Y-89345853D01*
X136968147Y-89220354D01*
X136869544Y-89072784D01*
X136801624Y-88908812D01*
X136767000Y-88734741D01*
X136767000Y-88557259D01*
X136801624Y-88383188D01*
X136869544Y-88219216D01*
X136968147Y-88071646D01*
X137093646Y-87946147D01*
X137241216Y-87847544D01*
X137405188Y-87779624D01*
X137554488Y-87749927D01*
X137579258Y-87745000D01*
X137756742Y-87745000D01*
X137781512Y-87749927D01*
G37*
G36*
X178421512Y-87749927D02*
G01*
X178570812Y-87779624D01*
X178734784Y-87847544D01*
X178882354Y-87946147D01*
X179007853Y-88071646D01*
X179106456Y-88219216D01*
X179174376Y-88383188D01*
X179209000Y-88557259D01*
X179209000Y-88734741D01*
X179174376Y-88908812D01*
X179106456Y-89072784D01*
X179007853Y-89220354D01*
X178882354Y-89345853D01*
X178734784Y-89444456D01*
X178570812Y-89512376D01*
X178421512Y-89542073D01*
X178396742Y-89547000D01*
X178219258Y-89547000D01*
X178194488Y-89542073D01*
X178045188Y-89512376D01*
X177881216Y-89444456D01*
X177733646Y-89345853D01*
X177608147Y-89220354D01*
X177509544Y-89072784D01*
X177441624Y-88908812D01*
X177407000Y-88734741D01*
X177407000Y-88557259D01*
X177441624Y-88383188D01*
X177509544Y-88219216D01*
X177608147Y-88071646D01*
X177733646Y-87946147D01*
X177881216Y-87847544D01*
X178045188Y-87779624D01*
X178194488Y-87749927D01*
X178219258Y-87745000D01*
X178396742Y-87745000D01*
X178421512Y-87749927D01*
G37*
G36*
X140321512Y-87749927D02*
G01*
X140470812Y-87779624D01*
X140634784Y-87847544D01*
X140782354Y-87946147D01*
X140907853Y-88071646D01*
X141006456Y-88219216D01*
X141074376Y-88383188D01*
X141109000Y-88557259D01*
X141109000Y-88734741D01*
X141074376Y-88908812D01*
X141006456Y-89072784D01*
X140907853Y-89220354D01*
X140782354Y-89345853D01*
X140634784Y-89444456D01*
X140470812Y-89512376D01*
X140321512Y-89542073D01*
X140296742Y-89547000D01*
X140119258Y-89547000D01*
X140094488Y-89542073D01*
X139945188Y-89512376D01*
X139781216Y-89444456D01*
X139633646Y-89345853D01*
X139508147Y-89220354D01*
X139409544Y-89072784D01*
X139341624Y-88908812D01*
X139307000Y-88734741D01*
X139307000Y-88557259D01*
X139341624Y-88383188D01*
X139409544Y-88219216D01*
X139508147Y-88071646D01*
X139633646Y-87946147D01*
X139781216Y-87847544D01*
X139945188Y-87779624D01*
X140094488Y-87749927D01*
X140119258Y-87745000D01*
X140296742Y-87745000D01*
X140321512Y-87749927D01*
G37*
G36*
X175881512Y-87749927D02*
G01*
X176030812Y-87779624D01*
X176194784Y-87847544D01*
X176342354Y-87946147D01*
X176467853Y-88071646D01*
X176566456Y-88219216D01*
X176634376Y-88383188D01*
X176669000Y-88557259D01*
X176669000Y-88734741D01*
X176634376Y-88908812D01*
X176566456Y-89072784D01*
X176467853Y-89220354D01*
X176342354Y-89345853D01*
X176194784Y-89444456D01*
X176030812Y-89512376D01*
X175881512Y-89542073D01*
X175856742Y-89547000D01*
X175679258Y-89547000D01*
X175654488Y-89542073D01*
X175505188Y-89512376D01*
X175341216Y-89444456D01*
X175193646Y-89345853D01*
X175068147Y-89220354D01*
X174969544Y-89072784D01*
X174901624Y-88908812D01*
X174867000Y-88734741D01*
X174867000Y-88557259D01*
X174901624Y-88383188D01*
X174969544Y-88219216D01*
X175068147Y-88071646D01*
X175193646Y-87946147D01*
X175341216Y-87847544D01*
X175505188Y-87779624D01*
X175654488Y-87749927D01*
X175679258Y-87745000D01*
X175856742Y-87745000D01*
X175881512Y-87749927D01*
G37*
G36*
X142861512Y-87749927D02*
G01*
X143010812Y-87779624D01*
X143174784Y-87847544D01*
X143322354Y-87946147D01*
X143447853Y-88071646D01*
X143546456Y-88219216D01*
X143614376Y-88383188D01*
X143649000Y-88557259D01*
X143649000Y-88734741D01*
X143614376Y-88908812D01*
X143546456Y-89072784D01*
X143447853Y-89220354D01*
X143322354Y-89345853D01*
X143174784Y-89444456D01*
X143010812Y-89512376D01*
X142861512Y-89542073D01*
X142836742Y-89547000D01*
X142659258Y-89547000D01*
X142634488Y-89542073D01*
X142485188Y-89512376D01*
X142321216Y-89444456D01*
X142173646Y-89345853D01*
X142048147Y-89220354D01*
X141949544Y-89072784D01*
X141881624Y-88908812D01*
X141847000Y-88734741D01*
X141847000Y-88557259D01*
X141881624Y-88383188D01*
X141949544Y-88219216D01*
X142048147Y-88071646D01*
X142173646Y-87946147D01*
X142321216Y-87847544D01*
X142485188Y-87779624D01*
X142634488Y-87749927D01*
X142659258Y-87745000D01*
X142836742Y-87745000D01*
X142861512Y-87749927D01*
G37*
G36*
X173341512Y-87749927D02*
G01*
X173490812Y-87779624D01*
X173654784Y-87847544D01*
X173802354Y-87946147D01*
X173927853Y-88071646D01*
X174026456Y-88219216D01*
X174094376Y-88383188D01*
X174129000Y-88557259D01*
X174129000Y-88734741D01*
X174094376Y-88908812D01*
X174026456Y-89072784D01*
X173927853Y-89220354D01*
X173802354Y-89345853D01*
X173654784Y-89444456D01*
X173490812Y-89512376D01*
X173341512Y-89542073D01*
X173316742Y-89547000D01*
X173139258Y-89547000D01*
X173114488Y-89542073D01*
X172965188Y-89512376D01*
X172801216Y-89444456D01*
X172653646Y-89345853D01*
X172528147Y-89220354D01*
X172429544Y-89072784D01*
X172361624Y-88908812D01*
X172327000Y-88734741D01*
X172327000Y-88557259D01*
X172361624Y-88383188D01*
X172429544Y-88219216D01*
X172528147Y-88071646D01*
X172653646Y-87946147D01*
X172801216Y-87847544D01*
X172965188Y-87779624D01*
X173114488Y-87749927D01*
X173139258Y-87745000D01*
X173316742Y-87745000D01*
X173341512Y-87749927D01*
G37*
G36*
X145401512Y-87749927D02*
G01*
X145550812Y-87779624D01*
X145714784Y-87847544D01*
X145862354Y-87946147D01*
X145987853Y-88071646D01*
X146086456Y-88219216D01*
X146154376Y-88383188D01*
X146189000Y-88557259D01*
X146189000Y-88734741D01*
X146154376Y-88908812D01*
X146086456Y-89072784D01*
X145987853Y-89220354D01*
X145862354Y-89345853D01*
X145714784Y-89444456D01*
X145550812Y-89512376D01*
X145401512Y-89542073D01*
X145376742Y-89547000D01*
X145199258Y-89547000D01*
X145174488Y-89542073D01*
X145025188Y-89512376D01*
X144861216Y-89444456D01*
X144713646Y-89345853D01*
X144588147Y-89220354D01*
X144489544Y-89072784D01*
X144421624Y-88908812D01*
X144387000Y-88734741D01*
X144387000Y-88557259D01*
X144421624Y-88383188D01*
X144489544Y-88219216D01*
X144588147Y-88071646D01*
X144713646Y-87946147D01*
X144861216Y-87847544D01*
X145025188Y-87779624D01*
X145174488Y-87749927D01*
X145199258Y-87745000D01*
X145376742Y-87745000D01*
X145401512Y-87749927D01*
G37*
G36*
X170801512Y-87749927D02*
G01*
X170950812Y-87779624D01*
X171114784Y-87847544D01*
X171262354Y-87946147D01*
X171387853Y-88071646D01*
X171486456Y-88219216D01*
X171554376Y-88383188D01*
X171589000Y-88557259D01*
X171589000Y-88734741D01*
X171554376Y-88908812D01*
X171486456Y-89072784D01*
X171387853Y-89220354D01*
X171262354Y-89345853D01*
X171114784Y-89444456D01*
X170950812Y-89512376D01*
X170801512Y-89542073D01*
X170776742Y-89547000D01*
X170599258Y-89547000D01*
X170574488Y-89542073D01*
X170425188Y-89512376D01*
X170261216Y-89444456D01*
X170113646Y-89345853D01*
X169988147Y-89220354D01*
X169889544Y-89072784D01*
X169821624Y-88908812D01*
X169787000Y-88734741D01*
X169787000Y-88557259D01*
X169821624Y-88383188D01*
X169889544Y-88219216D01*
X169988147Y-88071646D01*
X170113646Y-87946147D01*
X170261216Y-87847544D01*
X170425188Y-87779624D01*
X170574488Y-87749927D01*
X170599258Y-87745000D01*
X170776742Y-87745000D01*
X170801512Y-87749927D01*
G37*
G36*
X147941512Y-87749927D02*
G01*
X148090812Y-87779624D01*
X148254784Y-87847544D01*
X148402354Y-87946147D01*
X148527853Y-88071646D01*
X148626456Y-88219216D01*
X148694376Y-88383188D01*
X148729000Y-88557259D01*
X148729000Y-88734741D01*
X148694376Y-88908812D01*
X148626456Y-89072784D01*
X148527853Y-89220354D01*
X148402354Y-89345853D01*
X148254784Y-89444456D01*
X148090812Y-89512376D01*
X147941512Y-89542073D01*
X147916742Y-89547000D01*
X147739258Y-89547000D01*
X147714488Y-89542073D01*
X147565188Y-89512376D01*
X147401216Y-89444456D01*
X147253646Y-89345853D01*
X147128147Y-89220354D01*
X147029544Y-89072784D01*
X146961624Y-88908812D01*
X146927000Y-88734741D01*
X146927000Y-88557259D01*
X146961624Y-88383188D01*
X147029544Y-88219216D01*
X147128147Y-88071646D01*
X147253646Y-87946147D01*
X147401216Y-87847544D01*
X147565188Y-87779624D01*
X147714488Y-87749927D01*
X147739258Y-87745000D01*
X147916742Y-87745000D01*
X147941512Y-87749927D01*
G37*
G36*
X168261512Y-87749927D02*
G01*
X168410812Y-87779624D01*
X168574784Y-87847544D01*
X168722354Y-87946147D01*
X168847853Y-88071646D01*
X168946456Y-88219216D01*
X169014376Y-88383188D01*
X169049000Y-88557259D01*
X169049000Y-88734741D01*
X169014376Y-88908812D01*
X168946456Y-89072784D01*
X168847853Y-89220354D01*
X168722354Y-89345853D01*
X168574784Y-89444456D01*
X168410812Y-89512376D01*
X168261512Y-89542073D01*
X168236742Y-89547000D01*
X168059258Y-89547000D01*
X168034488Y-89542073D01*
X167885188Y-89512376D01*
X167721216Y-89444456D01*
X167573646Y-89345853D01*
X167448147Y-89220354D01*
X167349544Y-89072784D01*
X167281624Y-88908812D01*
X167247000Y-88734741D01*
X167247000Y-88557259D01*
X167281624Y-88383188D01*
X167349544Y-88219216D01*
X167448147Y-88071646D01*
X167573646Y-87946147D01*
X167721216Y-87847544D01*
X167885188Y-87779624D01*
X168034488Y-87749927D01*
X168059258Y-87745000D01*
X168236742Y-87745000D01*
X168261512Y-87749927D01*
G37*
G36*
X150481512Y-87749927D02*
G01*
X150630812Y-87779624D01*
X150794784Y-87847544D01*
X150942354Y-87946147D01*
X151067853Y-88071646D01*
X151166456Y-88219216D01*
X151234376Y-88383188D01*
X151269000Y-88557259D01*
X151269000Y-88734741D01*
X151234376Y-88908812D01*
X151166456Y-89072784D01*
X151067853Y-89220354D01*
X150942354Y-89345853D01*
X150794784Y-89444456D01*
X150630812Y-89512376D01*
X150481512Y-89542073D01*
X150456742Y-89547000D01*
X150279258Y-89547000D01*
X150254488Y-89542073D01*
X150105188Y-89512376D01*
X149941216Y-89444456D01*
X149793646Y-89345853D01*
X149668147Y-89220354D01*
X149569544Y-89072784D01*
X149501624Y-88908812D01*
X149467000Y-88734741D01*
X149467000Y-88557259D01*
X149501624Y-88383188D01*
X149569544Y-88219216D01*
X149668147Y-88071646D01*
X149793646Y-87946147D01*
X149941216Y-87847544D01*
X150105188Y-87779624D01*
X150254488Y-87749927D01*
X150279258Y-87745000D01*
X150456742Y-87745000D01*
X150481512Y-87749927D01*
G37*
G36*
X165721512Y-87749927D02*
G01*
X165870812Y-87779624D01*
X166034784Y-87847544D01*
X166182354Y-87946147D01*
X166307853Y-88071646D01*
X166406456Y-88219216D01*
X166474376Y-88383188D01*
X166509000Y-88557259D01*
X166509000Y-88734741D01*
X166474376Y-88908812D01*
X166406456Y-89072784D01*
X166307853Y-89220354D01*
X166182354Y-89345853D01*
X166034784Y-89444456D01*
X165870812Y-89512376D01*
X165721512Y-89542073D01*
X165696742Y-89547000D01*
X165519258Y-89547000D01*
X165494488Y-89542073D01*
X165345188Y-89512376D01*
X165181216Y-89444456D01*
X165033646Y-89345853D01*
X164908147Y-89220354D01*
X164809544Y-89072784D01*
X164741624Y-88908812D01*
X164707000Y-88734741D01*
X164707000Y-88557259D01*
X164741624Y-88383188D01*
X164809544Y-88219216D01*
X164908147Y-88071646D01*
X165033646Y-87946147D01*
X165181216Y-87847544D01*
X165345188Y-87779624D01*
X165494488Y-87749927D01*
X165519258Y-87745000D01*
X165696742Y-87745000D01*
X165721512Y-87749927D01*
G37*
G36*
X153021512Y-87749927D02*
G01*
X153170812Y-87779624D01*
X153334784Y-87847544D01*
X153482354Y-87946147D01*
X153607853Y-88071646D01*
X153706456Y-88219216D01*
X153774376Y-88383188D01*
X153809000Y-88557259D01*
X153809000Y-88734741D01*
X153774376Y-88908812D01*
X153706456Y-89072784D01*
X153607853Y-89220354D01*
X153482354Y-89345853D01*
X153334784Y-89444456D01*
X153170812Y-89512376D01*
X153021512Y-89542073D01*
X152996742Y-89547000D01*
X152819258Y-89547000D01*
X152794488Y-89542073D01*
X152645188Y-89512376D01*
X152481216Y-89444456D01*
X152333646Y-89345853D01*
X152208147Y-89220354D01*
X152109544Y-89072784D01*
X152041624Y-88908812D01*
X152007000Y-88734741D01*
X152007000Y-88557259D01*
X152041624Y-88383188D01*
X152109544Y-88219216D01*
X152208147Y-88071646D01*
X152333646Y-87946147D01*
X152481216Y-87847544D01*
X152645188Y-87779624D01*
X152794488Y-87749927D01*
X152819258Y-87745000D01*
X152996742Y-87745000D01*
X153021512Y-87749927D01*
G37*
G36*
X163181512Y-87749927D02*
G01*
X163330812Y-87779624D01*
X163494784Y-87847544D01*
X163642354Y-87946147D01*
X163767853Y-88071646D01*
X163866456Y-88219216D01*
X163934376Y-88383188D01*
X163969000Y-88557259D01*
X163969000Y-88734741D01*
X163934376Y-88908812D01*
X163866456Y-89072784D01*
X163767853Y-89220354D01*
X163642354Y-89345853D01*
X163494784Y-89444456D01*
X163330812Y-89512376D01*
X163181512Y-89542073D01*
X163156742Y-89547000D01*
X162979258Y-89547000D01*
X162954488Y-89542073D01*
X162805188Y-89512376D01*
X162641216Y-89444456D01*
X162493646Y-89345853D01*
X162368147Y-89220354D01*
X162269544Y-89072784D01*
X162201624Y-88908812D01*
X162167000Y-88734741D01*
X162167000Y-88557259D01*
X162201624Y-88383188D01*
X162269544Y-88219216D01*
X162368147Y-88071646D01*
X162493646Y-87946147D01*
X162641216Y-87847544D01*
X162805188Y-87779624D01*
X162954488Y-87749927D01*
X162979258Y-87745000D01*
X163156742Y-87745000D01*
X163181512Y-87749927D01*
G37*
G36*
X155561512Y-87749927D02*
G01*
X155710812Y-87779624D01*
X155874784Y-87847544D01*
X156022354Y-87946147D01*
X156147853Y-88071646D01*
X156246456Y-88219216D01*
X156314376Y-88383188D01*
X156349000Y-88557259D01*
X156349000Y-88734741D01*
X156314376Y-88908812D01*
X156246456Y-89072784D01*
X156147853Y-89220354D01*
X156022354Y-89345853D01*
X155874784Y-89444456D01*
X155710812Y-89512376D01*
X155561512Y-89542073D01*
X155536742Y-89547000D01*
X155359258Y-89547000D01*
X155334488Y-89542073D01*
X155185188Y-89512376D01*
X155021216Y-89444456D01*
X154873646Y-89345853D01*
X154748147Y-89220354D01*
X154649544Y-89072784D01*
X154581624Y-88908812D01*
X154547000Y-88734741D01*
X154547000Y-88557259D01*
X154581624Y-88383188D01*
X154649544Y-88219216D01*
X154748147Y-88071646D01*
X154873646Y-87946147D01*
X155021216Y-87847544D01*
X155185188Y-87779624D01*
X155334488Y-87749927D01*
X155359258Y-87745000D01*
X155536742Y-87745000D01*
X155561512Y-87749927D01*
G37*
G36*
X160641512Y-87749927D02*
G01*
X160790812Y-87779624D01*
X160954784Y-87847544D01*
X161102354Y-87946147D01*
X161227853Y-88071646D01*
X161326456Y-88219216D01*
X161394376Y-88383188D01*
X161429000Y-88557259D01*
X161429000Y-88734741D01*
X161394376Y-88908812D01*
X161326456Y-89072784D01*
X161227853Y-89220354D01*
X161102354Y-89345853D01*
X160954784Y-89444456D01*
X160790812Y-89512376D01*
X160641512Y-89542073D01*
X160616742Y-89547000D01*
X160439258Y-89547000D01*
X160414488Y-89542073D01*
X160265188Y-89512376D01*
X160101216Y-89444456D01*
X159953646Y-89345853D01*
X159828147Y-89220354D01*
X159729544Y-89072784D01*
X159661624Y-88908812D01*
X159627000Y-88734741D01*
X159627000Y-88557259D01*
X159661624Y-88383188D01*
X159729544Y-88219216D01*
X159828147Y-88071646D01*
X159953646Y-87946147D01*
X160101216Y-87847544D01*
X160265188Y-87779624D01*
X160414488Y-87749927D01*
X160439258Y-87745000D01*
X160616742Y-87745000D01*
X160641512Y-87749927D01*
G37*
G36*
X158101512Y-87749927D02*
G01*
X158250812Y-87779624D01*
X158414784Y-87847544D01*
X158562354Y-87946147D01*
X158687853Y-88071646D01*
X158786456Y-88219216D01*
X158854376Y-88383188D01*
X158889000Y-88557259D01*
X158889000Y-88734741D01*
X158854376Y-88908812D01*
X158786456Y-89072784D01*
X158687853Y-89220354D01*
X158562354Y-89345853D01*
X158414784Y-89444456D01*
X158250812Y-89512376D01*
X158101512Y-89542073D01*
X158076742Y-89547000D01*
X157899258Y-89547000D01*
X157874488Y-89542073D01*
X157725188Y-89512376D01*
X157561216Y-89444456D01*
X157413646Y-89345853D01*
X157288147Y-89220354D01*
X157189544Y-89072784D01*
X157121624Y-88908812D01*
X157087000Y-88734741D01*
X157087000Y-88557259D01*
X157121624Y-88383188D01*
X157189544Y-88219216D01*
X157288147Y-88071646D01*
X157413646Y-87946147D01*
X157561216Y-87847544D01*
X157725188Y-87779624D01*
X157874488Y-87749927D01*
X157899258Y-87745000D01*
X158076742Y-87745000D01*
X158101512Y-87749927D01*
G37*
M02*
