M48
; DRILL file {KiCad (5.1.5-0)} date Tuesday, August 30, 2022 at 11:14:43 AM
; FORMAT={-:-/ absolute / metric / decimal}
; #@! TF.CreationDate,2022-08-30T11:14:43-04:00
; #@! TF.GenerationSoftware,Kicad,Pcbnew,(5.1.5-0)
; #@! TF.FileFunction,Plated,1,2,PTH
FMAT,2
METRIC
T1C0.400
T2C0.800
T3C1.000
T4C1.200
%
G90
G05
T1
X132.334Y-77.216
X143.51Y-86.614
X148.082Y-77.216
X149.098Y-69.596
X152.654Y-69.596
X155.194Y-75.946
X155.702Y-77.216
X156.718Y-83.566
X159.331Y-115.824
X159.512Y-73.406
X162.814Y-75.946
X162.814Y-77.216
X163.068Y-73.406
X165.862Y-73.406
X166.116Y-85.852
X166.37Y-76.454
X166.624Y-81.788
X167.386Y-86.614
X170.542Y-76.454
X177.292Y-63.246
T2
X171.958Y-74.676
X176.958Y-74.676
X170.942Y-61.468
X170.942Y-69.088
X173.482Y-61.468
X173.482Y-69.088
X176.022Y-61.468
X176.022Y-69.088
X178.562Y-61.468
X178.562Y-69.088
X181.102Y-61.468
X181.102Y-69.088
X183.642Y-61.468
X183.642Y-69.088
X186.182Y-61.468
X186.182Y-69.088
X132.588Y-50.8
X137.588Y-50.8
X132.588Y-64.262
X132.588Y-79.502
X135.128Y-64.262
X135.128Y-79.502
X137.668Y-64.262
X137.668Y-79.502
X140.208Y-64.262
X140.208Y-79.502
X142.748Y-64.262
X142.748Y-79.502
X145.288Y-64.262
X145.288Y-79.502
X147.828Y-64.262
X147.828Y-79.502
X150.368Y-64.262
X150.368Y-79.502
X152.908Y-64.262
X152.908Y-79.502
X155.448Y-64.262
X155.448Y-79.502
X157.988Y-64.262
X157.988Y-79.502
X160.528Y-64.262
X160.528Y-79.502
X163.068Y-64.262
X163.068Y-79.502
X165.608Y-64.262
X165.608Y-79.502
X165.942Y-58.928
X170.942Y-58.928
X132.588Y-53.594
X132.588Y-61.214
X135.128Y-53.594
X135.128Y-61.214
X137.668Y-53.594
X137.668Y-61.214
X140.208Y-53.594
X140.208Y-61.214
X142.748Y-53.594
X142.748Y-61.214
X145.288Y-53.594
X145.288Y-61.214
X147.828Y-53.594
X147.828Y-61.214
X133.604Y-68.072
X138.604Y-68.072
X170.942Y-71.882
X170.942Y-79.502
X173.482Y-71.882
X173.482Y-79.502
X176.022Y-71.882
X176.022Y-79.502
X178.562Y-71.882
X178.562Y-79.502
X181.102Y-71.882
X181.102Y-79.502
X183.642Y-71.882
X183.642Y-79.502
X186.182Y-71.882
X186.182Y-79.502
T3
X132.588Y-88.646
X132.588Y-91.186
X135.128Y-88.646
X135.128Y-91.186
X137.668Y-88.646
X137.668Y-91.186
X140.208Y-88.646
X140.208Y-91.186
X142.748Y-88.646
X142.748Y-91.186
X145.288Y-88.646
X145.288Y-91.186
X147.828Y-88.646
X147.828Y-91.186
X150.368Y-88.646
X150.368Y-91.186
X152.908Y-88.646
X152.908Y-91.186
X155.448Y-88.646
X155.448Y-91.186
X157.988Y-88.646
X157.988Y-91.186
X160.528Y-88.646
X160.528Y-91.186
X163.068Y-88.646
X163.068Y-91.186
X165.608Y-88.646
X165.608Y-91.186
X168.148Y-88.646
X168.148Y-91.186
X170.688Y-88.646
X170.688Y-91.186
X173.228Y-88.646
X173.228Y-91.186
X175.768Y-88.646
X175.768Y-91.186
X178.308Y-88.646
X178.308Y-91.186
X180.848Y-88.646
X180.848Y-91.186
X183.388Y-88.646
X183.388Y-91.186
X185.928Y-88.646
X185.928Y-91.186
T4
X176.276Y-51.562
X183.776Y-51.562
T0
M30
