G04 #@! TF.GenerationSoftware,KiCad,Pcbnew,(5.1.5-0)*
G04 #@! TF.CreationDate,2022-08-30T11:13:50-04:00*
G04 #@! TF.ProjectId,breakout_board,62726561-6b6f-4757-945f-626f6172642e,rev?*
G04 #@! TF.SameCoordinates,Original*
G04 #@! TF.FileFunction,Copper,L1,Top*
G04 #@! TF.FilePolarity,Positive*
%FSLAX46Y46*%
G04 Gerber Fmt 4.6, Leading zero omitted, Abs format (unit mm)*
G04 Created by KiCad (PCBNEW (5.1.5-0)) date 2022-08-30 11:13:50*
%MOMM*%
%LPD*%
G04 APERTURE LIST*
%ADD10O,1.600000X1.600000*%
%ADD11R,1.600000X1.600000*%
%ADD12C,1.600000*%
%ADD13C,2.400000*%
%ADD14R,2.400000X2.400000*%
%ADD15R,1.270000X5.080000*%
%ADD16O,1.700000X1.700000*%
%ADD17R,1.700000X1.700000*%
%ADD18C,0.800000*%
%ADD19C,0.250000*%
G04 APERTURE END LIST*
D10*
X132588000Y-53594000D03*
X147828000Y-61214000D03*
X135128000Y-53594000D03*
X145288000Y-61214000D03*
X137668000Y-53594000D03*
X142748000Y-61214000D03*
X140208000Y-53594000D03*
X140208000Y-61214000D03*
X142748000Y-53594000D03*
X137668000Y-61214000D03*
X145288000Y-53594000D03*
X135128000Y-61214000D03*
X147828000Y-53594000D03*
D11*
X132588000Y-61214000D03*
D10*
X170942000Y-61468000D03*
X186182000Y-69088000D03*
X173482000Y-61468000D03*
X183642000Y-69088000D03*
X176022000Y-61468000D03*
X181102000Y-69088000D03*
X178562000Y-61468000D03*
X178562000Y-69088000D03*
X181102000Y-61468000D03*
X176022000Y-69088000D03*
X183642000Y-61468000D03*
X173482000Y-69088000D03*
X186182000Y-61468000D03*
D11*
X170942000Y-69088000D03*
D10*
X170942000Y-71882000D03*
X186182000Y-79502000D03*
X173482000Y-71882000D03*
X183642000Y-79502000D03*
X176022000Y-71882000D03*
X181102000Y-79502000D03*
X178562000Y-71882000D03*
X178562000Y-79502000D03*
X181102000Y-71882000D03*
X176022000Y-79502000D03*
X183642000Y-71882000D03*
X173482000Y-79502000D03*
X186182000Y-71882000D03*
D11*
X170942000Y-79502000D03*
D10*
X132588000Y-64262000D03*
X165608000Y-79502000D03*
X135128000Y-64262000D03*
X163068000Y-79502000D03*
X137668000Y-64262000D03*
X160528000Y-79502000D03*
X140208000Y-64262000D03*
X157988000Y-79502000D03*
X142748000Y-64262000D03*
X155448000Y-79502000D03*
X145288000Y-64262000D03*
X152908000Y-79502000D03*
X147828000Y-64262000D03*
X150368000Y-79502000D03*
X150368000Y-64262000D03*
X147828000Y-79502000D03*
X152908000Y-64262000D03*
X145288000Y-79502000D03*
X155448000Y-64262000D03*
X142748000Y-79502000D03*
X157988000Y-64262000D03*
X140208000Y-79502000D03*
X160528000Y-64262000D03*
X137668000Y-79502000D03*
X163068000Y-64262000D03*
X135128000Y-79502000D03*
X165608000Y-64262000D03*
D11*
X132588000Y-79502000D03*
D12*
X176958000Y-74676000D03*
X171958000Y-74676000D03*
X165942000Y-58928000D03*
X170942000Y-58928000D03*
X137588000Y-50800000D03*
X132588000Y-50800000D03*
X138604000Y-68072000D03*
X133604000Y-68072000D03*
D13*
X183776000Y-51562000D03*
D14*
X176276000Y-51562000D03*
D15*
X132626100Y-114452400D03*
X135166100Y-114452400D03*
X137706100Y-114452400D03*
X140246100Y-114452400D03*
X142786100Y-114452400D03*
X145326100Y-114452400D03*
X147866100Y-114452400D03*
X150406100Y-114452400D03*
X152946100Y-114452400D03*
X155486100Y-114452400D03*
X158026100Y-114452400D03*
X160566100Y-114452400D03*
X163106100Y-114452400D03*
X165646100Y-114452400D03*
X168186100Y-114452400D03*
X170726100Y-114452400D03*
X173266100Y-114452400D03*
X175806100Y-114452400D03*
X178346100Y-114452400D03*
X180886100Y-114452400D03*
X183426100Y-114452400D03*
X185966100Y-114452400D03*
D16*
X185928000Y-91186000D03*
X185928000Y-88646000D03*
X183388000Y-91186000D03*
X183388000Y-88646000D03*
X180848000Y-91186000D03*
X180848000Y-88646000D03*
X178308000Y-91186000D03*
X178308000Y-88646000D03*
X175768000Y-91186000D03*
X175768000Y-88646000D03*
X173228000Y-91186000D03*
X173228000Y-88646000D03*
X170688000Y-91186000D03*
X170688000Y-88646000D03*
X168148000Y-91186000D03*
X168148000Y-88646000D03*
X165608000Y-91186000D03*
X165608000Y-88646000D03*
X163068000Y-91186000D03*
X163068000Y-88646000D03*
X160528000Y-91186000D03*
X160528000Y-88646000D03*
X157988000Y-91186000D03*
X157988000Y-88646000D03*
X155448000Y-91186000D03*
X155448000Y-88646000D03*
X152908000Y-91186000D03*
X152908000Y-88646000D03*
X150368000Y-91186000D03*
X150368000Y-88646000D03*
X147828000Y-91186000D03*
X147828000Y-88646000D03*
X145288000Y-91186000D03*
X145288000Y-88646000D03*
X142748000Y-91186000D03*
X142748000Y-88646000D03*
X140208000Y-91186000D03*
X140208000Y-88646000D03*
X137668000Y-91186000D03*
X137668000Y-88646000D03*
X135128000Y-91186000D03*
X135128000Y-88646000D03*
X132588000Y-91186000D03*
D17*
X132588000Y-88646000D03*
D18*
X155194000Y-75946000D03*
X162814000Y-75946000D03*
X166370000Y-76454000D03*
X170541999Y-76454000D03*
X167386000Y-86614000D03*
X148082000Y-77216000D03*
X155702000Y-77216000D03*
X162814000Y-77216000D03*
X166624000Y-81788000D03*
X143510000Y-86614000D03*
X156718000Y-83566000D03*
X132334000Y-77216000D03*
X159331098Y-115824000D03*
X166116000Y-85852000D03*
X159512000Y-73406000D03*
X163068000Y-73406000D03*
X165862000Y-73406000D03*
X152654000Y-69596000D03*
X149098000Y-69596000D03*
X177292000Y-63246000D03*
D19*
X131741100Y-114452400D02*
X132626100Y-114452400D01*
X131412999Y-114124299D02*
X131741100Y-114452400D01*
X131412999Y-88721001D02*
X131412999Y-114124299D01*
X131488000Y-88646000D02*
X131412999Y-88721001D01*
X132588000Y-88646000D02*
X131488000Y-88646000D01*
X134281100Y-114452400D02*
X135166100Y-114452400D01*
X133952999Y-114124299D02*
X134281100Y-114452400D01*
X133952999Y-89821001D02*
X133952999Y-114124299D01*
X135128000Y-88646000D02*
X133952999Y-89821001D01*
X136492999Y-114124299D02*
X136821100Y-114452400D01*
X136492999Y-89821001D02*
X136492999Y-114124299D01*
X136821100Y-114452400D02*
X137706100Y-114452400D01*
X137668000Y-88646000D02*
X136492999Y-89821001D01*
X139361100Y-114452400D02*
X140246100Y-114452400D01*
X139032999Y-114124299D02*
X139361100Y-114452400D01*
X139032999Y-89821001D02*
X139032999Y-114124299D01*
X140208000Y-88646000D02*
X139032999Y-89821001D01*
X141572999Y-114124299D02*
X141901100Y-114452400D01*
X141572999Y-90621999D02*
X141572999Y-114124299D01*
X142748000Y-89446998D02*
X141572999Y-90621999D01*
X141901100Y-114452400D02*
X142786100Y-114452400D01*
X142748000Y-88646000D02*
X142748000Y-89446998D01*
X141898001Y-87796001D02*
X142748000Y-88646000D01*
X132663001Y-80627001D02*
X134729001Y-80627001D01*
X134729001Y-80627001D02*
X141898001Y-87796001D01*
X132588000Y-80552000D02*
X132663001Y-80627001D01*
X132588000Y-79502000D02*
X132588000Y-80552000D01*
X132588000Y-78452000D02*
X135094000Y-75946000D01*
X135094000Y-75946000D02*
X155194000Y-75946000D01*
X132588000Y-79502000D02*
X132588000Y-78452000D01*
X165862000Y-75946000D02*
X166370000Y-76454000D01*
X162814000Y-75946000D02*
X165862000Y-75946000D01*
X173482000Y-79394001D02*
X173482000Y-79502000D01*
X170541999Y-76454000D02*
X173482000Y-79394001D01*
X144112999Y-114124299D02*
X144441100Y-114452400D01*
X144441100Y-114452400D02*
X145326100Y-114452400D01*
X144112999Y-90621999D02*
X144112999Y-114124299D01*
X145288000Y-89446998D02*
X144112999Y-90621999D01*
X145288000Y-88646000D02*
X145288000Y-89446998D01*
X146981100Y-114452400D02*
X147866100Y-114452400D01*
X146652999Y-114124299D02*
X146981100Y-114452400D01*
X146652999Y-89821001D02*
X146652999Y-114124299D01*
X147828000Y-88646000D02*
X146652999Y-89821001D01*
X142748000Y-83566000D02*
X147828000Y-88646000D01*
X142748000Y-79502000D02*
X142748000Y-83566000D01*
X149521100Y-114452400D02*
X150406100Y-114452400D01*
X149192999Y-114124299D02*
X149521100Y-114452400D01*
X149192999Y-89821001D02*
X149192999Y-114124299D01*
X150368000Y-88646000D02*
X149192999Y-89821001D01*
X145288000Y-83566000D02*
X150368000Y-88646000D01*
X145288000Y-79502000D02*
X145288000Y-83566000D01*
X151543001Y-113934301D02*
X152061100Y-114452400D01*
X152061100Y-114452400D02*
X152946100Y-114452400D01*
X151543001Y-90010999D02*
X151543001Y-113934301D01*
X152908000Y-88646000D02*
X151543001Y-90010999D01*
X152058001Y-87796001D02*
X152908000Y-88646000D01*
X147828000Y-83566000D02*
X152058001Y-87796001D01*
X147828000Y-79502000D02*
X147828000Y-83566000D01*
X154601100Y-114452400D02*
X155486100Y-114452400D01*
X154272999Y-114124299D02*
X154601100Y-114452400D01*
X154272999Y-89821001D02*
X154272999Y-114124299D01*
X155448000Y-88646000D02*
X154272999Y-89821001D01*
X150368000Y-83566000D02*
X155448000Y-88646000D01*
X150368000Y-79502000D02*
X150368000Y-83566000D01*
X157141100Y-114452400D02*
X158026100Y-114452400D01*
X156623001Y-113934301D02*
X157141100Y-114452400D01*
X156623001Y-90010999D02*
X156623001Y-113934301D01*
X157988000Y-88646000D02*
X156623001Y-90010999D01*
X152908000Y-83566000D02*
X157988000Y-88646000D01*
X152908000Y-79502000D02*
X152908000Y-83566000D01*
X159681100Y-114452400D02*
X160566100Y-114452400D01*
X159163001Y-113934301D02*
X159681100Y-114452400D01*
X159163001Y-90010999D02*
X159163001Y-113934301D01*
X160528000Y-88646000D02*
X159163001Y-90010999D01*
X155448000Y-83566000D02*
X160528000Y-88646000D01*
X155448000Y-79502000D02*
X155448000Y-83566000D01*
X164761100Y-114452400D02*
X165646100Y-114452400D01*
X164432999Y-114124299D02*
X164761100Y-114452400D01*
X164432999Y-89821001D02*
X164432999Y-114124299D01*
X165608000Y-88646000D02*
X164432999Y-89821001D01*
X160528000Y-83566000D02*
X165608000Y-88646000D01*
X160528000Y-79502000D02*
X160528000Y-83566000D01*
X167301100Y-114452400D02*
X168186100Y-114452400D01*
X166972999Y-114124299D02*
X167301100Y-114452400D01*
X166972999Y-89821001D02*
X166972999Y-114124299D01*
X168148000Y-88646000D02*
X166972999Y-89821001D01*
X168148000Y-87443919D02*
X168148000Y-88646000D01*
X168148000Y-67933370D02*
X168148000Y-87443919D01*
X165608000Y-65393370D02*
X168148000Y-67933370D01*
X165608000Y-64262000D02*
X165608000Y-65393370D01*
X169841100Y-114452400D02*
X170726100Y-114452400D01*
X169512999Y-114124299D02*
X169841100Y-114452400D01*
X169512999Y-89821001D02*
X169512999Y-114124299D01*
X170688000Y-88646000D02*
X169512999Y-89821001D01*
X167386000Y-71120000D02*
X167386000Y-86614000D01*
X160528000Y-64262000D02*
X167386000Y-71120000D01*
X172381100Y-114452400D02*
X173266100Y-114452400D01*
X172052999Y-114124299D02*
X172381100Y-114452400D01*
X172052999Y-89821001D02*
X172052999Y-114124299D01*
X173228000Y-88646000D02*
X172052999Y-89821001D01*
X172378001Y-87796001D02*
X173228000Y-88646000D01*
X169816999Y-85234999D02*
X172378001Y-87796001D01*
X169816999Y-66805997D02*
X169816999Y-85234999D01*
X166148001Y-63136999D02*
X169816999Y-66805997D01*
X156573001Y-63136999D02*
X166148001Y-63136999D01*
X155448000Y-64262000D02*
X156573001Y-63136999D01*
X174921100Y-114452400D02*
X175806100Y-114452400D01*
X174592999Y-114124299D02*
X174921100Y-114452400D01*
X174592999Y-89821001D02*
X174592999Y-114124299D01*
X175768000Y-88646000D02*
X174592999Y-89821001D01*
X176617999Y-87796001D02*
X175768000Y-88646000D01*
X177147001Y-79251997D02*
X177147001Y-87266999D01*
X178083001Y-78315997D02*
X177147001Y-79251997D01*
X178083001Y-74197001D02*
X178083001Y-78315997D01*
X177436999Y-73550999D02*
X178083001Y-74197001D01*
X177147001Y-87266999D02*
X176617999Y-87796001D01*
X177436999Y-68724999D02*
X177436999Y-73550999D01*
X176674999Y-67962999D02*
X177436999Y-68724999D01*
X175771997Y-67962999D02*
X176674999Y-67962999D01*
X170045979Y-62236981D02*
X175771997Y-67962999D01*
X149853019Y-62236981D02*
X170045979Y-62236981D01*
X147828000Y-64262000D02*
X149853019Y-62236981D01*
X177461100Y-114452400D02*
X178346100Y-114452400D01*
X177132999Y-114124299D02*
X177461100Y-114452400D01*
X177132999Y-89821001D02*
X177132999Y-114124299D01*
X178308000Y-88646000D02*
X177132999Y-89821001D01*
X179157999Y-87796001D02*
X178308000Y-88646000D01*
X184767001Y-82186999D02*
X179157999Y-87796001D01*
X184767001Y-71341999D02*
X184767001Y-82186999D01*
X184182001Y-70756999D02*
X184767001Y-71341999D01*
X182227001Y-69882001D02*
X183101999Y-70756999D01*
X183101999Y-70756999D02*
X184182001Y-70756999D01*
X181642001Y-67962999D02*
X182227001Y-68547999D01*
X180561999Y-67962999D02*
X181642001Y-67962999D01*
X174607001Y-62008001D02*
X180561999Y-67962999D01*
X174607001Y-60927999D02*
X174607001Y-62008001D01*
X171482001Y-57802999D02*
X174607001Y-60927999D01*
X146702999Y-60673999D02*
X149573999Y-57802999D01*
X146702999Y-61754001D02*
X146702999Y-60673999D01*
X147432998Y-62484000D02*
X146702999Y-61754001D01*
X144892998Y-62484000D02*
X147432998Y-62484000D01*
X144747999Y-62339001D02*
X144892998Y-62484000D01*
X138954589Y-62339001D02*
X144747999Y-62339001D01*
X138156591Y-63136999D02*
X138954589Y-62339001D01*
X182227001Y-68547999D02*
X182227001Y-69882001D01*
X149573999Y-57802999D02*
X171482001Y-57802999D01*
X136253001Y-63136999D02*
X138156591Y-63136999D01*
X135128000Y-64262000D02*
X136253001Y-63136999D01*
X179483001Y-113934301D02*
X180001100Y-114452400D01*
X180001100Y-114452400D02*
X180886100Y-114452400D01*
X179483001Y-90010999D02*
X179483001Y-113934301D01*
X180848000Y-88646000D02*
X179483001Y-90010999D01*
X182541100Y-114452400D02*
X183426100Y-114452400D01*
X182212999Y-114124299D02*
X182541100Y-114452400D01*
X182212999Y-89821001D02*
X182212999Y-114124299D01*
X183388000Y-88646000D02*
X182212999Y-89821001D01*
X184752999Y-114124299D02*
X185081100Y-114452400D01*
X185081100Y-114452400D02*
X185966100Y-114452400D01*
X184752999Y-90432001D02*
X184752999Y-114124299D01*
X185928000Y-89257000D02*
X184752999Y-90432001D01*
X185928000Y-88646000D02*
X185928000Y-89257000D01*
X148082000Y-77216000D02*
X155702000Y-77216000D01*
X166228998Y-81788000D02*
X166624000Y-81788000D01*
X164482999Y-78884999D02*
X164482999Y-80042001D01*
X164482999Y-80042001D02*
X166228998Y-81788000D01*
X162814000Y-77216000D02*
X164482999Y-78884999D01*
X140208000Y-83312000D02*
X143510000Y-86614000D01*
X140208000Y-79502000D02*
X140208000Y-83312000D01*
X156718000Y-75692000D02*
X156718000Y-83566000D01*
X145288000Y-64262000D02*
X156718000Y-75692000D01*
X159331098Y-116907404D02*
X159331098Y-115824000D01*
X158921101Y-117317401D02*
X159331098Y-116907404D01*
X131731099Y-117317401D02*
X158921101Y-117317401D01*
X130962990Y-116549292D02*
X131731099Y-117317401D01*
X130962990Y-78587010D02*
X130962990Y-116549292D01*
X132334000Y-77216000D02*
X130962990Y-78587010D01*
X161653001Y-81389001D02*
X166116000Y-85852000D01*
X161653001Y-67927001D02*
X161653001Y-81389001D01*
X157988000Y-64262000D02*
X161653001Y-67927001D01*
X176617999Y-90336001D02*
X175768000Y-91186000D01*
X176617999Y-89699591D02*
X176617999Y-90336001D01*
X177132999Y-89184591D02*
X176617999Y-89699591D01*
X177132999Y-88081999D02*
X177132999Y-89184591D01*
X182227001Y-82987997D02*
X177132999Y-88081999D01*
X182227001Y-71341999D02*
X182227001Y-82987997D01*
X181642001Y-70756999D02*
X182227001Y-71341999D01*
X179976999Y-69628001D02*
X181105997Y-70756999D01*
X179976999Y-68837997D02*
X179976999Y-69628001D01*
X179102001Y-67962999D02*
X179976999Y-68837997D01*
X172356999Y-61217997D02*
X172356999Y-62008001D01*
X171482001Y-60342999D02*
X172356999Y-61217997D01*
X150731001Y-60342999D02*
X171482001Y-60342999D01*
X172356999Y-62008001D02*
X178311997Y-67962999D01*
X147937001Y-63136999D02*
X150731001Y-60342999D01*
X181105997Y-70756999D02*
X181642001Y-70756999D01*
X178311997Y-67962999D02*
X179102001Y-67962999D01*
X138793001Y-63136999D02*
X147937001Y-63136999D01*
X137668000Y-64262000D02*
X138793001Y-63136999D01*
X162221100Y-114452400D02*
X163106100Y-114452400D01*
X161703001Y-113934301D02*
X162221100Y-114452400D01*
X161703001Y-90010999D02*
X161703001Y-113934301D01*
X163068000Y-88646000D02*
X161703001Y-90010999D01*
X132588000Y-67056000D02*
X133604000Y-68072000D01*
X132588000Y-64262000D02*
X132588000Y-67056000D01*
X131788001Y-54393999D02*
X132588000Y-53594000D01*
X131462999Y-54719001D02*
X131788001Y-54393999D01*
X131462999Y-63136999D02*
X131462999Y-54719001D01*
X132588000Y-64262000D02*
X131462999Y-63136999D01*
X132588000Y-52462630D02*
X132588000Y-50800000D01*
X132588000Y-53594000D02*
X132588000Y-52462630D01*
X176276000Y-53012000D02*
X176276000Y-51562000D01*
X174568999Y-54719001D02*
X176276000Y-53012000D01*
X133713001Y-54719001D02*
X174568999Y-54719001D01*
X132588000Y-53594000D02*
X133713001Y-54719001D01*
X159402999Y-73515001D02*
X159512000Y-73406000D01*
X159402999Y-84980999D02*
X159402999Y-73515001D01*
X163068000Y-88646000D02*
X159402999Y-84980999D01*
X163068000Y-73406000D02*
X165862000Y-73406000D01*
X156464000Y-73406000D02*
X152654000Y-69596000D01*
X159512000Y-73406000D02*
X156464000Y-73406000D01*
X135128000Y-69596000D02*
X133604000Y-68072000D01*
X149098000Y-69596000D02*
X135128000Y-69596000D01*
X175222001Y-68288001D02*
X176022000Y-69088000D01*
X169620990Y-62686990D02*
X175222001Y-68288001D01*
X154483010Y-62686990D02*
X169620990Y-62686990D01*
X152908000Y-64262000D02*
X154483010Y-62686990D01*
X176022000Y-78370630D02*
X176022000Y-79502000D01*
X176022000Y-77074998D02*
X176022000Y-78370630D01*
X172356999Y-73409997D02*
X176022000Y-77074998D01*
X172356999Y-71552999D02*
X172356999Y-73409997D01*
X170942000Y-70138000D02*
X172356999Y-71552999D01*
X170942000Y-69088000D02*
X170942000Y-70138000D01*
X138989010Y-57352990D02*
X173571992Y-57352990D01*
X177292000Y-61072998D02*
X177292000Y-63246000D01*
X173571992Y-57352990D02*
X177292000Y-61072998D01*
X135128000Y-61214000D02*
X138989010Y-57352990D01*
M02*
