G04 #@! TF.GenerationSoftware,KiCad,Pcbnew,(5.1.5-0)*
G04 #@! TF.CreationDate,2022-08-09T08:10:04-04:00*
G04 #@! TF.ProjectId,breakout_board,62726561-6b6f-4757-945f-626f6172642e,rev?*
G04 #@! TF.SameCoordinates,Original*
G04 #@! TF.FileFunction,Legend,Top*
G04 #@! TF.FilePolarity,Positive*
%FSLAX46Y46*%
G04 Gerber Fmt 4.6, Leading zero omitted, Abs format (unit mm)*
G04 Created by KiCad (PCBNEW (5.1.5-0)) date 2022-08-09 08:10:04*
%MOMM*%
%LPD*%
G04 APERTURE LIST*
%ADD10C,0.150000*%
%ADD11C,0.250000*%
%ADD12C,0.200000*%
%ADD13C,0.350000*%
%ADD14C,0.120000*%
%ADD15R,1.372000X5.182000*%
%ADD16O,1.802000X1.802000*%
%ADD17R,1.802000X1.802000*%
G04 APERTURE END LIST*
D10*
X184499428Y-99861714D02*
X184737523Y-100528380D01*
X184975619Y-99861714D01*
X185880380Y-100528380D02*
X185308952Y-100528380D01*
X185594666Y-100528380D02*
X185594666Y-99528380D01*
X185499428Y-99671238D01*
X185404190Y-99766476D01*
X185308952Y-99814095D01*
X186308952Y-100433142D02*
X186356571Y-100480761D01*
X186308952Y-100528380D01*
X186261333Y-100480761D01*
X186308952Y-100433142D01*
X186308952Y-100528380D01*
X186975619Y-99528380D02*
X187070857Y-99528380D01*
X187166095Y-99576000D01*
X187213714Y-99623619D01*
X187261333Y-99718857D01*
X187308952Y-99909333D01*
X187308952Y-100147428D01*
X187261333Y-100337904D01*
X187213714Y-100433142D01*
X187166095Y-100480761D01*
X187070857Y-100528380D01*
X186975619Y-100528380D01*
X186880380Y-100480761D01*
X186832761Y-100433142D01*
X186785142Y-100337904D01*
X186737523Y-100147428D01*
X186737523Y-99909333D01*
X186785142Y-99718857D01*
X186832761Y-99623619D01*
X186880380Y-99576000D01*
X186975619Y-99528380D01*
D11*
X133321523Y-98694761D02*
X133321523Y-96694761D01*
X133988190Y-98123333D01*
X134654857Y-96694761D01*
X134654857Y-98694761D01*
X136464380Y-98694761D02*
X136464380Y-97647142D01*
X136369142Y-97456666D01*
X136178666Y-97361428D01*
X135797714Y-97361428D01*
X135607238Y-97456666D01*
X136464380Y-98599523D02*
X136273904Y-98694761D01*
X135797714Y-98694761D01*
X135607238Y-98599523D01*
X135512000Y-98409047D01*
X135512000Y-98218571D01*
X135607238Y-98028095D01*
X135797714Y-97932857D01*
X136273904Y-97932857D01*
X136464380Y-97837619D01*
X137131047Y-97361428D02*
X137892952Y-97361428D01*
X137416761Y-96694761D02*
X137416761Y-98409047D01*
X137512000Y-98599523D01*
X137702476Y-98694761D01*
X137892952Y-98694761D01*
X138273904Y-97361428D02*
X139035809Y-97361428D01*
X138559619Y-96694761D02*
X138559619Y-98409047D01*
X138654857Y-98599523D01*
X138845333Y-98694761D01*
X139035809Y-98694761D01*
X140464380Y-98599523D02*
X140273904Y-98694761D01*
X139892952Y-98694761D01*
X139702476Y-98599523D01*
X139607238Y-98409047D01*
X139607238Y-97647142D01*
X139702476Y-97456666D01*
X139892952Y-97361428D01*
X140273904Y-97361428D01*
X140464380Y-97456666D01*
X140559619Y-97647142D01*
X140559619Y-97837619D01*
X139607238Y-98028095D01*
X141702476Y-98694761D02*
X141512000Y-98599523D01*
X141416761Y-98409047D01*
X141416761Y-96694761D01*
X143892952Y-98123333D02*
X144845333Y-98123333D01*
X143702476Y-98694761D02*
X144369142Y-96694761D01*
X145035809Y-98694761D01*
X146559619Y-97361428D02*
X146559619Y-99361428D01*
X146559619Y-98599523D02*
X146369142Y-98694761D01*
X145988190Y-98694761D01*
X145797714Y-98599523D01*
X145702476Y-98504285D01*
X145607238Y-98313809D01*
X145607238Y-97742380D01*
X145702476Y-97551904D01*
X145797714Y-97456666D01*
X145988190Y-97361428D01*
X146369142Y-97361428D01*
X146559619Y-97456666D01*
X148369142Y-97361428D02*
X148369142Y-98694761D01*
X147512000Y-97361428D02*
X147512000Y-98409047D01*
X147607238Y-98599523D01*
X147797714Y-98694761D01*
X148083428Y-98694761D01*
X148273904Y-98599523D01*
X148369142Y-98504285D01*
X150178666Y-98694761D02*
X150178666Y-97647142D01*
X150083428Y-97456666D01*
X149892952Y-97361428D01*
X149512000Y-97361428D01*
X149321523Y-97456666D01*
X150178666Y-98599523D02*
X149988190Y-98694761D01*
X149512000Y-98694761D01*
X149321523Y-98599523D01*
X149226285Y-98409047D01*
X149226285Y-98218571D01*
X149321523Y-98028095D01*
X149512000Y-97932857D01*
X149988190Y-97932857D01*
X150178666Y-97837619D01*
X151131047Y-98694761D02*
X151131047Y-97361428D01*
X151131047Y-97742380D02*
X151226285Y-97551904D01*
X151321523Y-97456666D01*
X151512000Y-97361428D01*
X151702476Y-97361428D01*
X152369142Y-98694761D02*
X152369142Y-97361428D01*
X152369142Y-96694761D02*
X152273904Y-96790000D01*
X152369142Y-96885238D01*
X152464380Y-96790000D01*
X152369142Y-96694761D01*
X152369142Y-96885238D01*
X154178666Y-97361428D02*
X154178666Y-98694761D01*
X153321523Y-97361428D02*
X153321523Y-98409047D01*
X153416761Y-98599523D01*
X153607238Y-98694761D01*
X153892952Y-98694761D01*
X154083428Y-98599523D01*
X154178666Y-98504285D01*
X155035809Y-98599523D02*
X155226285Y-98694761D01*
X155607238Y-98694761D01*
X155797714Y-98599523D01*
X155892952Y-98409047D01*
X155892952Y-98313809D01*
X155797714Y-98123333D01*
X155607238Y-98028095D01*
X155321523Y-98028095D01*
X155131047Y-97932857D01*
X155035809Y-97742380D01*
X155035809Y-97647142D01*
X155131047Y-97456666D01*
X155321523Y-97361428D01*
X155607238Y-97361428D01*
X155797714Y-97456666D01*
X159416761Y-98504285D02*
X159321523Y-98599523D01*
X159035809Y-98694761D01*
X158845333Y-98694761D01*
X158559619Y-98599523D01*
X158369142Y-98409047D01*
X158273904Y-98218571D01*
X158178666Y-97837619D01*
X158178666Y-97551904D01*
X158273904Y-97170952D01*
X158369142Y-96980476D01*
X158559619Y-96790000D01*
X158845333Y-96694761D01*
X159035809Y-96694761D01*
X159321523Y-96790000D01*
X159416761Y-96885238D01*
X161131047Y-98694761D02*
X161131047Y-97647142D01*
X161035809Y-97456666D01*
X160845333Y-97361428D01*
X160464380Y-97361428D01*
X160273904Y-97456666D01*
X161131047Y-98599523D02*
X160940571Y-98694761D01*
X160464380Y-98694761D01*
X160273904Y-98599523D01*
X160178666Y-98409047D01*
X160178666Y-98218571D01*
X160273904Y-98028095D01*
X160464380Y-97932857D01*
X160940571Y-97932857D01*
X161131047Y-97837619D01*
X162083428Y-98694761D02*
X162083428Y-97361428D01*
X162083428Y-97742380D02*
X162178666Y-97551904D01*
X162273904Y-97456666D01*
X162464380Y-97361428D01*
X162654857Y-97361428D01*
X163035809Y-97361428D02*
X163797714Y-97361428D01*
X163321523Y-96694761D02*
X163321523Y-98409047D01*
X163416761Y-98599523D01*
X163607238Y-98694761D01*
X163797714Y-98694761D01*
X164464380Y-98694761D02*
X164464380Y-97361428D01*
X164464380Y-97742380D02*
X164559619Y-97551904D01*
X164654857Y-97456666D01*
X164845333Y-97361428D01*
X165035809Y-97361428D01*
X165702476Y-98694761D02*
X165702476Y-97361428D01*
X165702476Y-96694761D02*
X165607238Y-96790000D01*
X165702476Y-96885238D01*
X165797714Y-96790000D01*
X165702476Y-96694761D01*
X165702476Y-96885238D01*
X167512000Y-98694761D02*
X167512000Y-96694761D01*
X167512000Y-98599523D02*
X167321523Y-98694761D01*
X166940571Y-98694761D01*
X166750095Y-98599523D01*
X166654857Y-98504285D01*
X166559619Y-98313809D01*
X166559619Y-97742380D01*
X166654857Y-97551904D01*
X166750095Y-97456666D01*
X166940571Y-97361428D01*
X167321523Y-97361428D01*
X167512000Y-97456666D01*
X169321523Y-97361428D02*
X169321523Y-98980476D01*
X169226285Y-99170952D01*
X169131047Y-99266190D01*
X168940571Y-99361428D01*
X168654857Y-99361428D01*
X168464380Y-99266190D01*
X169321523Y-98599523D02*
X169131047Y-98694761D01*
X168750095Y-98694761D01*
X168559619Y-98599523D01*
X168464380Y-98504285D01*
X168369142Y-98313809D01*
X168369142Y-97742380D01*
X168464380Y-97551904D01*
X168559619Y-97456666D01*
X168750095Y-97361428D01*
X169131047Y-97361428D01*
X169321523Y-97456666D01*
X171035809Y-98599523D02*
X170845333Y-98694761D01*
X170464380Y-98694761D01*
X170273904Y-98599523D01*
X170178666Y-98409047D01*
X170178666Y-97647142D01*
X170273904Y-97456666D01*
X170464380Y-97361428D01*
X170845333Y-97361428D01*
X171035809Y-97456666D01*
X171131047Y-97647142D01*
X171131047Y-97837619D01*
X170178666Y-98028095D01*
X174178666Y-97647142D02*
X174464380Y-97742380D01*
X174559619Y-97837619D01*
X174654857Y-98028095D01*
X174654857Y-98313809D01*
X174559619Y-98504285D01*
X174464380Y-98599523D01*
X174273904Y-98694761D01*
X173512000Y-98694761D01*
X173512000Y-96694761D01*
X174178666Y-96694761D01*
X174369142Y-96790000D01*
X174464380Y-96885238D01*
X174559619Y-97075714D01*
X174559619Y-97266190D01*
X174464380Y-97456666D01*
X174369142Y-97551904D01*
X174178666Y-97647142D01*
X173512000Y-97647142D01*
X175512000Y-98694761D02*
X175512000Y-97361428D01*
X175512000Y-97742380D02*
X175607238Y-97551904D01*
X175702476Y-97456666D01*
X175892952Y-97361428D01*
X176083428Y-97361428D01*
X177512000Y-98599523D02*
X177321523Y-98694761D01*
X176940571Y-98694761D01*
X176750095Y-98599523D01*
X176654857Y-98409047D01*
X176654857Y-97647142D01*
X176750095Y-97456666D01*
X176940571Y-97361428D01*
X177321523Y-97361428D01*
X177512000Y-97456666D01*
X177607238Y-97647142D01*
X177607238Y-97837619D01*
X176654857Y-98028095D01*
X179321523Y-98694761D02*
X179321523Y-97647142D01*
X179226285Y-97456666D01*
X179035809Y-97361428D01*
X178654857Y-97361428D01*
X178464380Y-97456666D01*
X179321523Y-98599523D02*
X179131047Y-98694761D01*
X178654857Y-98694761D01*
X178464380Y-98599523D01*
X178369142Y-98409047D01*
X178369142Y-98218571D01*
X178464380Y-98028095D01*
X178654857Y-97932857D01*
X179131047Y-97932857D01*
X179321523Y-97837619D01*
X180273904Y-98694761D02*
X180273904Y-96694761D01*
X180464380Y-97932857D02*
X181035809Y-98694761D01*
X181035809Y-97361428D02*
X180273904Y-98123333D01*
X182178666Y-98694761D02*
X181988190Y-98599523D01*
X181892952Y-98504285D01*
X181797714Y-98313809D01*
X181797714Y-97742380D01*
X181892952Y-97551904D01*
X181988190Y-97456666D01*
X182178666Y-97361428D01*
X182464380Y-97361428D01*
X182654857Y-97456666D01*
X182750095Y-97551904D01*
X182845333Y-97742380D01*
X182845333Y-98313809D01*
X182750095Y-98504285D01*
X182654857Y-98599523D01*
X182464380Y-98694761D01*
X182178666Y-98694761D01*
X184559619Y-97361428D02*
X184559619Y-98694761D01*
X183702476Y-97361428D02*
X183702476Y-98409047D01*
X183797714Y-98599523D01*
X183988190Y-98694761D01*
X184273904Y-98694761D01*
X184464380Y-98599523D01*
X184559619Y-98504285D01*
X185226285Y-97361428D02*
X185988190Y-97361428D01*
X185511999Y-96694761D02*
X185511999Y-98409047D01*
X185607238Y-98599523D01*
X185797714Y-98694761D01*
X185988190Y-98694761D01*
D10*
X138511595Y-107006380D02*
X138511595Y-106006380D01*
X139083023Y-107006380D01*
X139083023Y-106006380D01*
X139559214Y-107006380D02*
X139559214Y-106339714D01*
X139559214Y-106006380D02*
X139511595Y-106054000D01*
X139559214Y-106101619D01*
X139606833Y-106054000D01*
X139559214Y-106006380D01*
X139559214Y-106101619D01*
X140463976Y-106958761D02*
X140368738Y-107006380D01*
X140178261Y-107006380D01*
X140083023Y-106958761D01*
X140035404Y-106911142D01*
X139987785Y-106815904D01*
X139987785Y-106530190D01*
X140035404Y-106434952D01*
X140083023Y-106387333D01*
X140178261Y-106339714D01*
X140368738Y-106339714D01*
X140463976Y-106387333D01*
X140892547Y-107006380D02*
X140892547Y-106006380D01*
X140987785Y-106625428D02*
X141273500Y-107006380D01*
X141273500Y-106339714D02*
X140892547Y-106720666D01*
X142797309Y-106482571D02*
X142940166Y-106530190D01*
X142987785Y-106577809D01*
X143035404Y-106673047D01*
X143035404Y-106815904D01*
X142987785Y-106911142D01*
X142940166Y-106958761D01*
X142844928Y-107006380D01*
X142463976Y-107006380D01*
X142463976Y-106006380D01*
X142797309Y-106006380D01*
X142892547Y-106054000D01*
X142940166Y-106101619D01*
X142987785Y-106196857D01*
X142987785Y-106292095D01*
X142940166Y-106387333D01*
X142892547Y-106434952D01*
X142797309Y-106482571D01*
X142463976Y-106482571D01*
X143463976Y-107006380D02*
X143463976Y-106339714D01*
X143463976Y-106006380D02*
X143416357Y-106054000D01*
X143463976Y-106101619D01*
X143511595Y-106054000D01*
X143463976Y-106006380D01*
X143463976Y-106101619D01*
X144083023Y-107006380D02*
X143987785Y-106958761D01*
X143940166Y-106863523D01*
X143940166Y-106006380D01*
X144892547Y-107006380D02*
X144892547Y-106006380D01*
X144892547Y-106958761D02*
X144797309Y-107006380D01*
X144606833Y-107006380D01*
X144511595Y-106958761D01*
X144463976Y-106911142D01*
X144416357Y-106815904D01*
X144416357Y-106530190D01*
X144463976Y-106434952D01*
X144511595Y-106387333D01*
X144606833Y-106339714D01*
X144797309Y-106339714D01*
X144892547Y-106387333D01*
X138463976Y-108370666D02*
X138940166Y-108370666D01*
X138368738Y-108656380D02*
X138702071Y-107656380D01*
X139035404Y-108656380D01*
X139797309Y-107989714D02*
X139797309Y-108656380D01*
X139368738Y-107989714D02*
X139368738Y-108513523D01*
X139416357Y-108608761D01*
X139511595Y-108656380D01*
X139654452Y-108656380D01*
X139749690Y-108608761D01*
X139797309Y-108561142D01*
X140702071Y-107989714D02*
X140702071Y-108799238D01*
X140654452Y-108894476D01*
X140606833Y-108942095D01*
X140511595Y-108989714D01*
X140368738Y-108989714D01*
X140273500Y-108942095D01*
X140702071Y-108608761D02*
X140606833Y-108656380D01*
X140416357Y-108656380D01*
X140321119Y-108608761D01*
X140273500Y-108561142D01*
X140225880Y-108465904D01*
X140225880Y-108180190D01*
X140273500Y-108084952D01*
X140321119Y-108037333D01*
X140416357Y-107989714D01*
X140606833Y-107989714D01*
X140702071Y-108037333D01*
X141606833Y-107989714D02*
X141606833Y-108656380D01*
X141178261Y-107989714D02*
X141178261Y-108513523D01*
X141225880Y-108608761D01*
X141321119Y-108656380D01*
X141463976Y-108656380D01*
X141559214Y-108608761D01*
X141606833Y-108561142D01*
X142035404Y-108608761D02*
X142130642Y-108656380D01*
X142321119Y-108656380D01*
X142416357Y-108608761D01*
X142463976Y-108513523D01*
X142463976Y-108465904D01*
X142416357Y-108370666D01*
X142321119Y-108323047D01*
X142178261Y-108323047D01*
X142083023Y-108275428D01*
X142035404Y-108180190D01*
X142035404Y-108132571D01*
X142083023Y-108037333D01*
X142178261Y-107989714D01*
X142321119Y-107989714D01*
X142416357Y-108037333D01*
X142749690Y-107989714D02*
X143130642Y-107989714D01*
X142892547Y-107656380D02*
X142892547Y-108513523D01*
X142940166Y-108608761D01*
X143035404Y-108656380D01*
X143130642Y-108656380D01*
X144178261Y-107751619D02*
X144225880Y-107704000D01*
X144321119Y-107656380D01*
X144559214Y-107656380D01*
X144654452Y-107704000D01*
X144702071Y-107751619D01*
X144749690Y-107846857D01*
X144749690Y-107942095D01*
X144702071Y-108084952D01*
X144130642Y-108656380D01*
X144749690Y-108656380D01*
X145368738Y-107656380D02*
X145463976Y-107656380D01*
X145559214Y-107704000D01*
X145606833Y-107751619D01*
X145654452Y-107846857D01*
X145702071Y-108037333D01*
X145702071Y-108275428D01*
X145654452Y-108465904D01*
X145606833Y-108561142D01*
X145559214Y-108608761D01*
X145463976Y-108656380D01*
X145368738Y-108656380D01*
X145273500Y-108608761D01*
X145225880Y-108561142D01*
X145178261Y-108465904D01*
X145130642Y-108275428D01*
X145130642Y-108037333D01*
X145178261Y-107846857D01*
X145225880Y-107751619D01*
X145273500Y-107704000D01*
X145368738Y-107656380D01*
X146083023Y-107751619D02*
X146130642Y-107704000D01*
X146225880Y-107656380D01*
X146463976Y-107656380D01*
X146559214Y-107704000D01*
X146606833Y-107751619D01*
X146654452Y-107846857D01*
X146654452Y-107942095D01*
X146606833Y-108084952D01*
X146035404Y-108656380D01*
X146654452Y-108656380D01*
X147035404Y-107751619D02*
X147083023Y-107704000D01*
X147178261Y-107656380D01*
X147416357Y-107656380D01*
X147511595Y-107704000D01*
X147559214Y-107751619D01*
X147606833Y-107846857D01*
X147606833Y-107942095D01*
X147559214Y-108084952D01*
X146987785Y-108656380D01*
X147606833Y-108656380D01*
X138511595Y-110306380D02*
X138511595Y-109306380D01*
X138940166Y-110306380D02*
X138940166Y-109782571D01*
X138892547Y-109687333D01*
X138797309Y-109639714D01*
X138654452Y-109639714D01*
X138559214Y-109687333D01*
X138511595Y-109734952D01*
X139273500Y-109639714D02*
X139654452Y-109639714D01*
X139416357Y-109306380D02*
X139416357Y-110163523D01*
X139463976Y-110258761D01*
X139559214Y-110306380D01*
X139654452Y-110306380D01*
X139844928Y-109639714D02*
X140225880Y-109639714D01*
X139987785Y-109306380D02*
X139987785Y-110163523D01*
X140035404Y-110258761D01*
X140130642Y-110306380D01*
X140225880Y-110306380D01*
X140559214Y-109639714D02*
X140559214Y-110639714D01*
X140559214Y-109687333D02*
X140654452Y-109639714D01*
X140844928Y-109639714D01*
X140940166Y-109687333D01*
X140987785Y-109734952D01*
X141035404Y-109830190D01*
X141035404Y-110115904D01*
X140987785Y-110211142D01*
X140940166Y-110258761D01*
X140844928Y-110306380D01*
X140654452Y-110306380D01*
X140559214Y-110258761D01*
X141416357Y-110258761D02*
X141511595Y-110306380D01*
X141702071Y-110306380D01*
X141797309Y-110258761D01*
X141844928Y-110163523D01*
X141844928Y-110115904D01*
X141797309Y-110020666D01*
X141702071Y-109973047D01*
X141559214Y-109973047D01*
X141463976Y-109925428D01*
X141416357Y-109830190D01*
X141416357Y-109782571D01*
X141463976Y-109687333D01*
X141559214Y-109639714D01*
X141702071Y-109639714D01*
X141797309Y-109687333D01*
X142273500Y-110211142D02*
X142321119Y-110258761D01*
X142273500Y-110306380D01*
X142225880Y-110258761D01*
X142273500Y-110211142D01*
X142273500Y-110306380D01*
X142273500Y-109687333D02*
X142321119Y-109734952D01*
X142273500Y-109782571D01*
X142225880Y-109734952D01*
X142273500Y-109687333D01*
X142273500Y-109782571D01*
X143463976Y-109258761D02*
X142606833Y-110544476D01*
X144511595Y-109258761D02*
X143654452Y-110544476D01*
X145273500Y-109639714D02*
X145273500Y-110449238D01*
X145225880Y-110544476D01*
X145178261Y-110592095D01*
X145083023Y-110639714D01*
X144940166Y-110639714D01*
X144844928Y-110592095D01*
X145273500Y-110258761D02*
X145178261Y-110306380D01*
X144987785Y-110306380D01*
X144892547Y-110258761D01*
X144844928Y-110211142D01*
X144797309Y-110115904D01*
X144797309Y-109830190D01*
X144844928Y-109734952D01*
X144892547Y-109687333D01*
X144987785Y-109639714D01*
X145178261Y-109639714D01*
X145273500Y-109687333D01*
X145749690Y-110306380D02*
X145749690Y-109639714D01*
X145749690Y-109306380D02*
X145702071Y-109354000D01*
X145749690Y-109401619D01*
X145797309Y-109354000D01*
X145749690Y-109306380D01*
X145749690Y-109401619D01*
X146083023Y-109639714D02*
X146463976Y-109639714D01*
X146225880Y-109306380D02*
X146225880Y-110163523D01*
X146273500Y-110258761D01*
X146368738Y-110306380D01*
X146463976Y-110306380D01*
X146797309Y-110306380D02*
X146797309Y-109306380D01*
X147225880Y-110306380D02*
X147225880Y-109782571D01*
X147178261Y-109687333D01*
X147083023Y-109639714D01*
X146940166Y-109639714D01*
X146844928Y-109687333D01*
X146797309Y-109734952D01*
X148130642Y-109639714D02*
X148130642Y-110306380D01*
X147702071Y-109639714D02*
X147702071Y-110163523D01*
X147749690Y-110258761D01*
X147844928Y-110306380D01*
X147987785Y-110306380D01*
X148083023Y-110258761D01*
X148130642Y-110211142D01*
X148606833Y-110306380D02*
X148606833Y-109306380D01*
X148606833Y-109687333D02*
X148702071Y-109639714D01*
X148892547Y-109639714D01*
X148987785Y-109687333D01*
X149035404Y-109734952D01*
X149083023Y-109830190D01*
X149083023Y-110115904D01*
X149035404Y-110211142D01*
X148987785Y-110258761D01*
X148892547Y-110306380D01*
X148702071Y-110306380D01*
X148606833Y-110258761D01*
X149511595Y-110211142D02*
X149559214Y-110258761D01*
X149511595Y-110306380D01*
X149463976Y-110258761D01*
X149511595Y-110211142D01*
X149511595Y-110306380D01*
X150416357Y-110258761D02*
X150321119Y-110306380D01*
X150130642Y-110306380D01*
X150035404Y-110258761D01*
X149987785Y-110211142D01*
X149940166Y-110115904D01*
X149940166Y-109830190D01*
X149987785Y-109734952D01*
X150035404Y-109687333D01*
X150130642Y-109639714D01*
X150321119Y-109639714D01*
X150416357Y-109687333D01*
X150987785Y-110306380D02*
X150892547Y-110258761D01*
X150844928Y-110211142D01*
X150797309Y-110115904D01*
X150797309Y-109830190D01*
X150844928Y-109734952D01*
X150892547Y-109687333D01*
X150987785Y-109639714D01*
X151130642Y-109639714D01*
X151225880Y-109687333D01*
X151273500Y-109734952D01*
X151321119Y-109830190D01*
X151321119Y-110115904D01*
X151273500Y-110211142D01*
X151225880Y-110258761D01*
X151130642Y-110306380D01*
X150987785Y-110306380D01*
X151749690Y-110306380D02*
X151749690Y-109639714D01*
X151749690Y-109734952D02*
X151797309Y-109687333D01*
X151892547Y-109639714D01*
X152035404Y-109639714D01*
X152130642Y-109687333D01*
X152178261Y-109782571D01*
X152178261Y-110306380D01*
X152178261Y-109782571D02*
X152225880Y-109687333D01*
X152321119Y-109639714D01*
X152463976Y-109639714D01*
X152559214Y-109687333D01*
X152606833Y-109782571D01*
X152606833Y-110306380D01*
X153797309Y-109258761D02*
X152940166Y-110544476D01*
X154130642Y-109639714D02*
X154130642Y-110306380D01*
X154130642Y-109734952D02*
X154178261Y-109687333D01*
X154273500Y-109639714D01*
X154416357Y-109639714D01*
X154511595Y-109687333D01*
X154559214Y-109782571D01*
X154559214Y-110306380D01*
X155035404Y-110306380D02*
X155035404Y-109639714D01*
X155035404Y-109306380D02*
X154987785Y-109354000D01*
X155035404Y-109401619D01*
X155083023Y-109354000D01*
X155035404Y-109306380D01*
X155035404Y-109401619D01*
X155940166Y-110258761D02*
X155844928Y-110306380D01*
X155654452Y-110306380D01*
X155559214Y-110258761D01*
X155511595Y-110211142D01*
X155463976Y-110115904D01*
X155463976Y-109830190D01*
X155511595Y-109734952D01*
X155559214Y-109687333D01*
X155654452Y-109639714D01*
X155844928Y-109639714D01*
X155940166Y-109687333D01*
X156368738Y-110306380D02*
X156368738Y-109306380D01*
X156463976Y-109925428D02*
X156749690Y-110306380D01*
X156749690Y-109639714D02*
X156368738Y-110020666D01*
X157178261Y-110306380D02*
X157178261Y-109306380D01*
X157178261Y-109687333D02*
X157273500Y-109639714D01*
X157463976Y-109639714D01*
X157559214Y-109687333D01*
X157606833Y-109734952D01*
X157654452Y-109830190D01*
X157654452Y-110115904D01*
X157606833Y-110211142D01*
X157559214Y-110258761D01*
X157463976Y-110306380D01*
X157273500Y-110306380D01*
X157178261Y-110258761D01*
X158083023Y-110306380D02*
X158083023Y-109639714D01*
X158083023Y-109306380D02*
X158035404Y-109354000D01*
X158083023Y-109401619D01*
X158130642Y-109354000D01*
X158083023Y-109306380D01*
X158083023Y-109401619D01*
X158702071Y-110306380D02*
X158606833Y-110258761D01*
X158559214Y-110163523D01*
X158559214Y-109306380D01*
X159511595Y-110306380D02*
X159511595Y-109306380D01*
X159511595Y-110258761D02*
X159416357Y-110306380D01*
X159225880Y-110306380D01*
X159130642Y-110258761D01*
X159083023Y-110211142D01*
X159035404Y-110115904D01*
X159035404Y-109830190D01*
X159083023Y-109734952D01*
X159130642Y-109687333D01*
X159225880Y-109639714D01*
X159416357Y-109639714D01*
X159511595Y-109687333D01*
X160702071Y-109258761D02*
X159844928Y-110544476D01*
X161463976Y-110306380D02*
X161463976Y-109782571D01*
X161416357Y-109687333D01*
X161321119Y-109639714D01*
X161130642Y-109639714D01*
X161035404Y-109687333D01*
X161463976Y-110258761D02*
X161368738Y-110306380D01*
X161130642Y-110306380D01*
X161035404Y-110258761D01*
X160987785Y-110163523D01*
X160987785Y-110068285D01*
X161035404Y-109973047D01*
X161130642Y-109925428D01*
X161368738Y-109925428D01*
X161463976Y-109877809D01*
X162368738Y-109639714D02*
X162368738Y-110639714D01*
X162368738Y-110258761D02*
X162273500Y-110306380D01*
X162083023Y-110306380D01*
X161987785Y-110258761D01*
X161940166Y-110211142D01*
X161892547Y-110115904D01*
X161892547Y-109830190D01*
X161940166Y-109734952D01*
X161987785Y-109687333D01*
X162083023Y-109639714D01*
X162273500Y-109639714D01*
X162368738Y-109687333D01*
X163273500Y-109639714D02*
X163273500Y-110306380D01*
X162844928Y-109639714D02*
X162844928Y-110163523D01*
X162892547Y-110258761D01*
X162987785Y-110306380D01*
X163130642Y-110306380D01*
X163225880Y-110258761D01*
X163273500Y-110211142D01*
X164178261Y-110306380D02*
X164178261Y-109782571D01*
X164130642Y-109687333D01*
X164035404Y-109639714D01*
X163844928Y-109639714D01*
X163749690Y-109687333D01*
X164178261Y-110258761D02*
X164083023Y-110306380D01*
X163844928Y-110306380D01*
X163749690Y-110258761D01*
X163702071Y-110163523D01*
X163702071Y-110068285D01*
X163749690Y-109973047D01*
X163844928Y-109925428D01*
X164083023Y-109925428D01*
X164178261Y-109877809D01*
X164654452Y-110306380D02*
X164654452Y-109639714D01*
X164654452Y-109830190D02*
X164702071Y-109734952D01*
X164749690Y-109687333D01*
X164844928Y-109639714D01*
X164940166Y-109639714D01*
X165273500Y-110306380D02*
X165273500Y-109639714D01*
X165273500Y-109306380D02*
X165225880Y-109354000D01*
X165273500Y-109401619D01*
X165321119Y-109354000D01*
X165273500Y-109306380D01*
X165273500Y-109401619D01*
X166178261Y-109639714D02*
X166178261Y-110306380D01*
X165749690Y-109639714D02*
X165749690Y-110163523D01*
X165797309Y-110258761D01*
X165892547Y-110306380D01*
X166035404Y-110306380D01*
X166130642Y-110258761D01*
X166178261Y-110211142D01*
X166606833Y-110258761D02*
X166702071Y-110306380D01*
X166892547Y-110306380D01*
X166987785Y-110258761D01*
X167035404Y-110163523D01*
X167035404Y-110115904D01*
X166987785Y-110020666D01*
X166892547Y-109973047D01*
X166749690Y-109973047D01*
X166654452Y-109925428D01*
X166606833Y-109830190D01*
X166606833Y-109782571D01*
X166654452Y-109687333D01*
X166749690Y-109639714D01*
X166892547Y-109639714D01*
X166987785Y-109687333D01*
X167225880Y-110401619D02*
X167987785Y-110401619D01*
X168654452Y-110258761D02*
X168559214Y-110306380D01*
X168368738Y-110306380D01*
X168273500Y-110258761D01*
X168225880Y-110211142D01*
X168178261Y-110115904D01*
X168178261Y-109830190D01*
X168225880Y-109734952D01*
X168273500Y-109687333D01*
X168368738Y-109639714D01*
X168559214Y-109639714D01*
X168654452Y-109687333D01*
X169511595Y-110306380D02*
X169511595Y-109782571D01*
X169463976Y-109687333D01*
X169368738Y-109639714D01*
X169178261Y-109639714D01*
X169083023Y-109687333D01*
X169511595Y-110258761D02*
X169416357Y-110306380D01*
X169178261Y-110306380D01*
X169083023Y-110258761D01*
X169035404Y-110163523D01*
X169035404Y-110068285D01*
X169083023Y-109973047D01*
X169178261Y-109925428D01*
X169416357Y-109925428D01*
X169511595Y-109877809D01*
X169987785Y-110306380D02*
X169987785Y-109639714D01*
X169987785Y-109830190D02*
X170035404Y-109734952D01*
X170083023Y-109687333D01*
X170178261Y-109639714D01*
X170273500Y-109639714D01*
X170463976Y-109639714D02*
X170844928Y-109639714D01*
X170606833Y-109306380D02*
X170606833Y-110163523D01*
X170654452Y-110258761D01*
X170749690Y-110306380D01*
X170844928Y-110306380D01*
X171178261Y-110306380D02*
X171178261Y-109639714D01*
X171178261Y-109830190D02*
X171225880Y-109734952D01*
X171273500Y-109687333D01*
X171368738Y-109639714D01*
X171463976Y-109639714D01*
X171797309Y-110306380D02*
X171797309Y-109639714D01*
X171797309Y-109306380D02*
X171749690Y-109354000D01*
X171797309Y-109401619D01*
X171844928Y-109354000D01*
X171797309Y-109306380D01*
X171797309Y-109401619D01*
X172702071Y-110306380D02*
X172702071Y-109306380D01*
X172702071Y-110258761D02*
X172606833Y-110306380D01*
X172416357Y-110306380D01*
X172321119Y-110258761D01*
X172273500Y-110211142D01*
X172225880Y-110115904D01*
X172225880Y-109830190D01*
X172273500Y-109734952D01*
X172321119Y-109687333D01*
X172416357Y-109639714D01*
X172606833Y-109639714D01*
X172702071Y-109687333D01*
X173606833Y-109639714D02*
X173606833Y-110449238D01*
X173559214Y-110544476D01*
X173511595Y-110592095D01*
X173416357Y-110639714D01*
X173273500Y-110639714D01*
X173178261Y-110592095D01*
X173606833Y-110258761D02*
X173511595Y-110306380D01*
X173321119Y-110306380D01*
X173225880Y-110258761D01*
X173178261Y-110211142D01*
X173130642Y-110115904D01*
X173130642Y-109830190D01*
X173178261Y-109734952D01*
X173225880Y-109687333D01*
X173321119Y-109639714D01*
X173511595Y-109639714D01*
X173606833Y-109687333D01*
X174463976Y-110258761D02*
X174368738Y-110306380D01*
X174178261Y-110306380D01*
X174083023Y-110258761D01*
X174035404Y-110163523D01*
X174035404Y-109782571D01*
X174083023Y-109687333D01*
X174178261Y-109639714D01*
X174368738Y-109639714D01*
X174463976Y-109687333D01*
X174511595Y-109782571D01*
X174511595Y-109877809D01*
X174035404Y-109973047D01*
X174702071Y-110401619D02*
X175463976Y-110401619D01*
X175702071Y-110306380D02*
X175702071Y-109306380D01*
X175702071Y-109687333D02*
X175797309Y-109639714D01*
X175987785Y-109639714D01*
X176083023Y-109687333D01*
X176130642Y-109734952D01*
X176178261Y-109830190D01*
X176178261Y-110115904D01*
X176130642Y-110211142D01*
X176083023Y-110258761D01*
X175987785Y-110306380D01*
X175797309Y-110306380D01*
X175702071Y-110258761D01*
X176606833Y-110306380D02*
X176606833Y-109639714D01*
X176606833Y-109830190D02*
X176654452Y-109734952D01*
X176702071Y-109687333D01*
X176797309Y-109639714D01*
X176892547Y-109639714D01*
X177606833Y-110258761D02*
X177511595Y-110306380D01*
X177321119Y-110306380D01*
X177225880Y-110258761D01*
X177178261Y-110163523D01*
X177178261Y-109782571D01*
X177225880Y-109687333D01*
X177321119Y-109639714D01*
X177511595Y-109639714D01*
X177606833Y-109687333D01*
X177654452Y-109782571D01*
X177654452Y-109877809D01*
X177178261Y-109973047D01*
X178511595Y-110306380D02*
X178511595Y-109782571D01*
X178463976Y-109687333D01*
X178368738Y-109639714D01*
X178178261Y-109639714D01*
X178083023Y-109687333D01*
X178511595Y-110258761D02*
X178416357Y-110306380D01*
X178178261Y-110306380D01*
X178083023Y-110258761D01*
X178035404Y-110163523D01*
X178035404Y-110068285D01*
X178083023Y-109973047D01*
X178178261Y-109925428D01*
X178416357Y-109925428D01*
X178511595Y-109877809D01*
X178987785Y-110306380D02*
X178987785Y-109306380D01*
X179083023Y-109925428D02*
X179368738Y-110306380D01*
X179368738Y-109639714D02*
X178987785Y-110020666D01*
X179940166Y-110306380D02*
X179844928Y-110258761D01*
X179797309Y-110211142D01*
X179749690Y-110115904D01*
X179749690Y-109830190D01*
X179797309Y-109734952D01*
X179844928Y-109687333D01*
X179940166Y-109639714D01*
X180083023Y-109639714D01*
X180178261Y-109687333D01*
X180225880Y-109734952D01*
X180273500Y-109830190D01*
X180273500Y-110115904D01*
X180225880Y-110211142D01*
X180178261Y-110258761D01*
X180083023Y-110306380D01*
X179940166Y-110306380D01*
X181130642Y-109639714D02*
X181130642Y-110306380D01*
X180702071Y-109639714D02*
X180702071Y-110163523D01*
X180749690Y-110258761D01*
X180844928Y-110306380D01*
X180987785Y-110306380D01*
X181083023Y-110258761D01*
X181130642Y-110211142D01*
X181463976Y-109639714D02*
X181844928Y-109639714D01*
X181606833Y-109306380D02*
X181606833Y-110163523D01*
X181654452Y-110258761D01*
X181749690Y-110306380D01*
X181844928Y-110306380D01*
D12*
X185642285Y-94019714D02*
X185642285Y-94686380D01*
X185404190Y-93638761D02*
X185166095Y-94353047D01*
X185785142Y-94353047D01*
X186594666Y-94019714D02*
X186594666Y-94686380D01*
X186356571Y-93638761D02*
X186118476Y-94353047D01*
X186737523Y-94353047D01*
X135318476Y-94019714D02*
X135318476Y-94686380D01*
X135080380Y-93638761D02*
X134842285Y-94353047D01*
X135461333Y-94353047D01*
X132302285Y-93781619D02*
X132349904Y-93734000D01*
X132445142Y-93686380D01*
X132683238Y-93686380D01*
X132778476Y-93734000D01*
X132826095Y-93781619D01*
X132873714Y-93876857D01*
X132873714Y-93972095D01*
X132826095Y-94114952D01*
X132254666Y-94686380D01*
X132873714Y-94686380D01*
X185642285Y-85637714D02*
X185642285Y-86304380D01*
X185404190Y-85256761D02*
X185166095Y-85971047D01*
X185785142Y-85971047D01*
X186070857Y-85304380D02*
X186689904Y-85304380D01*
X186356571Y-85685333D01*
X186499428Y-85685333D01*
X186594666Y-85732952D01*
X186642285Y-85780571D01*
X186689904Y-85875809D01*
X186689904Y-86113904D01*
X186642285Y-86209142D01*
X186594666Y-86256761D01*
X186499428Y-86304380D01*
X186213714Y-86304380D01*
X186118476Y-86256761D01*
X186070857Y-86209142D01*
X134794666Y-85304380D02*
X135413714Y-85304380D01*
X135080380Y-85685333D01*
X135223238Y-85685333D01*
X135318476Y-85732952D01*
X135366095Y-85780571D01*
X135413714Y-85875809D01*
X135413714Y-86113904D01*
X135366095Y-86209142D01*
X135318476Y-86256761D01*
X135223238Y-86304380D01*
X134937523Y-86304380D01*
X134842285Y-86256761D01*
X134794666Y-86209142D01*
X132873714Y-86304380D02*
X132302285Y-86304380D01*
X132588000Y-86304380D02*
X132588000Y-85304380D01*
X132492761Y-85447238D01*
X132397523Y-85542476D01*
X132302285Y-85590095D01*
X185642285Y-109767714D02*
X185642285Y-110434380D01*
X185404190Y-109386761D02*
X185166095Y-110101047D01*
X185785142Y-110101047D01*
X186070857Y-109434380D02*
X186689904Y-109434380D01*
X186356571Y-109815333D01*
X186499428Y-109815333D01*
X186594666Y-109862952D01*
X186642285Y-109910571D01*
X186689904Y-110005809D01*
X186689904Y-110243904D01*
X186642285Y-110339142D01*
X186594666Y-110386761D01*
X186499428Y-110434380D01*
X186213714Y-110434380D01*
X186118476Y-110386761D01*
X186070857Y-110339142D01*
X134794666Y-109434380D02*
X135413714Y-109434380D01*
X135080380Y-109815333D01*
X135223238Y-109815333D01*
X135318476Y-109862952D01*
X135366095Y-109910571D01*
X135413714Y-110005809D01*
X135413714Y-110243904D01*
X135366095Y-110339142D01*
X135318476Y-110386761D01*
X135223238Y-110434380D01*
X134937523Y-110434380D01*
X134842285Y-110386761D01*
X134794666Y-110339142D01*
X133127714Y-110434380D02*
X132556285Y-110434380D01*
X132842000Y-110434380D02*
X132842000Y-109434380D01*
X132746761Y-109577238D01*
X132651523Y-109672476D01*
X132556285Y-109720095D01*
D13*
X152710380Y-100385904D02*
X155567523Y-100385904D01*
X154138952Y-105385904D02*
X154138952Y-100385904D01*
X158186571Y-100385904D02*
X159138952Y-100385904D01*
X159615142Y-100624000D01*
X160091333Y-101100190D01*
X160329428Y-102052571D01*
X160329428Y-103719238D01*
X160091333Y-104671619D01*
X159615142Y-105147809D01*
X159138952Y-105385904D01*
X158186571Y-105385904D01*
X157710380Y-105147809D01*
X157234190Y-104671619D01*
X156996095Y-103719238D01*
X156996095Y-102052571D01*
X157234190Y-101100190D01*
X157710380Y-100624000D01*
X158186571Y-100385904D01*
X162472285Y-105385904D02*
X162472285Y-100385904D01*
X164377047Y-100385904D01*
X164853238Y-100624000D01*
X165091333Y-100862095D01*
X165329428Y-101338285D01*
X165329428Y-102052571D01*
X165091333Y-102528761D01*
X164853238Y-102766857D01*
X164377047Y-103004952D01*
X162472285Y-103004952D01*
D14*
X131258000Y-88646000D02*
X131258000Y-87316000D01*
X131258000Y-87316000D02*
X132588000Y-87316000D01*
X131258000Y-89916000D02*
X133858000Y-89916000D01*
X133858000Y-89916000D02*
X133858000Y-87316000D01*
X133858000Y-87316000D02*
X187258000Y-87316000D01*
X187258000Y-92516000D02*
X187258000Y-87316000D01*
X131258000Y-92516000D02*
X187258000Y-92516000D01*
X131258000Y-92516000D02*
X131258000Y-89916000D01*
D10*
X172640666Y-89622380D02*
X172640666Y-90336666D01*
X172593047Y-90479523D01*
X172497809Y-90574761D01*
X172354952Y-90622380D01*
X172259714Y-90622380D01*
X173640666Y-90622380D02*
X173069238Y-90622380D01*
X173354952Y-90622380D02*
X173354952Y-89622380D01*
X173259714Y-89765238D01*
X173164476Y-89860476D01*
X173069238Y-89908095D01*
X129270380Y-90249333D02*
X129984666Y-90249333D01*
X130127523Y-90296952D01*
X130222761Y-90392190D01*
X130270380Y-90535047D01*
X130270380Y-90630285D01*
X129365619Y-89820761D02*
X129318000Y-89773142D01*
X129270380Y-89677904D01*
X129270380Y-89439809D01*
X129318000Y-89344571D01*
X129365619Y-89296952D01*
X129460857Y-89249333D01*
X129556095Y-89249333D01*
X129698952Y-89296952D01*
X130270380Y-89868380D01*
X130270380Y-89249333D01*
%LPC*%
D15*
X132626100Y-114452400D03*
X135166100Y-114452400D03*
X137706100Y-114452400D03*
X140246100Y-114452400D03*
X142786100Y-114452400D03*
X145326100Y-114452400D03*
X147866100Y-114452400D03*
X150406100Y-114452400D03*
X152946100Y-114452400D03*
X155486100Y-114452400D03*
X158026100Y-114452400D03*
X160566100Y-114452400D03*
X163106100Y-114452400D03*
X165646100Y-114452400D03*
X168186100Y-114452400D03*
X170726100Y-114452400D03*
X173266100Y-114452400D03*
X175806100Y-114452400D03*
X178346100Y-114452400D03*
X180886100Y-114452400D03*
X183426100Y-114452400D03*
X185966100Y-114452400D03*
D16*
X185928000Y-91186000D03*
X185928000Y-88646000D03*
X183388000Y-91186000D03*
X183388000Y-88646000D03*
X180848000Y-91186000D03*
X180848000Y-88646000D03*
X178308000Y-91186000D03*
X178308000Y-88646000D03*
X175768000Y-91186000D03*
X175768000Y-88646000D03*
X173228000Y-91186000D03*
X173228000Y-88646000D03*
X170688000Y-91186000D03*
X170688000Y-88646000D03*
X168148000Y-91186000D03*
X168148000Y-88646000D03*
X165608000Y-91186000D03*
X165608000Y-88646000D03*
X163068000Y-91186000D03*
X163068000Y-88646000D03*
X160528000Y-91186000D03*
X160528000Y-88646000D03*
X157988000Y-91186000D03*
X157988000Y-88646000D03*
X155448000Y-91186000D03*
X155448000Y-88646000D03*
X152908000Y-91186000D03*
X152908000Y-88646000D03*
X150368000Y-91186000D03*
X150368000Y-88646000D03*
X147828000Y-91186000D03*
X147828000Y-88646000D03*
X145288000Y-91186000D03*
X145288000Y-88646000D03*
X142748000Y-91186000D03*
X142748000Y-88646000D03*
X140208000Y-91186000D03*
X140208000Y-88646000D03*
X137668000Y-91186000D03*
X137668000Y-88646000D03*
X135128000Y-91186000D03*
X135128000Y-88646000D03*
X132588000Y-91186000D03*
D17*
X132588000Y-88646000D03*
M02*
