G04 #@! TF.GenerationSoftware,KiCad,Pcbnew,(5.1.5-0)*
G04 #@! TF.CreationDate,2022-08-09T08:10:04-04:00*
G04 #@! TF.ProjectId,breakout_board,62726561-6b6f-4757-945f-626f6172642e,rev?*
G04 #@! TF.SameCoordinates,Original*
G04 #@! TF.FileFunction,Copper,L2,Bot*
G04 #@! TF.FilePolarity,Positive*
%FSLAX46Y46*%
G04 Gerber Fmt 4.6, Leading zero omitted, Abs format (unit mm)*
G04 Created by KiCad (PCBNEW (5.1.5-0)) date 2022-08-09 08:10:04*
%MOMM*%
%LPD*%
G04 APERTURE LIST*
%ADD10R,1.270000X5.080000*%
%ADD11O,1.700000X1.700000*%
%ADD12R,1.700000X1.700000*%
%ADD13C,0.250000*%
G04 APERTURE END LIST*
D10*
X132636260Y-114454940D03*
X135176260Y-114454940D03*
X137716260Y-114454940D03*
X140256260Y-114454940D03*
X142796260Y-114454940D03*
X145336260Y-114454940D03*
X147876260Y-114454940D03*
X150416260Y-114454940D03*
X152956260Y-114454940D03*
X155496260Y-114454940D03*
X158036260Y-114454940D03*
X160576260Y-114454940D03*
X163116260Y-114454940D03*
X165656260Y-114454940D03*
X168196260Y-114454940D03*
X170736260Y-114454940D03*
X173276260Y-114454940D03*
X175816260Y-114454940D03*
X178356260Y-114454940D03*
X180896260Y-114454940D03*
X183436260Y-114454940D03*
X185976260Y-114454940D03*
D11*
X185928000Y-91186000D03*
X185928000Y-88646000D03*
X183388000Y-91186000D03*
X183388000Y-88646000D03*
X180848000Y-91186000D03*
X180848000Y-88646000D03*
X178308000Y-91186000D03*
X178308000Y-88646000D03*
X175768000Y-91186000D03*
X175768000Y-88646000D03*
X173228000Y-91186000D03*
X173228000Y-88646000D03*
X170688000Y-91186000D03*
X170688000Y-88646000D03*
X168148000Y-91186000D03*
X168148000Y-88646000D03*
X165608000Y-91186000D03*
X165608000Y-88646000D03*
X163068000Y-91186000D03*
X163068000Y-88646000D03*
X160528000Y-91186000D03*
X160528000Y-88646000D03*
X157988000Y-91186000D03*
X157988000Y-88646000D03*
X155448000Y-91186000D03*
X155448000Y-88646000D03*
X152908000Y-91186000D03*
X152908000Y-88646000D03*
X150368000Y-91186000D03*
X150368000Y-88646000D03*
X147828000Y-91186000D03*
X147828000Y-88646000D03*
X145288000Y-91186000D03*
X145288000Y-88646000D03*
X142748000Y-91186000D03*
X142748000Y-88646000D03*
X140208000Y-91186000D03*
X140208000Y-88646000D03*
X137668000Y-91186000D03*
X137668000Y-88646000D03*
X135128000Y-91186000D03*
X135128000Y-88646000D03*
X132588000Y-91186000D03*
D12*
X132588000Y-88646000D03*
D13*
X132588000Y-114406680D02*
X132636260Y-114454940D01*
X132588000Y-91186000D02*
X132588000Y-114406680D01*
X135128000Y-114406680D02*
X135176260Y-114454940D01*
X135128000Y-91186000D02*
X135128000Y-114406680D01*
X137668000Y-114406680D02*
X137716260Y-114454940D01*
X137668000Y-91186000D02*
X137668000Y-114406680D01*
X140208000Y-114406680D02*
X140256260Y-114454940D01*
X140208000Y-91186000D02*
X140208000Y-114406680D01*
X142748000Y-114406680D02*
X142796260Y-114454940D01*
X142748000Y-91186000D02*
X142748000Y-114406680D01*
X145288000Y-114406680D02*
X145336260Y-114454940D01*
X145288000Y-91186000D02*
X145288000Y-114406680D01*
X147828000Y-114406680D02*
X147876260Y-114454940D01*
X147828000Y-91186000D02*
X147828000Y-114406680D01*
X150368000Y-114406680D02*
X150416260Y-114454940D01*
X150368000Y-91186000D02*
X150368000Y-114406680D01*
X152908000Y-114406680D02*
X152956260Y-114454940D01*
X152908000Y-91186000D02*
X152908000Y-114406680D01*
X155448000Y-114406680D02*
X155496260Y-114454940D01*
X155448000Y-91186000D02*
X155448000Y-114406680D01*
X157988000Y-114406680D02*
X158036260Y-114454940D01*
X157988000Y-91186000D02*
X157988000Y-114406680D01*
X160528000Y-114406680D02*
X160576260Y-114454940D01*
X160528000Y-91186000D02*
X160528000Y-114406680D01*
X163068000Y-114406680D02*
X163116260Y-114454940D01*
X163068000Y-91186000D02*
X163068000Y-114406680D01*
X165608000Y-114406680D02*
X165656260Y-114454940D01*
X165608000Y-91186000D02*
X165608000Y-114406680D01*
X168148000Y-114406680D02*
X168196260Y-114454940D01*
X168148000Y-91186000D02*
X168148000Y-114406680D01*
X170688000Y-114406680D02*
X170736260Y-114454940D01*
X170688000Y-91186000D02*
X170688000Y-114406680D01*
X173228000Y-114406680D02*
X173276260Y-114454940D01*
X173228000Y-91186000D02*
X173228000Y-114406680D01*
X175768000Y-114406680D02*
X175816260Y-114454940D01*
X175768000Y-91186000D02*
X175768000Y-114406680D01*
X178308000Y-114406680D02*
X178356260Y-114454940D01*
X178308000Y-91186000D02*
X178308000Y-114406680D01*
X180848000Y-114406680D02*
X180896260Y-114454940D01*
X180848000Y-91186000D02*
X180848000Y-114406680D01*
X183388000Y-114406680D02*
X183436260Y-114454940D01*
X183388000Y-91186000D02*
X183388000Y-114406680D01*
X185928000Y-114406680D02*
X185976260Y-114454940D01*
X185928000Y-91186000D02*
X185928000Y-114406680D01*
M02*
