%FSLAX45Y45*%
G04 Gerber Fmt 4.5, Leading zero omitted, Abs format (unit mm)*
G04 Created by KiCad (PCBNEW (5.1.5-0)) date 2022-08-30 11:14:49*
%MOMM*%
%LPD*%
G04 APERTURE LIST*
%TA.AperFunction,Profile*%
%ADD10C,0.100000*%
%TD*%
%ADD11C,0.200000*%
%ADD12C,0.300000*%
G04 APERTURE END LIST*
D10*
X18846800Y-4216400D02*
X18846800Y-11785600D01*
X13004800Y-4216400D02*
X18846800Y-4216400D01*
X13004800Y-11785600D02*
X13004800Y-4216400D01*
X18846800Y-11785600D02*
X13004800Y-11785600D01*
D11*
X15638800Y-6774200D02*
X15958800Y-7094200D01*
X15958800Y-6774200D02*
X15638800Y-7094200D01*
X14114800Y-4437400D02*
X14434800Y-4757400D01*
X14434800Y-4437400D02*
X14114800Y-4757400D01*
X17188200Y-8222000D02*
X17508200Y-8542000D01*
X17508200Y-8222000D02*
X17188200Y-8542000D01*
X16908800Y-4437400D02*
X17228800Y-4757400D01*
X17228800Y-4437400D02*
X16908800Y-4757400D01*
D12*
X13286228Y-12256314D02*
X13286228Y-11956314D01*
X13357657Y-11956314D01*
X13400514Y-11970600D01*
X13429086Y-11999171D01*
X13443371Y-12027743D01*
X13457657Y-12084886D01*
X13457657Y-12127743D01*
X13443371Y-12184886D01*
X13429086Y-12213457D01*
X13400514Y-12242029D01*
X13357657Y-12256314D01*
X13286228Y-12256314D01*
X13586228Y-12256314D02*
X13586228Y-12056314D01*
X13586228Y-12113457D02*
X13600514Y-12084886D01*
X13614800Y-12070600D01*
X13643371Y-12056314D01*
X13671943Y-12056314D01*
X13771943Y-12256314D02*
X13771943Y-12056314D01*
X13771943Y-11956314D02*
X13757657Y-11970600D01*
X13771943Y-11984886D01*
X13786228Y-11970600D01*
X13771943Y-11956314D01*
X13771943Y-11984886D01*
X13957657Y-12256314D02*
X13929086Y-12242029D01*
X13914800Y-12213457D01*
X13914800Y-11956314D01*
X14114800Y-12256314D02*
X14086228Y-12242029D01*
X14071943Y-12213457D01*
X14071943Y-11956314D01*
X14457657Y-12256314D02*
X14457657Y-11956314D01*
X14557657Y-12170600D01*
X14657657Y-11956314D01*
X14657657Y-12256314D01*
X14929086Y-12256314D02*
X14929086Y-12099171D01*
X14914800Y-12070600D01*
X14886228Y-12056314D01*
X14829086Y-12056314D01*
X14800514Y-12070600D01*
X14929086Y-12242029D02*
X14900514Y-12256314D01*
X14829086Y-12256314D01*
X14800514Y-12242029D01*
X14786228Y-12213457D01*
X14786228Y-12184886D01*
X14800514Y-12156314D01*
X14829086Y-12142029D01*
X14900514Y-12142029D01*
X14929086Y-12127743D01*
X15071943Y-12056314D02*
X15071943Y-12356314D01*
X15071943Y-12070600D02*
X15100514Y-12056314D01*
X15157657Y-12056314D01*
X15186228Y-12070600D01*
X15200514Y-12084886D01*
X15214800Y-12113457D01*
X15214800Y-12199171D01*
X15200514Y-12227743D01*
X15186228Y-12242029D01*
X15157657Y-12256314D01*
X15100514Y-12256314D01*
X15071943Y-12242029D01*
X15343371Y-12227743D02*
X15357657Y-12242029D01*
X15343371Y-12256314D01*
X15329086Y-12242029D01*
X15343371Y-12227743D01*
X15343371Y-12256314D01*
X15343371Y-12070600D02*
X15357657Y-12084886D01*
X15343371Y-12099171D01*
X15329086Y-12084886D01*
X15343371Y-12070600D01*
X15343371Y-12099171D01*
X12679800Y-12590600D02*
X12999800Y-12910600D01*
X12999800Y-12590600D02*
X12679800Y-12910600D01*
X13257657Y-12586314D02*
X13443371Y-12586314D01*
X13343371Y-12700600D01*
X13386228Y-12700600D01*
X13414800Y-12714886D01*
X13429086Y-12729171D01*
X13443371Y-12757743D01*
X13443371Y-12829171D01*
X13429086Y-12857743D01*
X13414800Y-12872029D01*
X13386228Y-12886314D01*
X13300514Y-12886314D01*
X13271943Y-12872029D01*
X13257657Y-12857743D01*
X13571943Y-12857743D02*
X13586228Y-12872029D01*
X13571943Y-12886314D01*
X13557657Y-12872029D01*
X13571943Y-12857743D01*
X13571943Y-12886314D01*
X13700514Y-12614886D02*
X13714800Y-12600600D01*
X13743371Y-12586314D01*
X13814800Y-12586314D01*
X13843371Y-12600600D01*
X13857657Y-12614886D01*
X13871943Y-12643457D01*
X13871943Y-12672029D01*
X13857657Y-12714886D01*
X13686228Y-12886314D01*
X13871943Y-12886314D01*
X14057657Y-12586314D02*
X14086228Y-12586314D01*
X14114800Y-12600600D01*
X14129086Y-12614886D01*
X14143371Y-12643457D01*
X14157657Y-12700600D01*
X14157657Y-12772029D01*
X14143371Y-12829171D01*
X14129086Y-12857743D01*
X14114800Y-12872029D01*
X14086228Y-12886314D01*
X14057657Y-12886314D01*
X14029086Y-12872029D01*
X14014800Y-12857743D01*
X14000514Y-12829171D01*
X13986228Y-12772029D01*
X13986228Y-12700600D01*
X14000514Y-12643457D01*
X14014800Y-12614886D01*
X14029086Y-12600600D01*
X14057657Y-12586314D01*
X14286228Y-12886314D02*
X14286228Y-12686314D01*
X14286228Y-12714886D02*
X14300514Y-12700600D01*
X14329086Y-12686314D01*
X14371943Y-12686314D01*
X14400514Y-12700600D01*
X14414800Y-12729171D01*
X14414800Y-12886314D01*
X14414800Y-12729171D02*
X14429086Y-12700600D01*
X14457657Y-12686314D01*
X14500514Y-12686314D01*
X14529086Y-12700600D01*
X14543371Y-12729171D01*
X14543371Y-12886314D01*
X14686228Y-12886314D02*
X14686228Y-12686314D01*
X14686228Y-12714886D02*
X14700514Y-12700600D01*
X14729086Y-12686314D01*
X14771943Y-12686314D01*
X14800514Y-12700600D01*
X14814800Y-12729171D01*
X14814800Y-12886314D01*
X14814800Y-12729171D02*
X14829086Y-12700600D01*
X14857657Y-12686314D01*
X14900514Y-12686314D01*
X14929086Y-12700600D01*
X14943371Y-12729171D01*
X14943371Y-12886314D01*
X15529086Y-12572029D02*
X15271943Y-12957743D01*
X15914800Y-12586314D02*
X15943371Y-12586314D01*
X15971943Y-12600600D01*
X15986228Y-12614886D01*
X16000514Y-12643457D01*
X16014800Y-12700600D01*
X16014800Y-12772029D01*
X16000514Y-12829171D01*
X15986228Y-12857743D01*
X15971943Y-12872029D01*
X15943371Y-12886314D01*
X15914800Y-12886314D01*
X15886228Y-12872029D01*
X15871943Y-12857743D01*
X15857657Y-12829171D01*
X15843371Y-12772029D01*
X15843371Y-12700600D01*
X15857657Y-12643457D01*
X15871943Y-12614886D01*
X15886228Y-12600600D01*
X15914800Y-12586314D01*
X16143371Y-12857743D02*
X16157657Y-12872029D01*
X16143371Y-12886314D01*
X16129086Y-12872029D01*
X16143371Y-12857743D01*
X16143371Y-12886314D01*
X16443371Y-12886314D02*
X16271943Y-12886314D01*
X16357657Y-12886314D02*
X16357657Y-12586314D01*
X16329086Y-12629171D01*
X16300514Y-12657743D01*
X16271943Y-12672029D01*
X16557657Y-12614886D02*
X16571943Y-12600600D01*
X16600514Y-12586314D01*
X16671943Y-12586314D01*
X16700514Y-12600600D01*
X16714800Y-12614886D01*
X16729086Y-12643457D01*
X16729086Y-12672029D01*
X16714800Y-12714886D01*
X16543371Y-12886314D01*
X16729086Y-12886314D01*
X16986228Y-12586314D02*
X16929086Y-12586314D01*
X16900514Y-12600600D01*
X16886228Y-12614886D01*
X16857657Y-12657743D01*
X16843371Y-12714886D01*
X16843371Y-12829171D01*
X16857657Y-12857743D01*
X16871943Y-12872029D01*
X16900514Y-12886314D01*
X16957657Y-12886314D01*
X16986228Y-12872029D01*
X17000514Y-12857743D01*
X17014800Y-12829171D01*
X17014800Y-12757743D01*
X17000514Y-12729171D01*
X16986228Y-12714886D01*
X16957657Y-12700600D01*
X16900514Y-12700600D01*
X16871943Y-12714886D01*
X16857657Y-12729171D01*
X16843371Y-12757743D01*
X17129086Y-12586314D02*
X17129086Y-12643457D01*
X17243371Y-12586314D02*
X17243371Y-12643457D01*
X17686228Y-13000600D02*
X17671943Y-12986314D01*
X17643371Y-12943457D01*
X17629086Y-12914886D01*
X17614800Y-12872029D01*
X17600514Y-12800600D01*
X17600514Y-12743457D01*
X17614800Y-12672029D01*
X17629086Y-12629171D01*
X17643371Y-12600600D01*
X17671943Y-12557743D01*
X17686228Y-12543457D01*
X17929086Y-12686314D02*
X17929086Y-12886314D01*
X17857657Y-12572029D02*
X17786228Y-12786314D01*
X17971943Y-12786314D01*
X18314800Y-12886314D02*
X18314800Y-12586314D01*
X18443371Y-12886314D02*
X18443371Y-12729171D01*
X18429086Y-12700600D01*
X18400514Y-12686314D01*
X18357657Y-12686314D01*
X18329086Y-12700600D01*
X18314800Y-12714886D01*
X18629086Y-12886314D02*
X18600514Y-12872029D01*
X18586228Y-12857743D01*
X18571943Y-12829171D01*
X18571943Y-12743457D01*
X18586228Y-12714886D01*
X18600514Y-12700600D01*
X18629086Y-12686314D01*
X18671943Y-12686314D01*
X18700514Y-12700600D01*
X18714800Y-12714886D01*
X18729086Y-12743457D01*
X18729086Y-12829171D01*
X18714800Y-12857743D01*
X18700514Y-12872029D01*
X18671943Y-12886314D01*
X18629086Y-12886314D01*
X18900514Y-12886314D02*
X18871943Y-12872029D01*
X18857657Y-12843457D01*
X18857657Y-12586314D01*
X19129086Y-12872029D02*
X19100514Y-12886314D01*
X19043371Y-12886314D01*
X19014800Y-12872029D01*
X19000514Y-12843457D01*
X19000514Y-12729171D01*
X19014800Y-12700600D01*
X19043371Y-12686314D01*
X19100514Y-12686314D01*
X19129086Y-12700600D01*
X19143371Y-12729171D01*
X19143371Y-12757743D01*
X19000514Y-12786314D01*
X19257657Y-12872029D02*
X19286228Y-12886314D01*
X19343371Y-12886314D01*
X19371943Y-12872029D01*
X19386228Y-12843457D01*
X19386228Y-12829171D01*
X19371943Y-12800600D01*
X19343371Y-12786314D01*
X19300514Y-12786314D01*
X19271943Y-12772029D01*
X19257657Y-12743457D01*
X19257657Y-12729171D01*
X19271943Y-12700600D01*
X19300514Y-12686314D01*
X19343371Y-12686314D01*
X19371943Y-12700600D01*
X19486228Y-13000600D02*
X19500514Y-12986314D01*
X19529086Y-12943457D01*
X19543371Y-12914886D01*
X19557657Y-12872029D01*
X19571943Y-12800600D01*
X19571943Y-12743457D01*
X19557657Y-12672029D01*
X19543371Y-12629171D01*
X19529086Y-12600600D01*
X19500514Y-12557743D01*
X19486228Y-12543457D01*
X20029086Y-13000600D02*
X20014800Y-12986314D01*
X19986228Y-12943457D01*
X19971943Y-12914886D01*
X19957657Y-12872029D01*
X19943371Y-12800600D01*
X19943371Y-12743457D01*
X19957657Y-12672029D01*
X19971943Y-12629171D01*
X19986228Y-12600600D01*
X20014800Y-12557743D01*
X20029086Y-12543457D01*
X20143371Y-12686314D02*
X20143371Y-12886314D01*
X20143371Y-12714886D02*
X20157657Y-12700600D01*
X20186228Y-12686314D01*
X20229086Y-12686314D01*
X20257657Y-12700600D01*
X20271943Y-12729171D01*
X20271943Y-12886314D01*
X20457657Y-12886314D02*
X20429086Y-12872029D01*
X20414800Y-12857743D01*
X20400514Y-12829171D01*
X20400514Y-12743457D01*
X20414800Y-12714886D01*
X20429086Y-12700600D01*
X20457657Y-12686314D01*
X20500514Y-12686314D01*
X20529086Y-12700600D01*
X20543371Y-12714886D01*
X20557657Y-12743457D01*
X20557657Y-12829171D01*
X20543371Y-12857743D01*
X20529086Y-12872029D01*
X20500514Y-12886314D01*
X20457657Y-12886314D01*
X20643371Y-12686314D02*
X20757657Y-12686314D01*
X20686228Y-12586314D02*
X20686228Y-12843457D01*
X20700514Y-12872029D01*
X20729086Y-12886314D01*
X20757657Y-12886314D01*
X21086228Y-12686314D02*
X21086228Y-12986314D01*
X21086228Y-12700600D02*
X21114800Y-12686314D01*
X21171943Y-12686314D01*
X21200514Y-12700600D01*
X21214800Y-12714886D01*
X21229086Y-12743457D01*
X21229086Y-12829171D01*
X21214800Y-12857743D01*
X21200514Y-12872029D01*
X21171943Y-12886314D01*
X21114800Y-12886314D01*
X21086228Y-12872029D01*
X21400514Y-12886314D02*
X21371943Y-12872029D01*
X21357657Y-12843457D01*
X21357657Y-12586314D01*
X21643371Y-12886314D02*
X21643371Y-12729171D01*
X21629086Y-12700600D01*
X21600514Y-12686314D01*
X21543371Y-12686314D01*
X21514800Y-12700600D01*
X21643371Y-12872029D02*
X21614800Y-12886314D01*
X21543371Y-12886314D01*
X21514800Y-12872029D01*
X21500514Y-12843457D01*
X21500514Y-12814886D01*
X21514800Y-12786314D01*
X21543371Y-12772029D01*
X21614800Y-12772029D01*
X21643371Y-12757743D01*
X21743371Y-12686314D02*
X21857657Y-12686314D01*
X21786228Y-12586314D02*
X21786228Y-12843457D01*
X21800514Y-12872029D01*
X21829086Y-12886314D01*
X21857657Y-12886314D01*
X22071943Y-12872029D02*
X22043371Y-12886314D01*
X21986228Y-12886314D01*
X21957657Y-12872029D01*
X21943371Y-12843457D01*
X21943371Y-12729171D01*
X21957657Y-12700600D01*
X21986228Y-12686314D01*
X22043371Y-12686314D01*
X22071943Y-12700600D01*
X22086228Y-12729171D01*
X22086228Y-12757743D01*
X21943371Y-12786314D01*
X22343371Y-12886314D02*
X22343371Y-12586314D01*
X22343371Y-12872029D02*
X22314800Y-12886314D01*
X22257657Y-12886314D01*
X22229086Y-12872029D01*
X22214800Y-12857743D01*
X22200514Y-12829171D01*
X22200514Y-12743457D01*
X22214800Y-12714886D01*
X22229086Y-12700600D01*
X22257657Y-12686314D01*
X22314800Y-12686314D01*
X22343371Y-12700600D01*
X22457657Y-13000600D02*
X22471943Y-12986314D01*
X22500514Y-12943457D01*
X22514800Y-12914886D01*
X22529086Y-12872029D01*
X22543371Y-12800600D01*
X22543371Y-12743457D01*
X22529086Y-12672029D01*
X22514800Y-12629171D01*
X22500514Y-12600600D01*
X22471943Y-12557743D01*
X22457657Y-12543457D01*
M02*
